Montserrat.glyphspackage
{
glyphname = exclam;
layers = (
{
layerId = "80A23A3A-6F8A-47FF-B13B-1FE7B70F65E8";
shapes = (
{
closed = 1;
nodes = (
(247,268,l),
(292,700,l),
(22,700,l),
(67,268,l)
);
},
{
closed = 1;
nodes = (
(235,-10,o),
(289,44,o),
(289,110,cs),
(289,177,o),
(235,228,o),
(157,228,cs),
(79,228,o),
(25,177,o),
(25,110,cs),
(25,44,o),
(79,-10,o),
(157,-10,cs)
);
}
);
width = 314;
},
{
background = {
shapes = (
{
closed = 1;
nodes = (
(180,227,l),
(202,700,l),
(72,700,l),
(93,227,l)
);
},
{
closed = 1;
nodes = (
(179,-6,o),
(209,26,o),
(209,65,cs),
(209,105,o),
(179,136,o),
(137,136,cs),
(95,136,o),
(64,105,o),
(64,65,cs),
(64,26,o),
(95,-6,o),
(137,-6,cs)
);
}
);
};
layerId = "4054872B-F70F-4FA7-B657-FACA7DE5D444";
shapes = (
{
closed = 1;
nodes = (
(180,227,l),
(202,700,l),
(72,700,l),
(93,227,l)
);
},
{
closed = 1;
nodes = (
(179,-6,o),
(209,26,o),
(209,65,cs),
(209,105,o),
(179,136,o),
(137,136,cs),
(95,136,o),
(64,105,o),
(64,65,cs),
(64,26,o),
(95,-6,o),
(137,-6,cs)
);
}
);
width = 273;
},
{
layerId = "6C677F0D-8978-4FCA-B34D-F7758EC5234D";
shapes = (
{
closed = 1;
nodes = (
(128,188,l),
(132,700,l),
(110,700,l),
(114,188,l)
);
},
{
closed = 1;
nodes = (
(135,-3,o),
(147,9,o),
(147,23,cs),
(147,37,o),
(135,49,o),
(121,49,cs),
(107,49,o),
(95,37,o),
(95,23,cs),
(95,9,o),
(107,-3,o),
(121,-3,cs)
);
}
);
width = 242;
}
);
leftKerningGroup = exclam;
rightKerningGroup = exclam;
unicode = 33;
}
{
glyphname = numbersign;
layers = (
{
layerId = "80A23A3A-6F8A-47FF-B13B-1FE7B70F65E8";
shapes = (
{
closed = 1;
nodes = (
(536,0,l),
(623,700,l),
(463,700,l),
(376,0,l)
);
},
{
closed = 1;
nodes = (
(693,137,l),
(693,287,l),
(13,287,l),
(13,137,l)
);
},
{
closed = 1;
nodes = (
(277,0,l),
(364,700,l),
(204,700,l),
(117,0,l)
);
},
{
closed = 1;
nodes = (
(727,413,l),
(727,563,l),
(47,563,l),
(47,413,l)
);
}
);
width = 740;
},
{
background = {
shapes = (
{
closed = 1;
nodes = (
(481,0,l),
(567,700,l),
(486,700,l),
(400,0,l)
);
},
{
closed = 1;
nodes = (
(650,175,l),
(649,257,l),
(25,257,l),
(26,175,l)
);
},
{
closed = 1;
nodes = (
(221,0,l),
(308,700,l),
(227,700,l),
(140,0,l)
);
},
{
closed = 1;
nodes = (
(682,443,l),
(681,525,l),
(58,525,l),
(58,443,l)
);
}
);
};
layerId = "4054872B-F70F-4FA7-B657-FACA7DE5D444";
shapes = (
{
closed = 1;
nodes = (
(481,0,l),
(567,700,l),
(486,700,l),
(400,0,l)
);
},
{
closed = 1;
nodes = (
(649,175,l),
(649,257,l),
(25,257,l),
(25,175,l)
);
},
{
closed = 1;
nodes = (
(221,0,l),
(308,700,l),
(227,700,l),
(140,0,l)
);
},
{
closed = 1;
nodes = (
(682,443,l),
(681,525,l),
(58,525,l),
(58,443,l)
);
}
);
width = 707;
},
{
layerId = "6C677F0D-8978-4FCA-B34D-F7758EC5234D";
shapes = (
{
closed = 1;
nodes = (
(438,0,l),
(524,700,l),
(504,700,l),
(418,0,l)
);
},
{
closed = 1;
nodes = (
(615,210,l),
(615,229,l),
(35,229,l),
(35,210,l)
);
},
{
closed = 1;
nodes = (
(178,0,l),
(264,700,l),
(244,700,l),
(158,0,l)
);
},
{
closed = 1;
nodes = (
(646,471,l),
(646,490,l),
(66,490,l),
(66,471,l)
);
}
);
width = 682;
}
);
leftKerningGroup = numbersign;
rightKerningGroup = numbersign;
unicode = 35;
}
{
glyphname = parenleft;
layers = (
{
layerId = "80A23A3A-6F8A-47FF-B13B-1FE7B70F65E8";
shapes = (
{
closed = 1;
nodes = (
(396,-194,l),
(306,-34,o),
(268,113,o),
(268,274,cs),
(268,435,o),
(306,582,o),
(396,742,c),
(180,742,l),
(94,622,o),
(47,457,o),
(47,274,cs),
(47,91,o),
(94,-74,o),
(180,-194,c)
);
}
);
width = 381;
},
{
background = {
shapes = (
{
closed = 1;
nodes = (
(315,-194,l),
(233,-50,o),
(198,101,o),
(198,274,cs),
(198,447,o),
(233,598,o),
(315,742,c),
(210,742,l),
(133,623,o),
(90,458,o),
(90,274,cs),
(90,90,o),
(133,-73,o),
(210,-194,c)
);
}
);
};
layerId = "4054872B-F70F-4FA7-B657-FACA7DE5D444";
shapes = (
{
closed = 1;
nodes = (
(315,-194,l),
(233,-50,o),
(198,101,o),
(198,274,cs),
(198,447,o),
(233,598,o),
(315,742,c),
(210,742,l),
(133,623,o),
(90,458,o),
(90,274,cs),
(90,90,o),
(133,-73,o),
(210,-194,c)
);
}
);
width = 342;
},
{
layerId = "6C677F0D-8978-4FCA-B34D-F7758EC5234D";
shapes = (
{
closed = 1;
nodes = (
(253,-194,l),
(177,-66,o),
(143,89,o),
(143,274,cs),
(143,459,o),
(177,614,o),
(253,742,c),
(234,742,l),
(163,624,o),
(123,459,o),
(123,274,cs),
(123,89,o),
(163,-73,o),
(234,-194,c)
);
}
);
width = 311;
}
);
leftKerningGroup = parenleft;
rightKerningGroup = parenleft;
unicode = 40;
}
{
glyphname = parenright;
layers = (
{
layerId = "80A23A3A-6F8A-47FF-B13B-1FE7B70F65E8";
shapes = (
{
closed = 1;
nodes = (
(201,-194,l),
(287,-74,o),
(334,91,o),
(334,274,cs),
(334,457,o),
(287,622,o),
(201,742,c),
(-15,742,l),
(75,582,o),
(113,435,o),
(113,274,cs),
(113,113,o),
(75,-34,o),
(-15,-194,c)
);
}
);
width = 381;
},
{
background = {
shapes = (
{
closed = 1;
nodes = (
(210,-73,o),
(253,90,o),
(253,274,cs),
(253,458,o),
(210,623,o),
(132,742,c),
(27,742,l),
(109,598,o),
(145,447,o),
(145,274,cs),
(145,101,o),
(109,-50,o),
(27,-194,c),
(132,-194,l)
);
}
);
};
layerId = "4054872B-F70F-4FA7-B657-FACA7DE5D444";
shapes = (
{
closed = 1;
nodes = (
(132,-194,l),
(210,-73,o),
(253,90,o),
(253,274,cs),
(253,458,o),
(210,623,o),
(132,742,c),
(27,742,l),
(109,598,o),
(145,447,o),
(145,274,cs),
(145,101,o),
(109,-50,o),
(27,-194,c)
);
}
);
width = 343;
},
{
layerId = "6C677F0D-8978-4FCA-B34D-F7758EC5234D";
shapes = (
{
closed = 1;
nodes = (
(77,-194,l),
(148,-73,o),
(188,89,o),
(188,274,cs),
(188,459,o),
(148,624,o),
(77,742,c),
(58,742,l),
(134,614,o),
(168,459,o),
(168,274,cs),
(168,89,o),
(134,-66,o),
(58,-194,c)
);
}
);
width = 311;
}
);
leftKerningGroup = parenright;
rightKerningGroup = parenright;
unicode = 41;
}
{
glyphname = asterisk;
layers = (
{
layerId = "80A23A3A-6F8A-47FF-B13B-1FE7B70F65E8";
shapes = (
{
closed = 1;
nodes = (
(398,695,l),
(283,624,l),
(300,614,l),
(303,742,l),
(169,742,l),
(172,614,l),
(189,624,l),
(74,695,l),
(6,583,l),
(134,515,l),
(134,549,l),
(6,481,l),
(74,369,l),
(189,440,l),
(172,450,l),
(169,322,l),
(303,322,l),
(300,450,l),
(283,440,l),
(398,369,l),
(467,481,l),
(339,549,l),
(339,515,l),
(467,583,l)
);
}
);
width = 473;
},
{
background = {
shapes = (
{
closed = 1;
nodes = (
(355,680,l),
(225,603,l),
(237,596,l),
(238,742,l),
(170,742,l),
(171,596,l),
(183,603,l),
(53,680,l),
(18,617,l),
(154,542,l),
(154,563,l),
(18,488,l),
(53,426,l),
(183,502,l),
(171,509,l),
(170,363,l),
(238,363,l),
(237,509,l),
(225,502,l),
(355,426,l),
(390,488,l),
(255,563,l),
(255,542,l),
(390,617,l)
);
}
);
};
layerId = "4054872B-F70F-4FA7-B657-FACA7DE5D444";
shapes = (
{
closed = 1;
nodes = (
(355,680,l),
(225,603,l),
(237,596,l),
(238,742,l),
(170,742,l),
(171,596,l),
(183,603,l),
(53,680,l),
(18,617,l),
(154,542,l),
(154,563,l),
(18,488,l),
(53,426,l),
(183,502,l),
(171,509,l),
(170,363,l),
(238,363,l),
(237,509,l),
(225,502,l),
(355,426,l),
(390,488,l),
(255,563,l),
(255,542,l),
(390,617,l)
);
}
);
width = 408;
},
{
layerId = "6C677F0D-8978-4FCA-B34D-F7758EC5234D";
shapes = (
{
closed = 1;
nodes = (
(322,665,l),
(180,583,l),
(188,579,l),
(188,742,l),
(170,742,l),
(170,579,l),
(178,583,l),
(36,665,l),
(27,649,l),
(170,567,l),
(170,577,l),
(27,495,l),
(36,479,l),
(179,561,l),
(170,565,l),
(170,402,l),
(188,402,l),
(188,565,l),
(180,561,l),
(322,479,l),
(331,495,l),
(189,577,l),
(189,567,l),
(331,649,l)
);
}
);
width = 358;
}
);
leftKerningGroup = asterisk;
rightKerningGroup = asterisk;
unicode = 42;
}
{
color = 3;
glyphname = plus;
layers = (
{
layerId = "80A23A3A-6F8A-47FF-B13B-1FE7B70F65E8";
shapes = (
{
closed = 1;
nodes = (
(400,105,l),
(400,595,l),
(220,595,l),
(220,105,l)
);
},
{
closed = 1;
nodes = (
(565,265,l),
(565,435,l),
(55,435,l),
(55,265,l)
);
}
);
width = 620;
},
{
background = {
shapes = (
{
closed = 1;
nodes = (
(338,128,l),
(338,572,l),
(248,572,l),
(248,128,l)
);
},
{
closed = 1;
nodes = (
(520,304,l),
(520,396,l),
(66,396,l),
(66,304,l)
);
}
);
};
layerId = "4054872B-F70F-4FA7-B657-FACA7DE5D444";
shapes = (
{
closed = 1;
nodes = (
(341,128,l),
(341,572,l),
(245,572,l),
(245,128,l)
);
},
{
closed = 1;
nodes = (
(520,305,l),
(520,395,l),
(66,395,l),
(66,305,l)
);
}
);
width = 586;
},
{
layerId = "6C677F0D-8978-4FCA-B34D-F7758EC5234D";
shapes = (
{
closed = 1;
nodes = (
(290,150,l),
(290,550,l),
(270,550,l),
(270,150,l)
);
},
{
closed = 1;
nodes = (
(485,340,l),
(485,359,l),
(75,359,l),
(75,340,l)
);
}
);
width = 560;
}
);
leftKerningGroup = hyphen;
rightKerningGroup = hyphen;
unicode = 43;
}
{
color = 3;
glyphname = comma;
layers = (
{
layerId = "80A23A3A-6F8A-47FF-B13B-1FE7B70F65E8";
shapes = (
{
closed = 1;
nodes = (
(175,-160,l),
(245,-11,ls),
(280,64,o),
(284,88,o),
(284,120,cs),
(284,198,o),
(228,248,o),
(152,248,cs),
(76,248,o),
(20,198,o),
(20,120,cs),
(20,42,o),
(74,-5,o),
(152,-5,c),
(119,121,l),
(35,-160,l)
);
}
);
width = 304;
},
{
background = {
shapes = (
{
closed = 1;
nodes = (
(123,-150,l),
(172,-8,l),
(188,34,o),
(191,49,o),
(191,70,cs),
(191,114,o),
(161,146,o),
(119,146,cs),
(77,146,o),
(46,115,o),
(46,70,cs),
(46,25,o),
(77,-4,o),
(120,-4,c),
(105,63,l),
(51,-150,l)
);
}
);
};
layerId = "4054872B-F70F-4FA7-B657-FACA7DE5D444";
shapes = (
{
closed = 1;
nodes = (
(123,-150,l),
(172,-10,ls),
(187,32,o),
(192,49,o),
(192,70,cs),
(192,114,o),
(161,146,o),
(119,146,cs),
(77,146,o),
(45,115,o),
(45,70,cs),
(45,25,o),
(77,-4,o),
(120,-4,c),
(105,63,l),
(51,-150,l)
);
}
);
width = 235;
},
{
layerId = "6C677F0D-8978-4FCA-B34D-F7758EC5234D";
shapes = (
{
closed = 1;
nodes = (
(80,-140,l),
(113,-6,l),
(115,5,o),
(117,12,o),
(117,23,cs),
(117,35,o),
(107,49,o),
(91,49,cs),
(76,49,o),
(65,37,o),
(65,23,cs),
(65,9,o),
(77,-3,o),
(93,-3,c),
(93,8,l),
(62,-140,l)
);
}
);
width = 182;
}
);
leftKerningGroup = period;
rightKerningGroup = period;
unicode = 44;
}
{
color = 3;
glyphname = hyphen;
layers = (
{
layerId = "80A23A3A-6F8A-47FF-B13B-1FE7B70F65E8";
shapes = (
{
closed = 1;
nodes = (
(345,204,l),
(345,374,l),
(45,374,l),
(45,204,l)
);
}
);
width = 390;
},
{
background = {
shapes = (
{
closed = 1;
nodes = (
(328,230,l),
(328,323,l),
(56,323,l),
(56,230,l)
);
}
);
};
layerId = "4054872B-F70F-4FA7-B657-FACA7DE5D444";
shapes = (
{
closed = 1;
nodes = (
(328,229,l),
(328,324,l),
(56,324,l),
(56,229,l)
);
}
);
width = 384;
},
{
layerId = "6C677F0D-8978-4FCA-B34D-F7758EC5234D";
shapes = (
{
closed = 1;
nodes = (
(315,255,l),
(315,274,l),
(65,274,l),
(65,255,l)
);
}
);
width = 380;
}
);
leftKerningGroup = hyphen;
rightKerningGroup = hyphen;
unicode = 45;
}
{
color = 3;
glyphname = period;
layers = (
{
layerId = "80A23A3A-6F8A-47FF-B13B-1FE7B70F65E8";
shapes = (
{
closed = 1;
nodes = (
(227,-10,o),
(284,44,o),
(284,120,cs),
(284,197,o),
(227,248,o),
(152,248,cs),
(77,248,o),
(20,197,o),
(20,120,cs),
(20,44,o),
(77,-10,o),
(152,-10,cs)
);
}
);
width = 304;
},
{
background = {
shapes = (
{
closed = 1;
nodes = (
(158,-6,o),
(190,26,o),
(190,70,cs),
(190,115,o),
(158,146,o),
(118,146,cs),
(77,146,o),
(45,115,o),
(45,70,cs),
(45,26,o),
(77,-6,o),
(118,-6,cs)
);
}
);
};
layerId = "4054872B-F70F-4FA7-B657-FACA7DE5D444";
shapes = (
{
closed = 1;
nodes = (
(158,-6,o),
(192,26,o),
(192,70,cs),
(192,115,o),
(158,146,o),
(118,146,cs),
(77,146,o),
(43,115,o),
(43,70,cs),
(43,26,o),
(77,-6,o),
(118,-6,cs)
);
}
);
width = 235;
},
{
layerId = "6C677F0D-8978-4FCA-B34D-F7758EC5234D";
shapes = (
{
closed = 1;
nodes = (
(105,-3,o),
(117,9,o),
(117,23,cs),
(117,37,o),
(105,49,o),
(91,49,cs),
(77,49,o),
(65,37,o),
(65,23,cs),
(65,9,o),
(77,-3,o),
(91,-3,cs)
);
}
);
width = 182;
}
);
leftKerningGroup = period;
rightKerningGroup = period;
unicode = 46;
}
{
glyphname = slash;
layers = (
{
layerId = "80A23A3A-6F8A-47FF-B13B-1FE7B70F65E8";
shapes = (
{
closed = 1;
nodes = (
(160,-100,l),
(490,842,l),
(290,842,l),
(-40,-100,l)
);
}
);
width = 440;
},
{
background = {
shapes = (
{
closed = 1;
nodes = (
(70,-100,l),
(400,842,l),
(301,842,l),
(-29,-100,l)
);
}
);
};
layerId = "4054872B-F70F-4FA7-B657-FACA7DE5D444";
shapes = (
{
closed = 1;
nodes = (
(70,-100,l),
(400,842,l),
(301,842,l),
(-29,-100,l)
);
}
);
width = 361;
},
{
layerId = "6C677F0D-8978-4FCA-B34D-F7758EC5234D";
shapes = (
{
closed = 1;
nodes = (
(0,-100,l),
(330,842,l),
(310,842,l),
(-20,-100,l)
);
}
);
width = 300;
}
);
leftKerningGroup = slash;
rightKerningGroup = slash;
unicode = 47;
}
{
color = 3;
glyphname = zero;
layers = (
{
layerId = "80A23A3A-6F8A-47FF-B13B-1FE7B70F65E8";
shapes = (
{
closed = 1;
nodes = (
(531,-16,o),
(663,118,o),
(663,350,cs),
(663,582,o),
(531,716,o),
(346,716,cs),
(161,716,o),
(29,582,o),
(29,350,cs),
(29,118,o),
(161,-16,o),
(346,-16,cs)
);
},
{
closed = 1;
nodes = (
(300,173,o),
(266,215,o),
(266,350,cs),
(266,485,o),
(300,527,o),
(346,527,cs),
(392,527,o),
(426,485,o),
(426,350,cs),
(426,215,o),
(392,173,o),
(346,173,cs)
);
}
);
width = 692;
},
{
background = {
shapes = (
{
closed = 1;
nodes = (
(505,-9,o),
(624,127,o),
(624,350,cs),
(624,573,o),
(505,709,o),
(335,709,cs),
(164,709,o),
(46,573,o),
(46,350,cs),
(46,127,o),
(164,-9,o),
(335,-9,cs)
);
},
{
closed = 1;
nodes = (
(232,92,o),
(161,179,o),
(161,350,cs),
(161,521,o),
(232,608,o),
(335,608,cs),
(438,608,o),
(509,521,o),
(509,350,cs),
(509,179,o),
(438,92,o),
(335,92,cs)
);
}
);
};
layerId = "4054872B-F70F-4FA7-B657-FACA7DE5D444";
shapes = (
{
closed = 1;
nodes = (
(499,-9,o),
(624,120,o),
(624,350,cs),
(624,580,o),
(499,709,o),
(335,709,cs),
(171,709,o),
(46,580,o),
(46,350,cs),
(46,120,o),
(171,-9,o),
(335,-9,cs)
);
},
{
closed = 1;
nodes = (
(232,93,o),
(161,176,o),
(161,350,cs),
(161,524,o),
(232,607,o),
(335,607,cs),
(438,607,o),
(509,524,o),
(509,350,cs),
(509,176,o),
(438,93,o),
(335,93,cs)
);
}
);
width = 670;
},
{
layerId = "6C677F0D-8978-4FCA-B34D-F7758EC5234D";
shapes = (
{
closed = 1;
nodes = (
(485,-3,o),
(593,136,o),
(593,350,cs),
(593,564,o),
(485,703,o),
(326,703,cs),
(167,703,o),
(59,564,o),
(59,350,cs),
(59,136,o),
(167,-3,o),
(326,-3,cs)
);
},
{
closed = 1;
nodes = (
(179,16,o),
(79,145,o),
(79,350,cs),
(79,555,o),
(179,684,o),
(326,684,cs),
(473,684,o),
(573,555,o),
(573,350,cs),
(573,145,o),
(473,16,o),
(326,16,cs)
);
}
);
width = 652;
}
);
leftKerningGroup = zero;
rightKerningGroup = zero;
unicode = 48;
}
{
color = 3;
glyphname = one;
layers = (
{
layerId = "80A23A3A-6F8A-47FF-B13B-1FE7B70F65E8";
shapes = (
{
closed = 1;
nodes = (
(361,0,l),
(361,700,l),
(5,700,l),
(5,522,l),
(226,522,l),
(125,618,l),
(125,0,l)
);
}
);
width = 418;
},
{
background = {
shapes = (
{
closed = 1;
nodes = (
(275,0,l),
(275,700,l),
(8,700,l),
(8,604,l),
(211,604,l),
(162,655,l),
(162,0,l)
);
}
);
};
layerId = "4054872B-F70F-4FA7-B657-FACA7DE5D444";
shapes = (
{
closed = 1;
nodes = (
(275,0,l),
(275,700,l),
(8,700,l),
(8,601,l),
(211,601,l),
(161,655,l),
(161,0,l)
);
}
);
width = 375;
},
{
layerId = "6C677F0D-8978-4FCA-B34D-F7758EC5234D";
shapes = (
{
closed = 1;
nodes = (
(209,0,l),
(209,700,l),
(10,700,l),
(10,681,l),
(199,681,l),
(190,689,l),
(190,0,l)
);
}
);
width = 342;
}
);
leftKerningGroup = one;
rightKerningGroup = one;
unicode = 49;
}
{
color = 3;
glyphname = two;
layers = (
{
layerId = "80A23A3A-6F8A-47FF-B13B-1FE7B70F65E8";
shapes = (
{
closed = 1;
nodes = (
(589,0,l),
(589,183,l),
(226,183,l),
(263,101,l),
(453,274,ls),
(555,366,o),
(573,428,o),
(573,497,cs),
(573,630,o),
(456,716,o),
(290,716,cs),
(139,716,o),
(38,650,o),
(-13,554,c),
(165,465,l),
(186,507,o),
(226,530,o),
(268,530,cs),
(313,530,o),
(336,509,o),
(336,475,cs),
(336,451,o),
(329,424,o),
(281,379,cs),
(28,145,l),
(28,0,l)
);
}
);
width = 608;
},
{
background = {
shapes = (
{
closed = 1;
nodes = (
(545,0,l),
(545,99,l),
(129,99,l),
(152,55,l),
(401,292,ls),
(496,384,o),
(517,443,o),
(517,511,cs),
(517,633,o),
(419,709,o),
(272,709,cs),
(149,709,o),
(62,661,o),
(10,584,c),
(96,534,l),
(134,584,o),
(190,609,o),
(262,609,cs),
(354,609,o),
(402,567,o),
(402,500,cs),
(402,458,o),
(389,418,o),
(318,350,cs),
(36,78,l),
(36,0,l)
);
}
);
};
layerId = "4054872B-F70F-4FA7-B657-FACA7DE5D444";
shapes = (
{
closed = 1;
nodes = (
(545,0,l),
(545,99,l),
(129,99,l),
(155,55,l),
(401,290,ls),
(497,381,o),
(517,443,o),
(517,511,cs),
(517,633,o),
(421,709,o),
(272,709,cs),
(162,709,o),
(66,669,o),
(11,600,c),
(89,533,l),
(131,584,o),
(190,607,o),
(262,607,cs),
(354,607,o),
(402,567,o),
(402,499,cs),
(402,458,o),
(389,415,o),
(318,347,cs),
(36,78,l),
(36,0,l)
);
}
);
width = 578;
},
{
layerId = "6C677F0D-8978-4FCA-B34D-F7758EC5234D";
shapes = (
{
closed = 1;
nodes = (
(511,0,l),
(511,19,l),
(54,19,l),
(66,11,l),
(360,309,ls),
(451,401,o),
(473,458,o),
(473,524,cs),
(473,635,o),
(390,703,o),
(258,703,cs),
(156,703,o),
(80,671,o),
(28,613,c),
(42,599,l),
(93,656,o),
(162,684,o),
(258,684,cs),
(385,684,o),
(453,621,o),
(453,523,cs),
(453,464,o),
(435,412,o),
(346,322,cs),
(43,15,l),
(43,0,l)
);
}
);
width = 555;
}
);
leftKerningGroup = two;
rightKerningGroup = two;
unicode = 50;
}
{
color = 3;
glyphname = three;
layers = (
{
layerId = "80A23A3A-6F8A-47FF-B13B-1FE7B70F65E8";
shapes = (
{
closed = 1;
nodes = (
(494,-16,o),
(590,104,o),
(590,224,cs),
(590,348,o),
(496,435,o),
(320,435,cs),
(258,435,l),
(371,371,l),
(552,555,l),
(552,700,l),
(30,700,l),
(30,522,l),
(379,522,l),
(358,601,l),
(177,417,l),
(177,272,l),
(270,272,ls),
(330,272,o),
(353,254,o),
(353,224,cs),
(353,188,o),
(315,170,o),
(262,170,cs),
(203,170,o),
(134,186,o),
(74,221,c),
(-6,47,l),
(69,5,o),
(174,-16,o),
(270,-16,cs)
);
}
);
width = 614;
},
{
background = {
shapes = (
{
closed = 1;
nodes = (
(446,-9,o),
(534,90,o),
(534,208,cs),
(534,327,o),
(448,410,o),
(278,410,cs),
(242,410,l),
(293,376,l),
(502,622,l),
(502,700,l),
(36,700,l),
(36,604,l),
(416,604,l),
(405,646,l),
(196,400,l),
(196,321,l),
(256,321,ls),
(369,321,o),
(419,277,o),
(419,208,cs),
(419,135,o),
(362,91,o),
(260,91,cs),
(177,91,o),
(99,120,o),
(50,163,c),
(8,72,l),
(64,22,o),
(163,-9,o),
(264,-9,cs)
);
}
);
};
layerId = "4054872B-F70F-4FA7-B657-FACA7DE5D444";
shapes = (
{
closed = 1;
nodes = (
(446,-9,o),
(534,90,o),
(534,208,cs),
(534,327,o),
(448,412,o),
(278,412,cs),
(242,412,l),
(303,376,l),
(506,622,l),
(506,700,l),
(36,700,l),
(36,601,l),
(416,601,l),
(399,646,l),
(196,400,l),
(196,319,l),
(256,319,ls),
(369,319,o),
(419,275,o),
(419,207,cs),
(419,137,o),
(361,93,o),
(262,93,cs),
(180,93,o),
(103,122,o),
(54,165,c),
(2,74,l),
(65,22,o),
(164,-9,o),
(263,-9,cs)
);
}
);
width = 577;
},
{
layerId = "6C677F0D-8978-4FCA-B34D-F7758EC5234D";
shapes = (
{
closed = 1;
nodes = (
(409,-3,o),
(490,76,o),
(490,192,cs),
(490,308,o),
(410,387,o),
(245,387,cs),
(230,387,l),
(232,380,l),
(464,685,l),
(464,700,l),
(41,700,l),
(41,681,l),
(444,681,l),
(442,688,l),
(210,383,l),
(210,368,l),
(246,368,ls),
(399,368,o),
(470,299,o),
(470,192,cs),
(470,85,o),
(398,16,o),
(259,16,cs),
(156,16,o),
(71,57,o),
(32,109,c),
(19,96,l),
(61,38,o),
(154,-3,o),
(259,-3,cs)
);
}
);
width = 548;
}
);
leftKerningGroup = three;
rightKerningGroup = three;
unicode = 51;
}
{
color = 3;
glyphname = four;
layers = (
{
guides = (
{
angle = 90;
position = "{375, 0}";
}
);
layerId = "80A23A3A-6F8A-47FF-B13B-1FE7B70F65E8";
shapes = (
{
closed = 1;
nodes = (
(708,120,l),
(708,303,l),
(166,303,l),
(276,270,l),
(562,700,l),
(320,700,l),
(23,270,l),
(23,120,l)
);
},
{
closed = 1;
nodes = (
(615,0,l),
(615,410,l),
(393,410,l),
(393,303,l),
(386,120,l),
(386,0,l)
);
}
);
width = 712;
},
{
background = {
shapes = (
{
closed = 1;
nodes = (
(662,165,l),
(662,264,l),
(105,264,l),
(160,246,l),
(507,700,l),
(388,700,l),
(36,246,l),
(36,165,l)
);
},
{
closed = 1;
nodes = (
(534,0,l),
(534,410,l),
(426,410,l),
(426,264,l),
(423,165,l),
(423,0,l)
);
}
);
};
layerId = "4054872B-F70F-4FA7-B657-FACA7DE5D444";
shapes = (
{
closed = 1;
nodes = (
(662,165,l),
(662,264,l),
(105,264,l),
(164,246,l),
(511,700,l),
(388,700,l),
(36,246,l),
(36,165,l)
);
},
{
closed = 1;
nodes = (
(534,0,l),
(534,410,l),
(426,410,l),
(426,264,l),
(423,165,l),
(423,0,l)
);
}
);
width = 674;
},
{
guides = (
{
angle = 90;
position = "{437, 0}";
}
);
layerId = "6C677F0D-8978-4FCA-B34D-F7758EC5234D";
shapes = (
{
closed = 1;
nodes = (
(627,208,l),
(627,227,l),
(57,227,l),
(70,223,l),
(464,700,l),
(440,700,l),
(46,223,l),
(46,208,l)
);
},
{
closed = 1;
nodes = (
(471,0,l),
(471,410,l),
(451,410,l),
(451,227,l),
(451,208,l),
(451,0,l)
);
}
);
width = 644;
}
);
leftKerningGroup = four;
rightKerningGroup = four;
unicode = 52;
}
{
color = 3;
glyphname = five;
layers = (
{
guides = (
{
angle = 84.865;
position = "{287, 483}";
}
);
layerId = "80A23A3A-6F8A-47FF-B13B-1FE7B70F65E8";
shapes = (
{
closed = 1;
nodes = (
(505,-16,o),
(601,105,o),
(601,230,cs),
(601,354,o),
(522,453,o),
(315,453,cs),
(152,453,l),
(271,352,l),
(292,623,l),
(173,522,l),
(555,522,l),
(555,700,l),
(90,700,l),
(55,275,l),
(258,275,ls),
(343,275,o),
(364,255,o),
(364,225,cs),
(364,189,o),
(325,170,o),
(272,170,cs),
(213,170,o),
(145,186,o),
(85,221,c),
(5,47,l),
(80,5,o),
(185,-16,o),
(281,-16,cs)
);
}
);
width = 619;
},
{
background = {
shapes = (
{
closed = 1;
nodes = (
(460,-9,o),
(546,94,o),
(546,213,cs),
(546,337,o),
(469,424,o),
(257,424,cs),
(117,424,l),
(172,370,l),
(201,657,l),
(145,604,l),
(506,604,l),
(506,700,l),
(103,700,l),
(67,328,l),
(230,328,ls),
(384,328,o),
(431,283,o),
(431,210,cs),
(431,139,o),
(375,91,o),
(271,91,cs),
(188,91,o),
(111,120,o),
(62,163,c),
(20,72,l),
(77,22,o),
(175,-9,o),
(275,-9,cs)
);
},
{
closed = 1;
nodes = (
(-442,-9,o),
(-354,90,o),
(-354,208,cs),
(-354,327,o),
(-440,412,o),
(-610,412,cs),
(-646,412,l),
(-585,376,l),
(-382,622,l),
(-382,700,l),
(-852,700,l),
(-852,601,l),
(-472,601,l),
(-489,646,l),
(-692,400,l),
(-692,319,l),
(-632,319,ls),
(-519,319,o),
(-469,275,o),
(-469,207,cs),
(-469,137,o),
(-527,93,o),
(-626,93,cs),
(-708,93,o),
(-785,122,o),
(-834,165,c),
(-886,74,l),
(-823,22,o),
(-724,-9,o),
(-625,-9,cs)
);
}
);
};
layerId = "4054872B-F70F-4FA7-B657-FACA7DE5D444";
shapes = (
{
closed = 1;
nodes = (
(458,-9,o),
(546,90,o),
(546,213,cs),
(546,337,o),
(462,426,o),
(255,426,cs),
(117,426,l),
(178,370,l),
(206,657,l),
(145,601,l),
(506,601,l),
(506,700,l),
(103,700,l),
(67,326,l),
(230,326,ls),
(384,326,o),
(431,280,o),
(431,208,cs),
(431,137,o),
(373,93,o),
(274,93,cs),
(192,93,o),
(115,122,o),
(66,165,c),
(14,74,l),
(77,22,o),
(176,-9,o),
(275,-9,cs)
);
}
);
width = 579;
},
{
layerId = "6C677F0D-8978-4FCA-B34D-F7758EC5234D";
shapes = (
{
closed = 1;
nodes = (
(425,-3,o),
(503,83,o),
(503,196,cs),
(503,320,o),
(427,397,o),
(212,397,cs),
(90,397,l),
(96,387,l),
(131,689,l),
(124,681,l),
(468,681,l),
(468,700,l),
(113,700,l),
(76,378,l),
(208,378,ls),
(416,378,o),
(483,310,o),
(483,196,cs),
(483,92,o),
(414,16,o),
(270,16,cs),
(169,16,o),
(84,57,o),
(45,109,c),
(32,96,l),
(74,38,o),
(167,-3,o),
(270,-3,cs)
);
}
);
width = 548;
}
);
leftKerningGroup = five;
rightKerningGroup = five;
unicode = 53;
}
{
color = 3;
glyphname = seven;
layers = (
{
layerId = "80A23A3A-6F8A-47FF-B13B-1FE7B70F65E8";
shapes = (
{
closed = 1;
nodes = (
(387,0,l),
(620,555,l),
(620,700,l),
(21,700,l),
(21,415,l),
(216,415,l),
(216,624,l),
(124,517,l),
(456,517,l),
(393,616,l),
(129,0,l)
);
}
);
width = 645;
},
{
background = {
shapes = (
{
closed = 1;
nodes = (
(287,0,l),
(565,622,l),
(565,700,l),
(29,700,l),
(29,479,l),
(126,479,l),
(126,657,l),
(81,601,l),
(488,601,l),
(454,653,l),
(161,0,l)
);
}
);
};
layerId = "4054872B-F70F-4FA7-B657-FACA7DE5D444";
shapes = (
{
closed = 1;
nodes = (
(287,0,l),
(565,622,l),
(565,700,l),
(29,700,l),
(29,479,l),
(139,479,l),
(139,657,l),
(81,601,l),
(488,601,l),
(459,653,l),
(166,0,l)
);
}
);
width = 603;
},
{
layerId = "6C677F0D-8978-4FCA-B34D-F7758EC5234D";
shapes = (
{
closed = 1;
nodes = (
(209,0,l),
(522,685,l),
(522,700,l),
(36,700,l),
(36,540,l),
(56,540,l),
(56,689,l),
(47,681,l),
(513,681,l),
(501,688,l),
(186,0,l)
);
}
);
width = 570;
}
);
leftKerningGroup = seven;
rightKerningGroup = seven;
unicode = 55;
}
{
color = 3;
glyphname = nine;
layers = (
{
layerId = "80A23A3A-6F8A-47FF-B13B-1FE7B70F65E8";
shapes = (
{
closed = 1;
nodes = (
(138,716,o),
(12,621,o),
(12,471,cs),
(12,334,o),
(124,247,o),
(252,247,cs),
(350,247,o),
(410,285,o),
(449,353,c),
(395,392,l),
(395,372,o),
(395,353,o),
(395,333,cs),
(395,225,o),
(334,167,o),
(239,167,cs),
(195,167,o),
(153,175,o),
(112,204,c),
(27,39,l),
(80,4,o),
(161,-16,o),
(244,-16,cs),
(475,-16,o),
(632,127,o),
(632,372,cs),
(632,601,o),
(496,716,o),
(296,716,cs)
);
},
{
closed = 1;
nodes = (
(354,553,o),
(384,526,o),
(384,482,cs),
(384,438,o),
(354,410,o),
(312,410,cs),
(270,410,o),
(240,438,o),
(240,482,cs),
(240,526,o),
(270,553,o),
(312,553,cs)
);
}
);
width = 661;
},
{
background = {
shapes = (
{
closed = 1;
nodes = (
(133,709,o),
(26,622,o),
(26,485,cs),
(26,355,o),
(126,271,o),
(260,271,cs),
(376,271,o),
(460,330,o),
(479,431,c),
(451,442,l),
(460,406,o),
(461,368,o),
(461,341,cs),
(461,175,o),
(373,89,o),
(237,89,cs),
(187,89,o),
(141,98,o),
(103,123,c),
(60,34,l),
(106,5,o),
(171,-9,o),
(239,-9,cs),
(440,-9,o),
(576,121,o),
(576,361,cs),
(576,584,o),
(466,709,o),
(276,709,cs)
);
},
{
closed = 1;
nodes = (
(384,620,o),
(439,558,o),
(439,491,cs),
(439,416,o),
(377,360,o),
(287,360,cs),
(195,360,o),
(137,411,o),
(137,490,cs),
(137,569,o),
(197,620,o),
(283,620,cs)
);
}
);
};
layerId = "4054872B-F70F-4FA7-B657-FACA7DE5D444";
shapes = (
{
closed = 1;
nodes = (
(137,709,o),
(26,622,o),
(26,485,cs),
(26,355,o),
(128,271,o),
(267,271,cs),
(370,271,o),
(456,314,o),
(489,398,c),
(451,442,l),
(460,406,o),
(461,368,o),
(461,341,cs),
(461,174,o),
(374,89,o),
(237,89,cs),
(187,89,o),
(140,98,o),
(103,123,c),
(60,34,l),
(106,5,o),
(171,-9,o),
(239,-9,cs),
(438,-9,o),
(576,121,o),
(576,361,cs),
(576,585,o),
(467,709,o),
(278,709,cs)
);
},
{
closed = 1;
nodes = (
(384,616,o),
(439,560,o),
(439,491,cs),
(439,418,o),
(377,364,o),
(287,364,cs),
(195,364,o),
(137,413,o),
(137,490,cs),
(137,567,o),
(197,616,o),
(283,616,cs)
);
}
);
width = 622;
},
{
layerId = "6C677F0D-8978-4FCA-B34D-F7758EC5234D";
shapes = (
{
closed = 1;
nodes = (
(130,703,o),
(37,622,o),
(37,498,cs),
(37,374,o),
(127,294,o),
(267,294,cs),
(396,294,o),
(498,373,o),
(502,505,c),
(494,490,l),
(510,439,o),
(513,382,o),
(513,348,cs),
(513,127,o),
(403,16,o),
(235,16,cs),
(181,16,o),
(131,25,o),
(96,47,c),
(86,30,l),
(127,5,o),
(179,-3,o),
(235,-3,cs),
(413,-3,o),
(533,115,o),
(533,350,cs),
(533,567,o),
(442,703,o),
(260,703,cs)
);
},
{
closed = 1;
nodes = (
(407,684,o),
(482,588,o),
(482,500,cs),
(482,396,o),
(395,313,o),
(267,313,cs),
(137,313,o),
(57,386,o),
(57,498,cs),
(57,610,o),
(140,684,o),
(260,684,cs)
);
}
);
width = 592;
}
);
leftKerningGroup = nine;
rightKerningGroup = zero;
unicode = 57;
}
{
glyphname = less;
layers = (
{
layerId = "80A23A3A-6F8A-47FF-B13B-1FE7B70F65E8";
shapes = (
{
closed = 1;
nodes = (
(565,246,l),
(119,399,l),
(119,301,l),
(565,454,l),
(565,624,l),
(55,439,l),
(55,261,l),
(565,76,l)
);
}
);
width = 620;
},
{
background = {
shapes = (
{
closed = 1;
nodes = (
(520,217,l),
(102,376,l),
(102,324,l),
(520,483,l),
(520,577,l),
(66,399,l),
(66,301,l),
(520,123,l)
);
}
);
};
layerId = "4054872B-F70F-4FA7-B657-FACA7DE5D444";
shapes = (
{
closed = 1;
nodes = (
(520,217,l),
(102,376,l),
(102,324,l),
(520,483,l),
(520,577,l),
(66,399,l),
(66,301,l),
(520,123,l)
);
}
);
width = 586;
},
{
layerId = "6C677F0D-8978-4FCA-B34D-F7758EC5234D";
shapes = (
{
closed = 1;
nodes = (
(485,190,l),
(88,354,l),
(88,346,l),
(485,510,l),
(485,532,l),
(75,361,l),
(75,339,l),
(485,168,l)
);
}
);
width = 560;
}
);
leftKerningGroup = less;
rightKerningGroup = less;
unicode = 60;
}
{
glyphname = greater;
layers = (
{
layerId = "80A23A3A-6F8A-47FF-B13B-1FE7B70F65E8";
shapes = (
{
closed = 1;
nodes = (
(565,261,l),
(565,439,l),
(55,624,l),
(55,454,l),
(501,301,l),
(501,399,l),
(55,246,l),
(55,76,l)
);
}
);
width = 620;
},
{
background = {
shapes = (
{
closed = 1;
nodes = (
(520,301,l),
(520,399,l),
(66,577,l),
(66,483,l),
(485,324,l),
(485,376,l),
(66,217,l),
(66,123,l)
);
}
);
};
layerId = "4054872B-F70F-4FA7-B657-FACA7DE5D444";
shapes = (
{
closed = 1;
nodes = (
(520,301,l),
(520,399,l),
(66,577,l),
(66,483,l),
(485,324,l),
(485,376,l),
(66,217,l),
(66,123,l)
);
}
);
width = 586;
},
{
layerId = "6C677F0D-8978-4FCA-B34D-F7758EC5234D";
shapes = (
{
closed = 1;
nodes = (
(485,339,l),
(485,361,l),
(75,532,l),
(75,510,l),
(472,346,l),
(472,354,l),
(75,190,l),
(75,168,l)
);
}
);
width = 560;
}
);
leftKerningGroup = greater;
rightKerningGroup = greater;
unicode = 62;
}
{
color = 3;
glyphname = question;
layers = (
{
layerId = "80A23A3A-6F8A-47FF-B13B-1FE7B70F65E8";
shapes = (
{
closed = 1;
nodes = (
(413,268,l),
(413,345,o),
(573,372,o),
(573,525,cs),
(573,650,o),
(456,716,o),
(299,716,cs),
(139,716,o),
(38,650,o),
(-13,554,c),
(165,465,l),
(186,507,o),
(226,533,o),
(269,533,cs),
(306,533,o),
(336,517,o),
(336,486,cs),
(336,425,o),
(207,389,o),
(207,268,c)
);
},
{
closed = 1;
nodes = (
(388,-10,o),
(442,44,o),
(442,110,cs),
(442,177,o),
(388,228,o),
(310,228,cs),
(232,228,o),
(178,177,o),
(178,110,cs),
(178,44,o),
(232,-10,o),
(310,-10,cs)
);
}
);
width = 606;
},
{
background = {
shapes = (
{
closed = 1;
nodes = (
(332,227,l),
(332,351,o),
(512,364,o),
(512,531,cs),
(512,642,o),
(414,709,o),
(271,709,cs),
(144,709,o),
(57,661,o),
(6,584,c),
(91,534,l),
(129,584,o),
(185,611,o),
(258,611,cs),
(346,611,o),
(397,571,o),
(397,511,cs),
(397,396,o),
(231,379,o),
(231,227,c)
);
},
{
closed = 1;
nodes = (
(324,-6,o),
(354,26,o),
(354,65,cs),
(354,105,o),
(324,136,o),
(282,136,cs),
(240,136,o),
(210,105,o),
(210,65,cs),
(210,26,o),
(240,-6,o),
(282,-6,cs)
);
}
);
};
layerId = "4054872B-F70F-4FA7-B657-FACA7DE5D444";
shapes = (
{
closed = 1;
nodes = (
(339,227,l),
(339,351,o),
(512,364,o),
(512,529,cs),
(512,642,o),
(417,709,o),
(271,709,cs),
(152,709,o),
(63,666,o),
(7,593,c),
(91,534,l),
(129,584,o),
(185,612,o),
(263,612,cs),
(346,612,o),
(397,571,o),
(397,511,cs),
(397,406,o),
(224,379,o),
(224,227,c)
);
},
{
closed = 1;
nodes = (
(324,-6,o),
(354,26,o),
(354,65,cs),
(354,105,o),
(324,136,o),
(282,136,cs),
(240,136,o),
(210,105,o),
(210,65,cs),
(210,26,o),
(240,-6,o),
(282,-6,cs)
);
}
);
width = 577;
},
{
layerId = "6C677F0D-8978-4FCA-B34D-F7758EC5234D";
shapes = (
{
closed = 1;
nodes = (
(270,188,l),
(270,356,o),
(465,357,o),
(465,536,cs),
(465,635,o),
(382,703,o),
(250,703,cs),
(148,703,o),
(72,671,o),
(20,613,c),
(34,599,l),
(85,656,o),
(154,684,o),
(250,684,cs),
(377,684,o),
(445,621,o),
(445,535,cs),
(445,368,o),
(250,370,o),
(250,188,c)
);
},
{
closed = 1;
nodes = (
(274,-3,o),
(286,9,o),
(286,23,cs),
(286,37,o),
(274,49,o),
(260,49,cs),
(246,49,o),
(234,37,o),
(234,23,cs),
(234,9,o),
(246,-3,o),
(260,-3,cs)
);
}
);
width = 554;
}
);
leftKerningGroup = question;
rightKerningGroup = question;
unicode = 63;
}
{
glyphname = A;
layers = (
{
anchors = (
{
name = bottom;
position = "{403, 0}";
},
{
name = ogonek;
position = "{825, 0}";
},
{
name = top;
position = "{403, 700}";
},
{
name = topleft;
position = "{121, 701}";
}
);
guides = (
{
angle = 245.556;
position = "{234, 56}";
}
);
layerId = "80A23A3A-6F8A-47FF-B13B-1FE7B70F65E8";
shapes = (
{
closed = 1;
nodes = (
(221,0,l),
(447,588,l),
(355,588,l),
(581,0,l),
(825,0,l),
(519,700,l),
(287,700,l),
(-19,0,l)
);
}
);
width = 806;
},
{
anchors = (
{
name = bottom;
position = "{370, 0}";
},
{
name = ogonek;
position = "{743, 0}";
},
{
name = top;
position = "{370, 700}";
},
{
name = topleft;
position = "{113, 700}";
}
);
background = {
shapes = (
{
closed = 1;
nodes = (
(115,0,l),
(392,637,l),
(346,637,l),
(623,0,l),
(743,0,l),
(426,700,l),
(313,700,l),
(-3,0,l)
);
},
{
closed = 1;
nodes = (
(586,168,l),
(554,260,l),
(168,260,l),
(137,168,l)
);
}
);
};
layerId = "4054872B-F70F-4FA7-B657-FACA7DE5D444";
shapes = (
{
closed = 1;
nodes = (
(115,0,l),
(392,637,l),
(346,637,l),
(623,0,l),
(743,0,l),
(426,700,l),
(313,700,l),
(-3,0,l)
);
}
);
width = 740;
},
{
anchors = (
{
name = bottom;
position = "{344, 0}";
},
{
name = ogonek;
position = "{679, 0}";
},
{
name = top;
position = "{344, 700}";
},
{
name = topleft;
position = "{106, 700}";
}
);
layerId = "6C677F0D-8978-4FCA-B34D-F7758EC5234D";
shapes = (
{
closed = 1;
nodes = (
(32,0,l),
(349,684,l),
(339,684,l),
(656,0,l),
(679,0,l),
(354,700,l),
(334,700,l),
(9,0,l)
);
}
);
width = 688;
}
);
leftKerningGroup = A;
rightKerningGroup = A;
unicode = 65;
}
{
color = 3;
glyphname = D;
layers = (
{
anchors = (
{
name = bottom;
position = "{361, 0}";
},
{
name = center;
position = "{206, 355}";
},
{
name = top;
position = "{359, 700}";
}
);
layerId = "80A23A3A-6F8A-47FF-B13B-1FE7B70F65E8";
shapes = (
{
closed = 1;
nodes = (
(293,350,l),
(293,184,l),
(392,184,ls),
(491,184,o),
(559,243,o),
(559,350,cs),
(559,457,o),
(491,516,o),
(392,516,cs),
(57,516,l),
(57,700,l),
(402,700,ls),
(636,700,o),
(797,567,o),
(797,350,cs),
(797,133,o),
(636,0,o),
(402,0,cs),
(57,0,l),
(57,350,l)
);
}
);
width = 826;
},
{
anchors = (
{
name = bottom;
position = "{381, 0}";
},
{
name = center;
position = "{203, 356}";
},
{
name = top;
position = "{377, 699}";
}
);
background = {
shapes = (
{
closed = 1;
nodes = (
(400,0,ls),
(626,0,o),
(780,141,o),
(780,350,cs),
(780,559,o),
(626,700,o),
(400,700,cs),
(100,700,l),
(100,0,l)
);
},
{
closed = 1;
nodes = (
(214,601,l),
(394,601,ls),
(558,601,o),
(665,500,o),
(665,350,cs),
(665,200,o),
(558,99,o),
(394,99,cs),
(214,99,l)
);
}
);
};
layerId = "4054872B-F70F-4FA7-B657-FACA7DE5D444";
shapes = (
{
closed = 1;
nodes = (
(100,700,l),
(400,700,ls),
(626,700,o),
(780,559,o),
(780,350,cs),
(780,141,o),
(626,0,o),
(400,0,cs),
(100,0,l),
(100,350,l),
(214,350,l),
(214,99,l),
(394,99,ls),
(559,99,o),
(665,199,o),
(665,350,cs),
(665,501,o),
(559,601,o),
(394,601,cs),
(100,601,l)
);
}
);
width = 826;
},
{
anchors = (
{
name = bottom;
position = "{396, 0}";
},
{
name = center;
position = "{200, 356}";
},
{
name = top;
position = "{391, 699}";
}
);
layerId = "6C677F0D-8978-4FCA-B34D-F7758EC5234D";
shapes = (
{
closed = 1;
nodes = (
(153,350,l),
(153,19,l),
(396,19,ls),
(610,19,o),
(747,159,o),
(747,350,cs),
(747,541,o),
(610,681,o),
(396,681,cs),
(133,681,l),
(133,700,l),
(398,700,ls),
(619,700,o),
(767,552,o),
(767,350,cs),
(767,148,o),
(619,0,o),
(398,0,cs),
(133,0,l),
(133,350,l)
);
}
);
width = 826;
}
);
leftKerningGroup = H;
rightKerningGroup = O;
unicode = 68;
}
{
color = 3;
glyphname = E;
layers = (
{
anchors = (
{
name = bottom;
position = "{342, 0}";
},
{
name = ogonek;
position = "{639, 0}";
},
{
name = top;
position = "{342, 700}";
},
{
name = topleft;
position = "{-9, 700}";
}
);
layerId = "80A23A3A-6F8A-47FF-B13B-1FE7B70F65E8";
shapes = (
{
closed = 1;
nodes = (
(57,270,l),
(626,270,l),
(626,440,l),
(57,440,l)
);
},
{
closed = 1;
nodes = (
(57,522,l),
(626,522,l),
(626,700,l),
(57,700,l)
);
},
{
closed = 1;
nodes = (
(57,178,l),
(626,178,l),
(626,0,l),
(57,0,l)
);
}
);
width = 673;
},
{
anchors = (
{
name = bottom;
position = "{361, 0}";
},
{
name = ogonek;
position = "{616, 0}";
},
{
name = top;
position = "{352, 700}";
},
{
name = topleft;
position = "{19, 700}";
}
);
background = {
shapes = (
{
closed = 1;
nodes = (
(203,309,l),
(559,309,l),
(559,401,l),
(203,401,l)
);
},
{
closed = 1;
nodes = (
(212,604,l),
(602,604,l),
(602,700,l),
(100,700,l),
(100,0,l),
(616,0,l),
(616,96,l),
(212,96,l)
);
}
);
};
layerId = "4054872B-F70F-4FA7-B657-FACA7DE5D444";
shapes = (
{
closed = 1;
nodes = (
(100,307,l),
(602,307,l),
(602,404,l),
(100,404,l)
);
},
{
closed = 1;
nodes = (
(100,601,l),
(602,601,l),
(602,700,l),
(100,700,l)
);
},
{
closed = 1;
nodes = (
(100,99,l),
(602,99,l),
(602,0,l),
(100,0,l)
);
}
);
width = 670;
},
{
anchors = (
{
name = bottom;
position = "{376, 0}";
},
{
name = ogonek;
position = "{599, 0}";
},
{
name = top;
position = "{359, 700}";
},
{
name = topleft;
position = "{41, 700}";
}
);
layerId = "6C677F0D-8978-4FCA-B34D-F7758EC5234D";
shapes = (
{
closed = 1;
nodes = (
(133,0,l),
(584,0,l),
(584,19,l),
(133,19,l)
);
},
{
closed = 1;
nodes = (
(133,365,l),
(584,365,l),
(584,346,l),
(133,346,l)
);
},
{
closed = 1;
nodes = (
(133,719,l),
(584,719,l),
(584,700,l),
(133,700,l)
);
}
);
width = 668;
}
);
leftKerningGroup = H;
rightKerningGroup = E;
unicode = 69;
}
{
color = 3;
glyphname = F;
layers = (
{
layerId = "80A23A3A-6F8A-47FF-B13B-1FE7B70F65E8";
shapes = (
{
closed = 1;
nodes = (
(277,224,l),
(585,224,l),
(585,402,l),
(277,402,l)
);
},
{
closed = 1;
nodes = (
(57,700,l),
(57,522,l),
(626,522,l),
(626,700,l)
);
},
{
closed = 1;
nodes = (
(57,402,l),
(57,0,l),
(293,0,l),
(293,402,l)
);
}
);
width = 644;
},
{
background = {
shapes = (
{
closed = 1;
nodes = (
(204,276,l),
(559,276,l),
(559,373,l),
(204,373,l)
);
},
{
closed = 1;
nodes = (
(214,604,l),
(602,604,l),
(602,700,l),
(100,700,l),
(100,0,l),
(214,0,l)
);
}
);
};
layerId = "4054872B-F70F-4FA7-B657-FACA7DE5D444";
shapes = (
{
closed = 1;
nodes = (
(204,275,l),
(559,275,l),
(559,374,l),
(204,374,l)
);
},
{
closed = 1;
nodes = (
(100,374,l),
(100,0,l),
(214,0,l),
(214,374,l)
);
},
{
closed = 1;
nodes = (
(100,700,l),
(100,601,l),
(602,601,l),
(602,700,l)
);
}
);
width = 636;
},
{
layerId = "6C677F0D-8978-4FCA-B34D-F7758EC5234D";
shapes = (
{
closed = 1;
nodes = (
(148,326,l),
(539,326,l),
(539,345,l),
(148,345,l)
);
},
{
closed = 1;
nodes = (
(133,345,l),
(133,0,l),
(153,0,l),
(153,345,l)
);
},
{
closed = 1;
nodes = (
(133,700,l),
(133,681,l),
(584,681,l),
(584,700,l)
);
}
);
width = 629;
}
);
leftKerningGroup = H;
rightKerningGroup = F;
unicode = 70;
}
{
color = 3;
glyphname = H;
layers = (
{
anchors = (
{
name = bottom;
position = "{402, 0}";
},
{
name = center;
position = "{402, 576}";
},
{
name = top;
position = "{402, 700}";
}
);
layerId = "80A23A3A-6F8A-47FF-B13B-1FE7B70F65E8";
shapes = (
{
closed = 1;
nodes = (
(511,0,l),
(747,0,l),
(747,700,l),
(511,700,l)
);
},
{
closed = 1;
nodes = (
(293,700,l),
(57,700,l),
(57,0,l),
(293,0,l)
);
},
{
closed = 1;
nodes = (
(527,452,l),
(277,452,l),
(277,258,l),
(527,258,l)
);
}
);
width = 804;
},
{
anchors = (
{
name = bottom;
position = "{405, 0}";
},
{
name = center;
position = "{405, 556}";
},
{
name = top;
position = "{405, 700}";
}
);
background = {
shapes = (
{
closed = 1;
nodes = (
(597,0,l),
(711,0,l),
(711,700,l),
(597,700,l)
);
},
{
closed = 1;
nodes = (
(214,700,l),
(100,700,l),
(100,0,l),
(214,0,l)
);
},
{
closed = 1;
nodes = (
(606,407,l),
(204,407,l),
(204,303,l),
(606,303,l)
);
}
);
};
layerId = "4054872B-F70F-4FA7-B657-FACA7DE5D444";
shapes = (
{
closed = 1;
nodes = (
(597,0,l),
(711,0,l),
(711,700,l),
(597,700,l)
);
},
{
closed = 1;
nodes = (
(214,700,l),
(100,700,l),
(100,0,l),
(214,0,l)
);
},
{
closed = 1;
nodes = (
(606,405,l),
(204,405,l),
(204,306,l),
(606,306,l)
);
}
);
width = 811;
},
{
anchors = (
{
name = bottom;
position = "{408, 0}";
},
{
name = center;
position = "{408, 538}";
},
{
name = top;
position = "{408, 700}";
}
);
layerId = "6C677F0D-8978-4FCA-B34D-F7758EC5234D";
shapes = (
{
closed = 1;
nodes = (
(663,0,l),
(683,0,l),
(683,700,l),
(663,700,l)
);
},
{
closed = 1;
nodes = (
(153,700,l),
(133,700,l),
(133,0,l),
(153,0,l)
);
},
{
closed = 1;
nodes = (
(668,365,l),
(148,365,l),
(148,346,l),
(668,346,l)
);
}
);
width = 816;
}
);
leftKerningGroup = H;
rightKerningGroup = H;
unicode = 72;
}
{
glyphname = I;
layers = (
{
anchors = (
{
name = bottom;
position = "{175, 0}";
},
{
name = ogonek;
position = "{293, 0}";
},
{
name = top;
position = "{175, 700}";
},
{
name = topleft;
position = "{-9, 700}";
}
);
layerId = "80A23A3A-6F8A-47FF-B13B-1FE7B70F65E8";
shapes = (
{
closed = 1;
nodes = (
(293,0,l),
(293,700,l),
(57,700,l),
(57,0,l)
);
}
);
width = 350;
},
{
anchors = (
{
name = bottom;
position = "{157, 0}";
},
{
name = ogonek;
position = "{214, 0}";
},
{
name = top;
position = "{157, 700}";
},
{
name = topleft;
position = "{19, 699}";
}
);
background = {
shapes = (
{
closed = 1;
nodes = (
(214,0,l),
(214,700,l),
(100,700,l),
(100,0,l)
);
}
);
};
layerId = "4054872B-F70F-4FA7-B657-FACA7DE5D444";
shapes = (
{
closed = 1;
nodes = (
(214,0,l),
(214,700,l),
(100,700,l),
(100,0,l)
);
}
);
width = 314;
},
{
anchors = (
{
name = bottom;
position = "{143, 0}";
},
{
name = ogonek;
position = "{153, 0}";
},
{
name = top;
position = "{143, 700}";
},
{
name = topleft;
position = "{41, 699}";
}
);
layerId = "6C677F0D-8978-4FCA-B34D-F7758EC5234D";
shapes = (
{
closed = 1;
nodes = (
(153,0,l),
(153,700,l),
(133,700,l),
(133,0,l)
);
}
);
width = 286;
}
);
leftKerningGroup = H;
rightKerningGroup = H;
unicode = 73;
}
{
color = 3;
glyphname = J;
layers = (
{
anchors = (
{
name = top;
position = "{288, 700}";
}
);
layerId = "80A23A3A-6F8A-47FF-B13B-1FE7B70F65E8";
shapes = (
{
closed = 1;
nodes = (
(422,-16,o),
(523,78,o),
(523,270,cs),
(523,700,l),
(52,700,l),
(52,522,l),
(290,522,l),
(290,256,ls),
(290,199,o),
(263,169,o),
(214,169,cs),
(175,169,o),
(140,192,o),
(103,238,c),
(-24,88,l),
(34,20,o),
(125,-16,o),
(234,-16,cs)
);
}
);
width = 574;
},
{
anchors = (
{
name = top;
position = "{244, 700}";
}
);
background = {
shapes = (
{
closed = 1;
nodes = (
(349,-9,o),
(426,70,o),
(426,231,cs),
(426,700,l),
(61,700,l),
(61,604,l),
(313,604,l),
(313,225,ls),
(313,135,o),
(273,90,o),
(194,90,cs),
(140,90,o),
(93,118,o),
(55,171,c),
(-8,92,l),
(38,27,o),
(115,-9,o),
(202,-9,cs)
);
}
);
};
layerId = "4054872B-F70F-4FA7-B657-FACA7DE5D444";
shapes = (
{
closed = 1;
nodes = (
(347,-9,o),
(426,70,o),
(426,231,cs),
(426,700,l),
(61,700,l),
(61,601,l),
(312,601,l),
(312,225,ls),
(312,135,o),
(273,90,o),
(198,90,cs),
(140,90,o),
(93,118,o),
(55,171,c),
(-11,92,l),
(35,27,o),
(113,-9,o),
(198,-9,cs)
);
}
);
width = 520;
},
{
anchors = (
{
name = top;
position = "{209, 700}";
}
);
layerId = "6C677F0D-8978-4FCA-B34D-F7758EC5234D";
shapes = (
{
closed = 1;
nodes = (
(292,-3,o),
(350,63,o),
(350,194,cs),
(350,700,l),
(68,700,l),
(68,681,l),
(330,681,l),
(330,196,ls),
(330,74,o),
(281,16,o),
(179,16,cs),
(113,16,o),
(56,49,o),
(18,108,c),
(4,96,l),
(41,34,o),
(107,-3,o),
(178,-3,cs)
);
}
);
width = 477;
}
);
leftKerningGroup = J;
rightKerningGroup = U;
unicode = 74;
}
{
color = 3;
glyphname = K;
layers = (
{
anchors = (
{
name = bottom;
position = "{384, 0}";
},
{
name = top;
position = "{384, 700}";
}
);
guides = (
{
angle = 48.492;
position = "{625, 544}";
}
);
layerId = "80A23A3A-6F8A-47FF-B13B-1FE7B70F65E8";
shapes = (
{
closed = 1;
nodes = (
(349,240,l),
(480,374,l),
(776,700,l),
(519,700,l),
(255,409,l),
(268,150,l)
);
},
{
closed = 1;
nodes = (
(289,0,l),
(289,700,l),
(57,700,l),
(57,0,l)
);
},
{
closed = 1;
nodes = (
(790,0,l),
(464,434,l),
(311,272,l),
(517,0,l)
);
}
);
width = 765;
},
{
anchors = (
{
name = bottom;
position = "{376, 0}";
},
{
name = top;
position = "{376, 700}";
}
);
background = {
shapes = (
{
closed = 1;
nodes = (
(337,305,l),
(401,376,l),
(707,700,l),
(580,700,l),
(195,306,l),
(201,166,l)
);
},
{
closed = 1;
nodes = (
(212,0,l),
(212,700,l),
(100,700,l),
(100,0,l)
);
},
{
closed = 1;
nodes = (
(726,0,l),
(390,411,l),
(314,326,l),
(592,0,l)
);
}
);
};
layerId = "4054872B-F70F-4FA7-B657-FACA7DE5D444";
shapes = (
{
closed = 1;
nodes = (
(337,305,l),
(401,376,l),
(707,700,l),
(577,700,l),
(195,306,l),
(201,167,l)
);
},
{
closed = 1;
nodes = (
(214,0,l),
(214,700,l),
(100,700,l),
(100,0,l)
);
},
{
closed = 1;
nodes = (
(726,0,l),
(390,411,l),
(314,326,l),
(592,0,l)
);
}
);
width = 724;
},
{
anchors = (
{
name = bottom;
position = "{370, 0}";
},
{
name = top;
position = "{370, 700}";
}
);
layerId = "6C677F0D-8978-4FCA-B34D-F7758EC5234D";
shapes = (
{
closed = 1;
nodes = (
(328,366,l),
(340,377,l),
(654,700,l),
(627,700,l),
(149,209,l),
(149,182,l)
);
},
{
closed = 1;
nodes = (
(153,0,l),
(153,700,l),
(133,700,l),
(133,0,l)
);
},
{
closed = 1;
nodes = (
(677,0,l),
(332,390,l),
(317,377,l),
(650,0,l)
);
}
);
width = 693;
}
);
leftKerningGroup = H;
rightKerningGroup = K;
unicode = 75;
}
{
glyphname = L;
layers = (
{
anchors = (
{
name = bottom;
position = "{345, 0}";
},
{
name = center;
position = "{175, 400}";
},
{
name = dot;
position = "{484, 441}";
},
{
name = top;
position = "{175, 700}";
},
{
name = topright;
position = "{423, 700}";
}
);
guides = (
{
angle = 90;
position = "{581, 0}";
}
);
layerId = "80A23A3A-6F8A-47FF-B13B-1FE7B70F65E8";
shapes = (
{
closed = 1;
nodes = (
(609,0,l),
(609,183,l),
(293,183,l),
(293,700,l),
(57,700,l),
(57,0,l)
);
}
);
width = 617;
},
{
anchors = (
{
name = bottom;
position = "{355, 0}";
},
{
name = center;
position = "{157, 379}";
},
{
name = dot;
position = "{455, 399}";
},
{
name = top;
position = "{157, 700}";
},
{
name = topright;
position = "{436, 700}";
}
);
background = {
shapes = (
{
closed = 1;
nodes = (
(587,0,l),
(587,99,l),
(214,99,l),
(214,700,l),
(100,700,l),
(100,0,l)
);
}
);
};
layerId = "4054872B-F70F-4FA7-B657-FACA7DE5D444";
shapes = (
{
closed = 1;
nodes = (
(587,0,l),
(587,99,l),
(214,99,l),
(214,700,l),
(100,700,l),
(100,0,l)
);
}
);
width = 596;
},
{
anchors = (
{
name = bottom;
position = "{362, 0}";
},
{
name = center;
position = "{143, 360}";
},
{
name = dot;
position = "{433, 360}";
},
{
name = top;
position = "{143, 700}";
},
{
name = topright;
position = "{446, 700}";
}
);
guides = (
{
angle = 90;
position = "{466, 0}";
}
);
layerId = "6C677F0D-8978-4FCA-B34D-F7758EC5234D";
shapes = (
{
closed = 1;
nodes = (
(570,0,l),
(570,19,l),
(153,19,l),
(153,700,l),
(133,700,l),
(133,0,l)
);
}
);
width = 580;
}
);
leftKerningGroup = H;
rightKerningGroup = L;
unicode = 76;
}
{
color = 3;
glyphname = M;
layers = (
{
anchors = (
{
name = bottom;
position = "{476, 0}";
},
{
name = top;
position = "{476, 700}";
}
);
layerId = "80A23A3A-6F8A-47FF-B13B-1FE7B70F65E8";
shapes = (
{
closed = 1;
nodes = (
(272,0,l),
(272,376,l),
(230,376,l),
(424,63,l),
(528,63,l),
(714,376,l),
(680,376,l),
(682,0,l),
(897,0,l),
(895,700,l),
(701,700,l),
(429,243,l),
(531,243,l),
(251,700,l),
(57,700,l),
(57,0,l)
);
}
);
width = 954;
},
{
anchors = (
{
name = bottom;
position = "{477, 0}";
},
{
name = top;
position = "{477, 700}";
}
);
background = {
shapes = (
{
closed = 1;
nodes = (
(205,0,l),
(205,528,l),
(182,528,l),
(451,82,l),
(503,82,l),
(769,528,l),
(749,528,l),
(750,0,l),
(855,0,l),
(854,700,l),
(760,700,l),
(454,179,l),
(504,179,l),
(194,700,l),
(100,700,l),
(100,0,l)
);
}
);
};
layerId = "4054872B-F70F-4FA7-B657-FACA7DE5D444";
shapes = (
{
closed = 1;
nodes = (
(210,0,l),
(210,526,l),
(182,526,l),
(451,82,l),
(503,82,l),
(769,526,l),
(744,526,l),
(745,0,l),
(855,0,l),
(854,700,l),
(760,700,l),
(454,181,l),
(504,181,l),
(194,700,l),
(100,700,l),
(100,0,l)
);
}
);
width = 955;
},
{
anchors = (
{
name = bottom;
position = "{478, 0}";
},
{
name = top;
position = "{478, 700}";
}
);
layerId = "6C677F0D-8978-4FCA-B34D-F7758EC5234D";
shapes = (
{
closed = 1;
nodes = (
(153,0,l),
(153,671,l),
(144,671,l),
(472,99,l),
(484,99,l),
(811,671,l),
(803,671,l),
(803,0,l),
(823,0,l),
(823,700,l),
(806,700,l),
(474,118,l),
(483,118,l),
(150,700,l),
(133,700,l),
(133,0,l)
);
}
);
width = 956;
}
);
leftKerningGroup = H;
rightKerningGroup = H;
unicode = 77;
}
{
color = 3;
glyphname = N;
layers = (
{
anchors = (
{
name = bottom;
position = "{402, 0}";
},
{
name = top;
position = "{402, 700}";
}
);
layerId = "80A23A3A-6F8A-47FF-B13B-1FE7B70F65E8";
shapes = (
{
closed = 1;
nodes = (
(287,0,l),
(287,426,l),
(197,426,l),
(553,0,l),
(747,0,l),
(747,700,l),
(517,700,l),
(517,274,l),
(607,274,l),
(251,700,l),
(57,700,l),
(57,0,l)
);
}
);
width = 804;
},
{
anchors = (
{
name = bottom;
position = "{405, 0}";
},
{
name = top;
position = "{405, 700}";
}
);
background = {
shapes = (
{
closed = 1;
nodes = (
(212,0,l),
(212,555,l),
(166,555,l),
(617,0,l),
(711,0,l),
(711,700,l),
(599,700,l),
(599,145,l),
(645,145,l),
(194,700,l),
(100,700,l),
(100,0,l)
);
}
);
};
layerId = "4054872B-F70F-4FA7-B657-FACA7DE5D444";
shapes = (
{
closed = 1;
nodes = (
(214,0,l),
(214,556,l),
(166,556,l),
(617,0,l),
(711,0,l),
(711,700,l),
(597,700,l),
(597,144,l),
(645,144,l),
(194,700,l),
(100,700,l),
(100,0,l)
);
}
);
width = 811;
},
{
anchors = (
{
name = bottom;
position = "{408, 0}";
},
{
name = top;
position = "{408, 700}";
}
);
layerId = "6C677F0D-8978-4FCA-B34D-F7758EC5234D";
shapes = (
{
closed = 1;
nodes = (
(153,0,l),
(153,677,l),
(142,677,l),
(666,0,l),
(683,0,l),
(683,700,l),
(663,700,l),
(663,23,l),
(674,23,l),
(150,700,l),
(133,700,l),
(133,0,l)
);
}
);
width = 816;
}
);
leftKerningGroup = H;
rightKerningGroup = H;
unicode = 78;
}
{
color = 3;
glyphname = R;
layers = (
{
anchors = (
{
name = bottom;
position = "{379, 0}";
},
{
name = top;
position = "{379, 700}";
}
);
layerId = "80A23A3A-6F8A-47FF-B13B-1FE7B70F65E8";
shapes = (
{
closed = 1;
nodes = (
(57,700,l),
(57,518,l),
(379,518,ls),
(444,518,o),
(475,487,o),
(475,436,cs),
(475,385,o),
(444,354,o),
(379,354,cs),
(188,354,l),
(293,247,l),
(293,354,l),
(57,354,l),
(57,0,l),
(293,0,l),
(293,273,l),
(188,176,l),
(394,176,ls),
(589,176,o),
(713,274,o),
(713,436,cs),
(713,598,o),
(589,700,o),
(394,700,cs)
);
},
{
closed = 1;
nodes = (
(728,0,l),
(554,255,l),
(304,255,l),
(476,0,l)
);
}
);
width = 745;
},
{
anchors = (
{
name = bottom;
position = "{372, 0}";
},
{
name = top;
position = "{372, 700}";
}
);
background = {
shapes = (
{
closed = 1;
nodes = (
(214,0,l),
(214,261,l),
(163,209,l),
(380,209,ls),
(563,209,o),
(675,300,o),
(675,453,cs),
(675,607,o),
(563,700,o),
(380,700,cs),
(100,700,l),
(100,0,l)
);
},
{
closed = 1;
nodes = (
(687,0,l),
(508,254,l),
(385,254,l),
(563,0,l)
);
},
{
closed = 1;
nodes = (
(214,658,l),
(163,602,l),
(375,602,ls),
(496,602,o),
(559,547,o),
(559,453,cs),
(559,360,o),
(496,305,o),
(375,305,cs),
(163,305,l),
(214,249,l)
);
}
);
};
layerId = "4054872B-F70F-4FA7-B657-FACA7DE5D444";
shapes = (
{
closed = 1;
nodes = (
(100,700,l),
(100,601,l),
(376,601,ls),
(497,601,o),
(560,547,o),
(560,453,cs),
(560,360,o),
(497,305,o),
(376,305,cs),
(163,305,l),
(214,249,l),
(214,305,l),
(100,305,l),
(100,0,l),
(214,0,l),
(214,261,l),
(163,208,l),
(380,208,ls),
(563,208,o),
(675,300,o),
(675,453,cs),
(675,607,o),
(563,700,o),
(380,700,cs)
);
},
{
closed = 1;
nodes = (
(687,0,l),
(508,254,l),
(385,254,l),
(563,0,l)
);
}
);
width = 729;
},
{
anchors = (
{
name = bottom;
position = "{366, 0}";
},
{
name = top;
position = "{366, 700}";
}
);
layerId = "6C677F0D-8978-4FCA-B34D-F7758EC5234D";
shapes = (
{
closed = 1;
nodes = (
(655,0,l),
(472,254,l),
(447,254,l),
(630,0,l)
);
},
{
closed = 1;
nodes = (
(133,700,l),
(133,681,l),
(372,681,ls),
(536,681,o),
(625,604,o),
(625,470,cs),
(625,336,o),
(536,259,o),
(372,259,cs),
(144,259,l),
(153,251,l),
(153,259,l),
(133,259,l),
(133,0,l),
(153,0,l),
(153,249,l),
(144,240,l),
(370,240,ls),
(542,240,o),
(645,325,o),
(645,470,cs),
(645,615,o),
(542,700,o),
(370,700,cs)
);
}
);
width = 716;
}
);
leftKerningGroup = H;
rightKerningGroup = R;
unicode = 82;
}
{
color = 3;
glyphname = S;
layers = (
{
anchors = (
{
name = bottom;
position = "{329, 0}";
},
{
name = top;
position = "{329, 700}";
}
);
layerId = "80A23A3A-6F8A-47FF-B13B-1FE7B70F65E8";
shapes = (
{
closed = 1;
nodes = (
(535,-16,o),
(644,92,o),
(644,220,cs),
(644,478,o),
(257,408,o),
(257,492,cs),
(257,516,o),
(279,536,o),
(348,536,cs),
(409,536,o),
(474,519,o),
(543,484,c),
(614,655,l),
(541,696,o),
(444,716,o),
(350,716,cs),
(133,716,o),
(24,610,o),
(24,480,cs),
(24,219,o),
(411,290,o),
(411,202,cs),
(411,178,o),
(387,164,o),
(320,164,cs),
(243,164,o),
(155,189,o),
(89,228,c),
(13,56,l),
(83,13,o),
(201,-16,o),
(318,-16,cs)
);
}
);
width = 657;
},
{
anchors = (
{
name = bottom;
position = "{323, 0}";
},
{
name = top;
position = "{323, 700}";
}
);
background = {
shapes = (
{
closed = 1;
nodes = (
(498,-9,o),
(587,85,o),
(587,195,cs),
(587,451,o),
(167,347,o),
(167,509,cs),
(167,566,o),
(215,612,o),
(328,612,cs),
(390,612,o),
(459,594,o),
(521,556,c),
(558,647,l),
(498,687,o),
(412,709,o),
(329,709,cs),
(141,709,o),
(54,615,o),
(54,504,cs),
(54,245,o),
(474,350,o),
(474,187,cs),
(474,131,o),
(425,88,o),
(310,88,cs),
(222,88,o),
(133,121,o),
(79,167,c),
(38,77,l),
(95,26,o),
(202,-9,o),
(310,-9,cs)
);
}
);
};
layerId = "4054872B-F70F-4FA7-B657-FACA7DE5D444";
shapes = (
{
closed = 1;
nodes = (
(498,-9,o),
(587,85,o),
(587,195,cs),
(587,452,o),
(167,350,o),
(167,509,cs),
(167,566,o),
(215,612,o),
(328,612,cs),
(390,612,o),
(459,594,o),
(521,556,c),
(558,647,l),
(498,687,o),
(412,709,o),
(329,709,cs),
(141,709,o),
(54,615,o),
(54,504,cs),
(54,244,o),
(474,347,o),
(474,187,cs),
(474,131,o),
(425,88,o),
(310,88,cs),
(222,88,o),
(133,121,o),
(79,167,c),
(38,77,l),
(95,26,o),
(202,-9,o),
(310,-9,cs)
);
}
);
width = 625;
},
{
anchors = (
{
name = bottom;
position = "{318, 0}";
},
{
name = top;
position = "{318, 700}";
}
);
layerId = "6C677F0D-8978-4FCA-B34D-F7758EC5234D";
shapes = (
{
closed = 1;
nodes = (
(470,-3,o),
(543,79,o),
(543,172,cs),
(543,425,o),
(98,290,o),
(98,526,cs),
(98,613,o),
(166,684,o),
(313,684,cs),
(376,684,o),
(448,664,o),
(504,623,c),
(515,639,l),
(464,678,o),
(387,703,o),
(312,703,cs),
(148,703,o),
(78,619,o),
(78,527,cs),
(78,269,o),
(523,407,o),
(523,172,cs),
(523,86,o),
(455,16,o),
(303,16,cs),
(205,16,o),
(116,57,o),
(72,109,c),
(58,96,l),
(105,38,o),
(202,-3,o),
(304,-3,cs)
);
}
);
width = 601;
}
);
leftKerningGroup = S;
rightKerningGroup = S;
unicode = 83;
}
{
glyphname = T;
layers = (
{
anchors = (
{
name = bottom;
position = "{327, 0}";
},
{
name = center;
position = "{327, 315}";
},
{
name = top;
position = "{327, 700}";
}
);
layerId = "80A23A3A-6F8A-47FF-B13B-1FE7B70F65E8";
shapes = (
{
closed = 1;
nodes = (
(445,0,l),
(445,517,l),
(650,517,l),
(650,700,l),
(4,700,l),
(4,517,l),
(209,517,l),
(209,0,l)
);
}
);
width = 654;
},
{
anchors = (
{
name = bottom;
position = "{297, 0}";
},
{
name = center;
position = "{297, 336}";
},
{
name = top;
position = "{297, 700}";
}
);
background = {
shapes = (
{
closed = 1;
nodes = (
(354,0,l),
(354,601,l),
(590,601,l),
(590,700,l),
(4,700,l),
(4,601,l),
(240,601,l),
(240,0,l)
);
}
);
};
layerId = "4054872B-F70F-4FA7-B657-FACA7DE5D444";
shapes = (
{
closed = 1;
nodes = (
(354,0,l),
(354,601,l),
(590,601,l),
(590,700,l),
(4,700,l),
(4,601,l),
(240,601,l),
(240,0,l)
);
}
);
width = 594;
},
{
anchors = (
{
name = bottom;
position = "{274, 0}";
},
{
name = center;
position = "{274, 356}";
},
{
name = top;
position = "{274, 700}";
}
);
layerId = "6C677F0D-8978-4FCA-B34D-F7758EC5234D";
shapes = (
{
closed = 1;
nodes = (
(284,0,l),
(284,681,l),
(544,681,l),
(544,700,l),
(4,700,l),
(4,681,l),
(264,681,l),
(264,0,l)
);
}
);
width = 548;
}
);
leftKerningGroup = T;
rightKerningGroup = T;
unicode = 84;
}
{
glyphname = V;
layers = (
{
guides = (
{
angle = 113.612;
position = "{368, 350}";
}
);
layerId = "80A23A3A-6F8A-47FF-B13B-1FE7B70F65E8";
shapes = (
{
closed = 1;
nodes = (
(509,0,l),
(805,700,l),
(573,700,l),
(325,109,l),
(476,109,l),
(235,700,l),
(-19,700,l),
(277,0,l)
);
}
);
width = 786;
},
{
background = {
shapes = (
{
closed = 1;
nodes = (
(417,0,l),
(723,700,l),
(609,700,l),
(328,61,l),
(399,61,l),
(121,700,l),
(-3,700,l),
(304,0,l)
);
}
);
};
layerId = "4054872B-F70F-4FA7-B657-FACA7DE5D444";
shapes = (
{
closed = 1;
nodes = (
(417,0,l),
(723,700,l),
(609,700,l),
(328,61,l),
(399,61,l),
(121,700,l),
(-3,700,l),
(304,0,l)
);
}
);
width = 720;
},
{
layerId = "6C677F0D-8978-4FCA-B34D-F7758EC5234D";
shapes = (
{
closed = 1;
nodes = (
(345,0,l),
(660,700,l),
(637,700,l),
(330,16,l),
(340,16,l),
(33,700,l),
(10,700,l),
(325,0,l)
);
}
);
width = 670;
}
);
leftKerningGroup = V;
rightKerningGroup = V;
unicode = 86;
}
{
glyphname = W;
layers = (
{
anchors = (
{
name = bottom;
position = "{603, 0}";
},
{
name = top;
position = "{603, 700}";
}
);
layerId = "80A23A3A-6F8A-47FF-B13B-1FE7B70F65E8";
shapes = (
{
closed = 1;
nodes = (
(487,0,l),
(641,484,l),
(573,484,l),
(719,0,l),
(972,0,l),
(1196,700,l),
(972,700,l),
(783,109,l),
(900,109,l),
(721,700,l),
(504,700,l),
(312,109,l),
(434,109,l),
(253,700,l),
(10,700,l),
(234,0,l)
);
}
);
width = 1206;
},
{
anchors = (
{
name = bottom;
position = "{568, 0}";
},
{
name = top;
position = "{568, 700}";
}
);
background = {
shapes = (
{
closed = 1;
nodes = (
(385,0,l),
(585,584,l),
(553,584,l),
(751,0,l),
(872,0,l),
(1105,700,l),
(996,700,l),
(781,61,l),
(838,61,l),
(625,700,l),
(519,700,l),
(300,61,l),
(359,61,l),
(148,700,l),
(30,700,l),
(263,0,l)
);
}
);
};
layerId = "4054872B-F70F-4FA7-B657-FACA7DE5D444";
shapes = (
{
closed = 1;
nodes = (
(385,0,l),
(585,584,l),
(553,584,l),
(751,0,l),
(872,0,l),
(1105,700,l),
(996,700,l),
(781,61,l),
(838,61,l),
(625,700,l),
(519,700,l),
(300,61,l),
(359,61,l),
(148,700,l),
(30,700,l),
(263,0,l)
);
}
);
width = 1135;
},
{
anchors = (
{
name = bottom;
position = "{540, 0}";
},
{
name = top;
position = "{540, 700}";
}
);
layerId = "6C677F0D-8978-4FCA-B34D-F7758EC5234D";
shapes = (
{
closed = 1;
nodes = (
(305,0,l),
(542,678,l),
(538,678,l),
(775,0,l),
(795,0,l),
(1035,700,l),
(1014,700,l),
(780,16,l),
(790,16,l),
(550,700,l),
(530,700,l),
(290,16,l),
(301,16,l),
(67,700,l),
(45,700,l),
(285,0,l)
);
}
);
width = 1080;
}
);
leftKerningGroup = V;
rightKerningGroup = V;
unicode = 87;
}
{
glyphname = Y;
layers = (
{
anchors = (
{
name = bottom;
position = "{355, 0}";
},
{
name = center;
position = "{349, 266}";
},
{
name = top;
position = "{355, 700}";
}
);
layerId = "80A23A3A-6F8A-47FF-B13B-1FE7B70F65E8";
shapes = (
{
closed = 1;
nodes = (
(473,0,l),
(473,307,l),
(421,166,l),
(737,700,l),
(509,700,l),
(292,335,l),
(437,335,l),
(222,700,l),
(-27,700,l),
(291,166,l),
(237,307,l),
(237,0,l)
);
}
);
width = 710;
},
{
anchors = (
{
name = bottom;
position = "{327, 0}";
},
{
name = center;
position = "{324, 251}";
},
{
name = top;
position = "{327, 700}";
}
);
background = {
shapes = (
{
closed = 1;
nodes = (
(384,0,l),
(384,275,l),
(358,199,l),
(660,700,l),
(547,700,l),
(297,293,l),
(365,293,l),
(116,700,l),
(-6,700,l),
(296,199,l),
(270,275,l),
(270,0,l)
);
}
);
};
layerId = "4054872B-F70F-4FA7-B657-FACA7DE5D444";
shapes = (
{
closed = 1;
nodes = (
(384,0,l),
(384,272,l),
(358,202,l),
(660,700,l),
(547,700,l),
(297,289,l),
(365,289,l),
(116,700,l),
(-6,700,l),
(296,202,l),
(270,272,l),
(270,0,l)
);
}
);
width = 654;
},
{
anchors = (
{
name = bottom;
position = "{305, 0}";
},
{
name = center;
position = "{305, 240}";
},
{
name = top;
position = "{305, 700}";
}
);
layerId = "6C677F0D-8978-4FCA-B34D-F7758EC5234D";
shapes = (
{
closed = 1;
nodes = (
(315,0,l),
(315,245,l),
(310,230,l),
(600,700,l),
(577,700,l),
(301,253,l),
(309,253,l),
(33,700,l),
(10,700,l),
(300,230,l),
(295,245,l),
(295,0,l)
);
}
);
width = 610;
}
);
leftKerningGroup = Y;
rightKerningGroup = Y;
unicode = 89;
}
{
glyphname = Z;
layers = (
{
anchors = (
{
name = bottom;
position = "{354, 0}";
},
{
name = top;
position = "{354, 700}";
}
);
layerId = "80A23A3A-6F8A-47FF-B13B-1FE7B70F65E8";
shapes = (
{
closed = 1;
nodes = (
(675,0,l),
(675,183,l),
(240,183,l),
(269,101,l),
(659,555,l),
(659,700,l),
(42,700,l),
(42,517,l),
(451,517,l),
(422,599,l),
(32,145,l),
(32,0,l)
);
}
);
width = 687;
},
{
anchors = (
{
name = bottom;
position = "{343, 0}";
},
{
name = top;
position = "{338, 700}";
}
);
background = {
shapes = (
{
closed = 1;
nodes = (
(633,0,l),
(633,99,l),
(145,99,l),
(159,55,l),
(620,622,l),
(620,700,l),
(49,700,l),
(49,601,l),
(517,601,l),
(504,645,l),
(42,78,l),
(42,0,l)
);
}
);
};
layerId = "4054872B-F70F-4FA7-B657-FACA7DE5D444";
shapes = (
{
closed = 1;
nodes = (
(633,0,l),
(633,99,l),
(145,99,l),
(159,55,l),
(620,622,l),
(620,700,l),
(49,700,l),
(49,601,l),
(517,601,l),
(504,645,l),
(42,78,l),
(42,0,l)
);
}
);
width = 660;
},
{
anchors = (
{
name = bottom;
position = "{335, 0}";
},
{
name = top;
position = "{325, 700}";
}
);
layerId = "6C677F0D-8978-4FCA-B34D-F7758EC5234D";
shapes = (
{
closed = 1;
nodes = (
(600,0,l),
(600,19,l),
(72,19,l),
(73,12,l),
(590,685,l),
(590,700,l),
(55,700,l),
(55,681,l),
(568,681,l),
(567,688,l),
(50,15,l),
(50,0,l)
);
}
);
width = 639;
}
);
leftKerningGroup = Z;
rightKerningGroup = Z;
unicode = 90;
}
{
color = 3;
glyphname = bracketright;
layers = (
{
layerId = "A21A2123-DD84-4B37-8E55-82388BE3A895";
name = Light.Bold;
shapes = (
{
closed = 1;
nodes = (
(53,603,l),
(108,603,o),
(111,591,o),
(111,587,cs),
(111,415,ls),
(111,361,o),
(109,350,o),
(122,321,cs),
(125,315,o),
(127,308,o),
(134,306,c),
(108,280,o),
(111,254,o),
(111,200,cs),
(111,42,ls),
(111,12,o),
(88,10,o),
(63,14,c),
(59,18,o),
(57,20,o),
(53,20,c),
(46,-134,l),
(69,-134,o),
(92,-135,o),
(115,-135,c),
(160,-135,o),
(213,-125,o),
(246,-75,c),
(260,-55,o),
(282,-23,o),
(282,27,cs),
(282,199,ls),
(282,244,o),
(295,229,o),
(323,227,c),
(325,226,o),
(326,226,o),
(327,226,c),
(331,226,o),
(340,359,o),
(341,383,c),
(304,384,o),
(282,361,o),
(282,408,cs),
(282,611,ls),
(282,739,o),
(192,758,o),
(115,755,c),
(99,753,o),
(81,754,o),
(59,755,c),
(60,757,o),
(58,759,o),
(46,759,c),
(46,741,o),
(46,723,o),
(46,705,c)
);
}
);
width = 385;
},
{
layerId = "80A23A3A-6F8A-47FF-B13B-1FE7B70F65E8";
shapes = (
{
closed = 1;
nodes = (
(353,742,l),
(10,742,l),
(10,572,l),
(127,572,l),
(127,-24,l),
(10,-24,l),
(10,-194,l),
(353,-194,l)
);
}
);
width = 410;
},
{
background = {
shapes = (
{
closed = 1;
nodes = (
(241,742,l),
(17,742,l),
(17,650,l),
(131,650,l),
(131,-102,l),
(17,-102,l),
(17,-194,l),
(241,-194,l)
);
}
);
};
layerId = "4054872B-F70F-4FA7-B657-FACA7DE5D444";
shapes = (
{
closed = 1;
nodes = (
(241,742,l),
(18,742,l),
(18,652,l),
(131,652,l),
(131,-104,l),
(18,-104,l),
(18,-194,l),
(241,-194,l)
);
}
);
width = 341;
},
{
layerId = "6C677F0D-8978-4FCA-B34D-F7758EC5234D";
shapes = (
{
closed = 1;
nodes = (
(155,742,l),
(25,742,l),
(25,723,l),
(135,723,l),
(135,-175,l),
(25,-175,l),
(25,-194,l),
(155,-194,l)
);
}
);
width = 288;
}
);
leftKerningGroup = braceright;
rightKerningGroup = bracketright;
unicode = 93;
}
{
glyphname = asciicircum;
layers = (
{
layerId = "80A23A3A-6F8A-47FF-B13B-1FE7B70F65E8";
shapes = (
{
closed = 1;
nodes = (
(206,139,l),
(359,508,l),
(261,508,l),
(414,139,l),
(584,139,l),
(399,561,l),
(221,561,l),
(36,139,l)
);
}
);
width = 620;
},
{
background = {
shapes = (
{
closed = 1;
nodes = (
(158,142,l),
(317,525,l),
(270,525,l),
(429,142,l),
(516,142,l),
(339,558,l),
(249,558,l),
(71,142,l)
);
}
);
};
layerId = "4054872B-F70F-4FA7-B657-FACA7DE5D444";
shapes = (
{
closed = 1;
nodes = (
(158,142,l),
(317,525,l),
(270,525,l),
(429,142,l),
(516,142,l),
(339,558,l),
(249,558,l),
(71,142,l)
);
}
);
width = 587;
},
{
layerId = "6C677F0D-8978-4FCA-B34D-F7758EC5234D";
shapes = (
{
closed = 1;
nodes = (
(121,145,l),
(285,542,l),
(277,542,l),
(441,145,l),
(463,145,l),
(292,555,l),
(270,555,l),
(99,145,l)
);
}
);
width = 562;
}
);
leftKerningGroup = asciicircum;
rightKerningGroup = asciicircum;
unicode = 94;
}
{
color = 3;
glyphname = underscore;
layers = (
{
layerId = "80A23A3A-6F8A-47FF-B13B-1FE7B70F65E8";
shapes = (
{
closed = 1;
nodes = (
(500,-120,l),
(500,0,l),
(0,0,l),
(0,-120,l)
);
}
);
width = 500;
},
{
background = {
shapes = (
{
closed = 1;
nodes = (
(500,-68,l),
(500,0,l),
(0,0,l),
(0,-68,l)
);
}
);
};
layerId = "4054872B-F70F-4FA7-B657-FACA7DE5D444";
shapes = (
{
closed = 1;
nodes = (
(500,-70,l),
(500,0,l),
(0,0,l),
(0,-70,l)
);
}
);
width = 500;
},
{
layerId = "6C677F0D-8978-4FCA-B34D-F7758EC5234D";
shapes = (
{
closed = 1;
nodes = (
(500,-19,l),
(500,0,l),
(0,0,l),
(0,-19,l)
);
}
);
width = 500;
}
);
leftKerningGroup = underscore;
rightKerningGroup = underscore;
unicode = 95;
}
{
color = 3;
glyphname = c;
layers = (
{
anchors = (
{
name = bottom;
position = "{316, 0}";
},
{
name = top;
position = "{324, 547}";
}
);
layerId = "80A23A3A-6F8A-47FF-B13B-1FE7B70F65E8";
shapes = (
{
closed = 1;
nodes = (
(477,-10,o),
(577,51,o),
(613,152,c),
(438,238,l),
(415,187,o),
(382,166,o),
(343,166,cs),
(292,166,o),
(250,202,o),
(250,274,cs),
(250,345,o),
(292,381,o),
(343,381,cs),
(382,381,o),
(415,360,o),
(438,309,c),
(613,395,l),
(577,496,o),
(477,557,o),
(344,557,cs),
(155,557,o),
(21,440,o),
(21,274,cs),
(21,107,o),
(155,-10,o),
(344,-10,cs)
);
}
);
width = 615;
},
{
anchors = (
{
name = bottom;
position = "{302, 0}";
},
{
name = top;
position = "{305, 532}";
}
);
background = {
shapes = (
{
closed = 1;
nodes = (
(482,-6,o),
(600,107,o),
(600,266,cs),
(600,425,o),
(482,538,o),
(320,538,cs),
(159,538,o),
(40,425,o),
(40,266,cs),
(40,107,o),
(159,-6,o),
(320,-6,cs)
);
},
{
closed = 1;
nodes = (
(224,90,o),
(151,159,o),
(151,266,cs),
(151,373,o),
(224,442,o),
(320,442,cs),
(417,442,o),
(489,373,o),
(489,266,cs),
(489,159,o),
(417,90,o),
(320,90,cs)
);
}
);
};
layerId = "4054872B-F70F-4FA7-B657-FACA7DE5D444";
shapes = (
{
closed = 1;
nodes = (
(424,-6,o),
(505,36,o),
(546,113,c),
(462,165,l),
(429,113,o),
(379,90,o),
(323,90,cs),
(225,90,o),
(151,157,o),
(151,266,cs),
(151,374,o),
(225,442,o),
(323,442,cs),
(379,442,o),
(429,418,o),
(462,367,c),
(546,419,l),
(505,497,o),
(424,538,o),
(324,538,cs),
(159,538,o),
(40,425,o),
(40,266,cs),
(40,107,o),
(159,-6,o),
(324,-6,cs)
);
}
);
width = 576;
},
{
anchors = (
{
name = bottom;
position = "{291, 0}";
},
{
name = top;
position = "{291, 517}";
}
);
layerId = "6C677F0D-8978-4FCA-B34D-F7758EC5234D";
shapes = (
{
closed = 1;
nodes = (
(382,-3,o),
(450,25,o),
(494,81,c),
(480,96,l),
(440,42,o),
(377,16,o),
(308,16,cs),
(173,16,o),
(74,115,o),
(74,259,cs),
(74,402,o),
(173,501,o),
(308,501,cs),
(377,501,o),
(440,475,o),
(480,421,c),
(494,436,l),
(450,492,o),
(382,520,o),
(308,520,cs),
(161,520,o),
(54,413,o),
(54,259,cs),
(54,105,o),
(161,-3,o),
(308,-3,cs)
);
}
);
width = 545;
}
);
leftKerningGroup = o;
rightKerningGroup = c;
unicode = 99;
}
{
color = 2;
glyphname = f;
layers = (
{
layerId = "80A23A3A-6F8A-47FF-B13B-1FE7B70F65E8";
shapes = (
{
closed = 1;
nodes = (
(301,0,l),
(301,399,l),
(294,492,l),
(294,518,ls),
(294,562,o),
(316,581,o),
(348,581,cs),
(366,581,o),
(384,575,o),
(399,568,c),
(453,725,l),
(420,743,o),
(367,752,o),
(319,752,cs),
(163,752,o),
(75,661,o),
(75,520,cs),
(75,0,l)
);
},
{
closed = 1;
nodes = (
(413,352,l),
(413,517,l),
(0,517,l),
(0,352,l)
);
}
);
width = 426;
},
{
background = {
shapes = (
{
closed = 1;
nodes = (
(212,0,l),
(212,453,l),
(209,503,l),
(209,567,ls),
(209,626,o),
(239,656,o),
(292,656,cs),
(319,656,o),
(344,647,o),
(363,633,c),
(394,716,l),
(367,738,o),
(321,748,o),
(279,748,cs),
(166,748,o),
(102,678,o),
(102,570,cs),
(102,0,l)
);
},
{
closed = 1;
nodes = (
(360,427,l),
(360,517,l),
(13,517,l),
(13,427,l)
);
}
);
};
layerId = "4054872B-F70F-4FA7-B657-FACA7DE5D444";
shapes = (
{
closed = 1;
nodes = (
(212,0,l),
(212,453,l),
(209,503,l),
(209,569,ls),
(209,628,o),
(237,658,o),
(292,658,cs),
(319,658,o),
(344,649,o),
(363,635,c),
(395,719,l),
(368,739,o),
(328,748,o),
(286,748,cs),
(167,748,o),
(102,678,o),
(102,570,cs),
(102,0,l)
);
},
{
closed = 1;
nodes = (
(360,442,l),
(360,532,l),
(13,532,l),
(13,442,l)
);
}
);
width = 361;
},
{
layerId = "6C677F0D-8978-4FCA-B34D-F7758EC5234D";
shapes = (
{
closed = 1;
nodes = (
(143,0,l),
(143,503,l),
(143,514,l),
(143,613,ls),
(143,686,o),
(179,726,o),
(249,726,cs),
(282,726,o),
(313,715,o),
(335,694,c),
(349,708,l),
(325,733,o),
(285,745,o),
(248,745,cs),
(168,745,o),
(123,694,o),
(123,618,cs),
(123,0,l)
);
},
{
closed = 1;
nodes = (
(318,498,l),
(318,517,l),
(23,517,l),
(23,498,l)
);
}
);
width = 311;
}
);
leftKerningGroup = f;
rightKerningGroup = f;
unicode = 102;
}
{
color = 3;
glyphname = g;
layers = (
{
anchors = (
{
name = top;
position = "{355, 547}";
}
);
layerId = "80A23A3A-6F8A-47FF-B13B-1FE7B70F65E8";
shapes = (
{
closed = 1;
nodes = (
(537,-204,o),
(661,-103,o),
(661,109,cs),
(661,547,l),
(446,547,l),
(446,464,l),
(445,294,l),
(435,124,l),
(435,78,ls),
(435,5,o),
(398,-36,o),
(305,-36,cs),
(246,-36,o),
(173,-15,o),
(130,18,c),
(54,-136,l),
(122,-181,o),
(220,-204,o),
(328,-204,cs)
);
},
{
closed = 1;
nodes = (
(426,30,o),
(490,114,o),
(490,294,cs),
(490,474,o),
(426,557,o),
(284,557,cs),
(145,557,o),
(21,456,o),
(21,294,cs),
(21,132,o),
(145,30,o),
(284,30,cs)
);
},
{
closed = 1;
nodes = (
(291,206,o),
(250,241,o),
(250,294,cs),
(250,347,o),
(291,381,o),
(344,381,cs),
(397,381,o),
(437,347,o),
(437,294,cs),
(437,241,o),
(397,206,o),
(344,206,cs)
);
}
);
width = 711;
},
{
anchors = (
{
name = top;
position = "{332, 532}";
}
);
background = {
shapes = (
{
closed = 1;
nodes = (
(507,-200,o),
(605,-112,o),
(605,77,cs),
(605,532,l),
(500,532,l),
(500,395,l),
(505,281,l),
(495,168,l),
(495,60,ls),
(495,-54,o),
(440,-109,o),
(315,-109,cs),
(240,-109,o),
(166,-84,o),
(118,-41,c),
(77,-123,l),
(134,-173,o),
(225,-200,o),
(325,-200,cs)
);
},
{
closed = 1;
nodes = (
(441,23,o),
(529,119,o),
(529,281,cs),
(529,444,o),
(441,538,o),
(298,538,cs),
(155,538,o),
(40,435,o),
(40,281,cs),
(40,127,o),
(155,23,o),
(298,23,cs)
);
},
{
closed = 1;
nodes = (
(224,119,o),
(151,185,o),
(151,281,cs),
(151,377,o),
(224,443,o),
(321,443,cs),
(418,443,o),
(491,377,o),
(491,281,cs),
(491,185,o),
(418,119,o),
(321,119,cs)
);
}
);
};
layerId = "4054872B-F70F-4FA7-B657-FACA7DE5D444";
shapes = (
{
closed = 1;
nodes = (
(507,-200,o),
(605,-114,o),
(605,77,cs),
(605,532,l),
(500,532,l),
(500,395,l),
(505,281,l),
(495,168,l),
(495,65,ls),
(495,-48,o),
(440,-104,o),
(319,-104,cs),
(243,-104,o),
(166,-78,o),
(118,-38,c),
(65,-123,l),
(125,-174,o),
(225,-200,o),
(323,-200,cs)
);
},
{
closed = 1;
nodes = (
(445,23,o),
(558,103,o),
(558,281,cs),
(558,459,o),
(445,538,o),
(312,538,cs),
(157,538,o),
(40,435,o),
(40,281,cs),
(40,127,o),
(157,23,o),
(312,23,cs)
);
},
{
closed = 1;
nodes = (
(223,119,o),
(151,185,o),
(151,281,cs),
(151,377,o),
(223,442,o),
(324,442,cs),
(425,442,o),
(497,377,o),
(497,281,cs),
(497,185,o),
(425,119,o),
(324,119,cs)
);
}
);
width = 692;
},
{
anchors = (
{
name = top;
position = "{315, 517}";
}
);
layerId = "6C677F0D-8978-4FCA-B34D-F7758EC5234D";
shapes = (
{
closed = 1;
nodes = (
(483,-197,o),
(562,-121,o),
(562,46,cs),
(562,517,l),
(542,517,l),
(542,329,l),
(552,269,l),
(542,209,l),
(542,43,ls),
(542,-110,o),
(472,-178,o),
(323,-178,cs),
(236,-178,o),
(161,-149,o),
(108,-97,c),
(94,-111,l),
(143,-165,o),
(229,-197,o),
(323,-197,cs)
);
},
{
closed = 1;
nodes = (
(453,17,o),
(559,123,o),
(559,269,cs),
(559,416,o),
(453,520,o),
(308,520,cs),
(163,520,o),
(54,416,o),
(54,269,cs),
(54,122,o),
(163,17,o),
(308,17,cs)
);
},
{
closed = 1;
nodes = (
(173,36,o),
(74,132,o),
(74,269,cs),
(74,406,o),
(173,501,o),
(308,501,cs),
(443,501,o),
(542,406,o),
(542,269,cs),
(542,132,o),
(443,36,o),
(308,36,cs)
);
}
);
width = 677;
}
);
leftKerningGroup = o;
rightKerningGroup = u;
unicode = 103;
}
{
color = 1;
glyphname = k;
layers = (
{
anchors = (
{
name = bottom;
position = "{323, 0}";
},
{
name = top;
position = "{163, 742}";
},
{
name = topright;
position = "{305, 547}";
}
);
layerId = "80A23A3A-6F8A-47FF-B13B-1FE7B70F65E8";
shapes = (
{
closed = 1;
nodes = (
(337,194,l),
(450,285,l),
(700,547,l),
(433,547,l),
(244,356,l),
(239,90,l)
);
},
{
closed = 1;
nodes = (
(276,0,l),
(276,742,l),
(50,742,l),
(50,0,l)
);
},
{
closed = 1;
nodes = (
(718,0,l),
(434,361,l),
(295,190,l),
(445,0,l)
);
}
);
width = 713;
},
{
anchors = (
{
name = bottom;
position = "{313, 0}";
},
{
name = top;
position = "{142, 742}";
},
{
name = topright;
position = "{259, 532}";
}
);
background = {
shapes = (
{
closed = 1;
nodes = (
(309,248,l),
(368,298,l),
(604,532,l),
(471,532,l),
(179,264,l),
(176,123,l)
);
},
{
closed = 1;
nodes = (
(197,0,l),
(197,742,l),
(87,742,l),
(87,0,l)
);
},
{
closed = 1;
nodes = (
(625,0,l),
(359,338,l),
(289,249,l),
(491,0,l)
);
}
);
};
layerId = "4054872B-F70F-4FA7-B657-FACA7DE5D444";
shapes = (
{
closed = 1;
nodes = (
(309,248,l),
(368,298,l),
(604,532,l),
(471,532,l),
(179,264,l),
(176,123,l)
);
},
{
closed = 1;
nodes = (
(197,0,l),
(197,742,l),
(87,742,l),
(87,0,l)
);
},
{
closed = 1;
nodes = (
(625,0,l),
(359,338,l),
(289,249,l),
(491,0,l)
);
}
);
width = 625;
},
{
anchors = (
{
name = bottom;
position = "{307, 0}";
},
{
name = top;
position = "{125, 742}";
},
{
name = topright;
position = "{223, 517}";
}
);
layerId = "6C677F0D-8978-4FCA-B34D-F7758EC5234D";
shapes = (
{
closed = 1;
nodes = (
(288,299,l),
(304,311,l),
(529,517,l),
(500,517,l),
(128,178,l),
(128,154,l)
);
},
{
closed = 1;
nodes = (
(135,0,l),
(135,742,l),
(115,742,l),
(115,0,l)
);
},
{
closed = 1;
nodes = (
(552,0,l),
(300,316,l),
(284,304,l),
(526,0,l)
);
}
);
width = 570;
}
);
leftKerningGroup = l;
rightKerningGroup = k;
unicode = 107;
}
{
color = 3;
glyphname = m;
layers = (
{
anchors = (
{
name = bottom;
position = "{519, 0}";
}
);
layerId = "80A23A3A-6F8A-47FF-B13B-1FE7B70F65E8";
shapes = (
{
closed = 1;
nodes = (
(673,557,o),
(593,503,o),
(553,412,c),
(622,401,l),
(596,509,o),
(516,557,o),
(420,557,cs),
(335,557,o),
(262,517,o),
(221,434,c),
(265,390,l),
(265,547,l),
(50,547,l),
(50,0,l),
(276,0,l),
(276,267,ls),
(276,340,o),
(307,367,o),
(347,367,cs),
(385,367,o),
(408,341,o),
(408,273,cs),
(408,0,l),
(634,0,l),
(634,267,ls),
(634,340,o),
(665,367,o),
(705,367,cs),
(741,367,o),
(766,341,o),
(766,273,cs),
(766,0,l),
(992,0,l),
(992,312,ls),
(992,484,o),
(898,557,o),
(774,557,cs)
);
}
);
width = 1040;
},
{
anchors = (
{
name = bottom;
position = "{529, 0}";
}
);
background = {
shapes = (
{
closed = 1;
nodes = (
(1961,0,l),
(1961,308,ls),
(1961,464,o),
(1877,538,o),
(1753,538,cs),
(1624,538,o),
(1537,455,o),
(1524,332,c),
(1573,274,l),
(1573,377,o),
(1632,436,o),
(1723,436,cs),
(1803,436,o),
(1851,388,o),
(1851,289,cs),
(1851,0,l)
);
},
{
closed = 1;
nodes = (
(1185,0,l),
(1185,347,l),
(1180,380,l),
(1180,532,l),
(1075,532,l),
(1075,0,l)
);
},
{
closed = 1;
nodes = (
(1573,0,l),
(1573,308,ls),
(1573,462,o),
(1489,538,o),
(1366,538,cs),
(1237,538,o),
(1148,453,o),
(1140,310,c),
(1185,274,l),
(1185,377,o),
(1243,436,o),
(1335,436,cs),
(1415,436,o),
(1463,388,o),
(1463,289,cs),
(1463,0,l)
);
},
{
closed = 1;
nodes = (
(669,538,o),
(597,501,o),
(562,434,c),
(580,390,l),
(580,532,l),
(475,532,l),
(475,0,l),
(585,0,l),
(585,272,ls),
(585,383,o),
(645,440,o),
(734,440,cs),
(816,440,o),
(863,391,o),
(863,292,cs),
(863,0,l),
(973,0,l),
(973,305,ls),
(973,464,o),
(883,538,o),
(758,538,cs)
);
}
);
};
layerId = "4054872B-F70F-4FA7-B657-FACA7DE5D444";
shapes = (
{
closed = 1;
nodes = (
(648,538,o),
(561,486,o),
(528,407,c),
(574,389,l),
(550,489,o),
(470,538,o),
(370,538,cs),
(281,538,o),
(209,501,o),
(174,434,c),
(192,392,l),
(192,532,l),
(87,532,l),
(87,0,l),
(197,0,l),
(197,272,ls),
(197,383,o),
(257,440,o),
(346,440,cs),
(428,440,o),
(475,391,o),
(475,292,cs),
(475,0,l),
(585,0,l),
(585,272,ls),
(585,383,o),
(645,440,o),
(734,440,cs),
(816,440,o),
(863,391,o),
(863,292,cs),
(863,0,l),
(973,0,l),
(973,305,ls),
(973,464,o),
(883,538,o),
(753,538,cs)
);
}
);
width = 1055;
},
{
anchors = (
{
name = bottom;
position = "{537, 0}";
}
);
layerId = "6C677F0D-8978-4FCA-B34D-F7758EC5234D";
shapes = (
{
closed = 1;
nodes = (
(643,520,o),
(565,455,o),
(540,360,c),
(543,359,l),
(525,465,o),
(453,520,o),
(346,520,cs),
(238,520,o),
(162,463,o),
(133,374,c),
(135,371,l),
(135,517,l),
(115,517,l),
(115,0,l),
(135,0,l),
(135,281,ls),
(135,412,o),
(215,501,o),
(347,501,cs),
(460,501,o),
(527,433,o),
(527,305,cs),
(527,0,l),
(547,0,l),
(547,281,ls),
(547,412,o),
(627,501,o),
(759,501,cs),
(872,501,o),
(939,433,o),
(939,305,cs),
(939,0,l),
(959,0,l),
(959,305,ls),
(959,445,o),
(882,520,o),
(758,520,cs)
);
}
);
width = 1068;
}
);
leftKerningGroup = n;
rightKerningGroup = n;
unicode = 109;
}
{
color = 3;
glyphname = r;
layers = (
{
anchors = (
{
name = bottom;
position = "{163, 0}";
},
{
name = top;
position = "{245, 547}";
}
);
layerId = "80A23A3A-6F8A-47FF-B13B-1FE7B70F65E8";
shapes = (
{
closed = 1;
nodes = (
(276,0,l),
(276,243,ls),
(276,330,o),
(324,361,o),
(392,361,cs),
(408,361,o),
(422,360,o),
(442,357,c),
(442,557,l),
(339,557,o),
(263,514,o),
(230,429,c),
(265,382,l),
(265,547,l),
(50,547,l),
(50,0,l)
);
}
);
width = 456;
},
{
anchors = (
{
name = bottom;
position = "{142, 0}";
},
{
name = top;
position = "{235, 532}";
}
);
background = {
shapes = (
{
closed = 1;
nodes = (
(697,0,l),
(697,347,l),
(692,380,l),
(692,532,l),
(587,532,l),
(587,0,l)
);
},
{
closed = 1;
nodes = (
(697,374,o),
(759,433,o),
(858,433,cs),
(866,433,o),
(874,432,o),
(883,431,c),
(883,538,l),
(744,538,o),
(661,455,o),
(661,301,c),
(697,261,l)
);
},
{
closed = 1;
nodes = (
(285,538,o),
(210,501,o),
(174,434,c),
(192,390,l),
(192,532,l),
(87,532,l),
(87,0,l),
(197,0,l),
(197,272,ls),
(197,383,o),
(260,440,o),
(355,440,cs),
(441,440,o),
(491,391,o),
(491,292,cs),
(491,0,l),
(601,0,l),
(601,305,ls),
(601,464,o),
(507,538,o),
(378,538,cs)
);
}
);
};
layerId = "4054872B-F70F-4FA7-B657-FACA7DE5D444";
shapes = (
{
closed = 1;
nodes = (
(197,0,l),
(197,261,ls),
(197,374,o),
(259,433,o),
(358,433,cs),
(366,433,o),
(374,432,o),
(383,431,c),
(383,538,l),
(282,538,o),
(212,501,o),
(181,430,c),
(192,388,l),
(192,532,l),
(87,532,l),
(87,0,l)
);
}
);
width = 415;
},
{
anchors = (
{
name = bottom;
position = "{125, 0}";
},
{
name = top;
position = "{227, 517}";
}
);
layerId = "6C677F0D-8978-4FCA-B34D-F7758EC5234D";
shapes = (
{
closed = 1;
nodes = (
(135,0,l),
(135,278,ls),
(135,415,o),
(208,500,o),
(332,500,cs),
(334,500,o),
(336,500,o),
(338,500,c),
(338,520,l),
(232,520,o),
(161,468,o),
(133,377,c),
(135,374,l),
(135,517,l),
(115,517,l),
(115,0,l)
);
}
);
width = 383;
}
);
leftKerningGroup = n;
rightKerningGroup = r;
unicode = 114;
}
{
color = 3;
glyphname = s;
layers = (
{
anchors = (
{
name = bottom;
position = "{276, 0}";
},
{
name = top;
position = "{276, 547}";
}
);
layerId = "80A23A3A-6F8A-47FF-B13B-1FE7B70F65E8";
shapes = (
{
closed = 1;
nodes = (
(454,-10,o),
(547,76,o),
(547,175,cs),
(547,394,o),
(233,320,o),
(233,377,cs),
(233,390,o),
(249,403,o),
(307,403,cs),
(353,403,o),
(409,394,o),
(465,363,c),
(527,512,l),
(469,542,o),
(384,557,o),
(304,557,cs),
(120,557,o),
(24,473,o),
(24,370,cs),
(24,151,o),
(339,226,o),
(339,170,cs),
(339,154,o),
(324,144,o),
(269,144,cs),
(204,144,o),
(130,162,o),
(78,193,c),
(16,44,l),
(72,12,o),
(170,-10,o),
(264,-10,cs)
);
}
);
width = 565;
},
{
anchors = (
{
name = bottom;
position = "{251, 0}";
},
{
name = top;
position = "{251, 532}";
}
);
background = {
shapes = (
{
closed = 1;
nodes = (
(403,-6,o),
(479,64,o),
(479,152,cs),
(479,359,o),
(143,263,o),
(143,382,cs),
(143,421,o),
(177,453,o),
(266,453,cs),
(319,453,o),
(377,440,o),
(425,408,c),
(459,489,l),
(412,520,o),
(336,538,o),
(265,538,cs),
(113,538,o),
(40,464,o),
(40,379,cs),
(40,169,o),
(377,266,o),
(377,150,cs),
(377,107,o),
(343,78,o),
(249,78,cs),
(174,78,o),
(102,103,o),
(59,137,c),
(25,56,l),
(71,20,o),
(159,-6,o),
(247,-6,cs)
);
}
);
};
layerId = "4054872B-F70F-4FA7-B657-FACA7DE5D444";
shapes = (
{
closed = 1;
nodes = (
(388,-6,o),
(480,55,o),
(480,155,cs),
(480,363,o),
(148,264,o),
(148,379,cs),
(148,417,o),
(187,444,o),
(266,444,cs),
(317,444,o),
(368,434,o),
(418,404,c),
(464,491,l),
(417,520,o),
(337,538,o),
(267,538,cs),
(129,538,o),
(39,474,o),
(39,374,cs),
(39,161,o),
(371,261,o),
(371,152,cs),
(371,112,o),
(336,88,o),
(253,88,cs),
(186,88,o),
(114,110,o),
(68,141,c),
(22,54,l),
(68,20,o),
(156,-6,o),
(245,-6,cs)
);
}
);
width = 508;
},
{
anchors = (
{
name = bottom;
position = "{232, 0}";
},
{
name = top;
position = "{232, 517}";
}
);
layerId = "6C677F0D-8978-4FCA-B34D-F7758EC5234D";
shapes = (
{
closed = 1;
nodes = (
(363,-3,o),
(426,53,o),
(426,131,cs),
(426,326,o),
(73,209,o),
(73,387,cs),
(73,451,o),
(121,501,o),
(235,501,cs),
(293,501,o),
(353,484,o),
(394,451,c),
(406,467,l),
(367,499,o),
(299,520,o),
(235,520,cs),
(107,520,o),
(52,456,o),
(52,387,cs),
(52,186,o),
(406,304,o),
(406,131,cs),
(406,63,o),
(357,16,o),
(234,16,cs),
(151,16,o),
(81,48,o),
(44,84,c),
(32,68,l),
(71,27,o),
(150,-3,o),
(234,-3,cs)
);
}
);
width = 463;
}
);
leftKerningGroup = s;
rightKerningGroup = s;
unicode = 115;
}
{
color = 2;
glyphname = t;
layers = (
{
anchors = (
{
name = bottom;
position = "{274, 0}";
},
{
name = center;
position = "{207, 261}";
},
{
name = top;
position = "{188, 670}";
},
{
name = topright;
position = "{349, 742}";
}
);
layerId = "80A23A3A-6F8A-47FF-B13B-1FE7B70F65E8";
shapes = (
{
closed = 1;
nodes = (
(367,-10,o),
(418,-1,o),
(453,19,c),
(399,176,l),
(384,166,o),
(366,161,o),
(348,161,cs),
(321,161,o),
(301,180,o),
(301,214,cs),
(301,670,l),
(75,670,l),
(75,212,ls),
(75,61,o),
(163,-10,o),
(314,-10,cs)
);
},
{
closed = 1;
nodes = (
(413,352,l),
(413,517,l),
(0,517,l),
(0,352,l)
);
}
);
width = 460;
},
{
anchors = (
{
name = bottom;
position = "{255, 0}";
},
{
name = center;
position = "{187, 285}";
},
{
name = top;
position = "{157, 649}";
},
{
name = topright;
position = "{292, 742}";
}
);
background = {
shapes = (
{
closed = 1;
nodes = (
(321,-6,o),
(366,4,o),
(394,27,c),
(363,110,l),
(344,94,o),
(319,86,o),
(292,86,cs),
(241,86,o),
(212,116,o),
(212,170,cs),
(212,649,l),
(102,649,l),
(102,167,ls),
(102,54,o),
(165,-6,o),
(277,-6,cs)
);
},
{
closed = 1;
nodes = (
(360,427,l),
(360,517,l),
(13,517,l),
(13,427,l)
);
}
);
};
layerId = "4054872B-F70F-4FA7-B657-FACA7DE5D444";
shapes = (
{
closed = 1;
nodes = (
(322,-6,o),
(366,6,o),
(396,30,c),
(363,109,l),
(344,94,o),
(318,86,o),
(291,86,cs),
(240,86,o),
(212,116,o),
(212,170,cs),
(212,649,l),
(102,649,l),
(102,167,ls),
(102,54,o),
(166,-6,o),
(278,-6,cs)
);
},
{
closed = 1;
nodes = (
(360,442,l),
(360,532,l),
(13,532,l),
(13,442,l)
);
}
);
width = 419;
},
{
anchors = (
{
name = bottom;
position = "{241, 0}";
},
{
name = center;
position = "{171, 307}";
},
{
name = top;
position = "{133, 630}";
},
{
name = topright;
position = "{248, 742}";
}
);
layerId = "6C677F0D-8978-4FCA-B34D-F7758EC5234D";
shapes = (
{
closed = 1;
nodes = (
(285,-3,o),
(325,9,o),
(349,34,c),
(335,48,l),
(313,27,o),
(282,16,o),
(249,16,cs),
(179,16,o),
(143,56,o),
(143,129,cs),
(143,630,l),
(123,630,l),
(123,124,ls),
(123,48,o),
(166,-3,o),
(248,-3,cs)
);
},
{
closed = 1;
nodes = (
(318,498,l),
(318,517,l),
(23,517,l),
(23,498,l)
);
}
);
width = 388;
}
);
leftKerningGroup = t;
rightKerningGroup = t;
unicode = 116;
}
{
color = 3;
glyphname = u;
layers = (
{
anchors = (
{
name = bottom;
position = "{348, 0}";
},
{
name = ogonek;
position = "{648, 0}";
},
{
name = top;
position = "{348, 547}";
},
{
name = topright;
position = "{535, 547}";
}
);
layerId = "80A23A3A-6F8A-47FF-B13B-1FE7B70F65E8";
shapes = (
{
closed = 1;
nodes = (
(361,-10,o),
(437,30,o),
(476,115,c),
(433,158,l),
(433,0,l),
(648,0,l),
(648,547,l),
(422,547,l),
(422,290,ls),
(422,209,o),
(384,180,o),
(345,180,cs),
(301,180,o),
(274,206,o),
(274,284,cs),
(274,547,l),
(48,547,l),
(48,245,ls),
(48,67,o),
(147,-10,o),
(278,-10,cs)
);
}
);
width = 698;
},
{
anchors = (
{
name = bottom;
position = "{337, 0}";
},
{
name = ogonek;
position = "{592, 0}";
},
{
name = top;
position = "{337, 532}";
},
{
name = topright;
position = "{538, 532}";
}
);
background = {
shapes = (
{
closed = 1;
nodes = (
(429,-6,o),
(518,78,o),
(527,221,c),
(482,262,l),
(482,155,o),
(421,96,o),
(331,96,cs),
(244,96,o),
(192,143,o),
(192,247,cs),
(192,532,l),
(82,532,l),
(82,228,ls),
(82,70,o),
(171,-6,o),
(302,-6,cs)
);
},
{
closed = 1;
nodes = (
(592,0,l),
(592,532,l),
(482,532,l),
(482,184,l),
(487,151,l),
(487,0,l)
);
}
);
};
layerId = "4054872B-F70F-4FA7-B657-FACA7DE5D444";
shapes = (
{
closed = 1;
nodes = (
(395,-6,o),
(469,31,o),
(505,98,c),
(487,142,l),
(487,0,l),
(592,0,l),
(592,532,l),
(482,532,l),
(482,260,ls),
(482,149,o),
(420,92,o),
(326,92,cs),
(241,92,o),
(192,141,o),
(192,240,cs),
(192,532,l),
(82,532,l),
(82,227,ls),
(82,68,o),
(175,-6,o),
(313,-6,cs)
);
}
);
width = 679;
},
{
anchors = (
{
name = bottom;
position = "{329, 0}";
},
{
name = ogonek;
position = "{549, 0}";
},
{
name = top;
position = "{329, 517}";
},
{
name = topright;
position = "{540, 517}";
}
);
layerId = "6C677F0D-8978-4FCA-B34D-F7758EC5234D";
shapes = (
{
closed = 1;
nodes = (
(428,-3,o),
(502,53,o),
(531,143,c),
(529,146,l),
(529,0,l),
(549,0,l),
(549,517,l),
(529,517,l),
(529,236,ls),
(529,105,o),
(450,16,o),
(320,16,cs),
(199,16,o),
(129,84,o),
(129,212,cs),
(129,517,l),
(109,517,l),
(109,212,ls),
(109,72,o),
(190,-3,o),
(321,-3,cs)
);
}
);
width = 664;
}
);
leftKerningGroup = u;
rightKerningGroup = u;
unicode = 117;
}
{
glyphname = v;
layers = (
{
anchors = (
{
name = bottom;
position = "{322, 0}";
},
{
name = top;
position = "{322, 547}";
}
);
layerId = "80A23A3A-6F8A-47FF-B13B-1FE7B70F65E8";
shapes = (
{
closed = 1;
nodes = (
(439,0,l),
(659,547,l),
(445,547,l),
(267,103,l),
(384,103,l),
(217,547,l),
(-15,547,l),
(205,0,l)
);
}
);
width = 644;
},
{
anchors = (
{
name = bottom;
position = "{284, 0}";
},
{
name = top;
position = "{284, 532}";
}
);
background = {
shapes = (
{
closed = 1;
nodes = (
(340,0,l),
(571,532,l),
(464,532,l),
(257,57,l),
(313,57,l),
(111,532,l),
(-3,532,l),
(227,0,l)
);
}
);
};
layerId = "4054872B-F70F-4FA7-B657-FACA7DE5D444";
shapes = (
{
closed = 1;
nodes = (
(340,0,l),
(571,532,l),
(464,532,l),
(257,57,l),
(313,57,l),
(111,532,l),
(-3,532,l),
(227,0,l)
);
}
);
width = 568;
},
{
anchors = (
{
name = bottom;
position = "{254, 0}";
},
{
name = top;
position = "{254, 517}";
}
);
layerId = "6C677F0D-8978-4FCA-B34D-F7758EC5234D";
shapes = (
{
closed = 1;
nodes = (
(264,0,l),
(502,517,l),
(479,517,l),
(250,14,l),
(258,14,l),
(29,517,l),
(6,517,l),
(244,0,l)
);
}
);
width = 508;
}
);
leftKerningGroup = v;
rightKerningGroup = v;
unicode = 118;
}
{
glyphname = w;
layers = (
{
anchors = (
{
name = bottom;
position = "{520, 0}";
},
{
name = top;
position = "{520, 547}";
}
);
layerId = "938F5392-03DB-411D-B87C-DA104766E68B";
name = Bold.Jacques;
shapes = (
{
closed = 1;
nodes = (
(430,0,l),
(557,352,l),
(487,352,l),
(610,0,l),
(844,0,l),
(1046,547,l),
(835,547,l),
(671,103,l),
(783,103,l),
(630,547,l),
(425,547,l),
(261,103,l),
(374,103,l),
(221,547,l),
(-6,547,l),
(196,0,l)
);
}
);
width = 1040;
},
{
anchors = (
{
name = bottom;
position = "{464, 0}";
},
{
name = top;
position = "{464, 517}";
}
);
layerId = "749AF212-EC33-4A0D-8689-C02801C79E24";
name = Light.Jacques;
shapes = (
{
closed = 1;
nodes = (
(253,0,l),
(468,498,l),
(460,498,l),
(675,0,l),
(695,0,l),
(915,517,l),
(892,517,l),
(681,14,l),
(689,14,l),
(474,517,l),
(454,517,l),
(239,14,l),
(247,14,l),
(36,517,l),
(13,517,l),
(233,0,l)
);
}
);
width = 928;
},
{
anchors = (
{
name = top;
position = "{438, 517}";
}
);
layerId = "A21A2123-DD84-4B37-8E55-82388BE3A895";
name = Light.Bold;
shapes = (
{
closed = 1;
nodes = (
(195,544,l),
(0,544,l),
(175,31,l),
(361,4,l),
(441,236,l),
(453,189,l),
(469,125,o),
(492,66,o),
(512,4,c),
(700,31,l),
(875,544,l),
(679,544,l),
(596,268,l),
(590,294,o),
(585,323,o),
(581,350,c),
(560,419,o),
(539,489,o),
(518,558,c),
(346,528,l),
(267,268,l),
(261,294,o),
(256,323,o),
(252,350,c)
);
}
);
width = 875;
},
{
anchors = (
{
name = bottom;
position = "{489, 0}";
},
{
name = top;
position = "{489, 547}";
}
);
layerId = "80A23A3A-6F8A-47FF-B13B-1FE7B70F65E8";
shapes = (
{
closed = 1;
nodes = (
(404,0,l),
(524,352,l),
(458,352,l),
(573,0,l),
(793,0,l),
(983,547,l),
(785,547,l),
(636,103,l),
(736,103,l),
(592,547,l),
(400,547,l),
(249,103,l),
(352,103,l),
(208,547,l),
(-6,547,l),
(184,0,l)
);
}
);
width = 977;
},
{
anchors = (
{
name = bottom;
position = "{488, 0}";
},
{
name = top;
position = "{488, 532}";
}
);
layerId = "D1F2D44E-66E4-4A29-B01C-63AA6F0583A7";
associatedMasterId = "4054872B-F70F-4FA7-B657-FACA7DE5D444";
name = Jacques;
shapes = (
{
closed = 1;
nodes = (
(330,0,l),
(507,427,l),
(472,427,l),
(647,0,l),
(760,0,l),
(972,532,l),
(867,532,l),
(677,57,l),
(730,57,l),
(542,532,l),
(441,532,l),
(249,57,l),
(302,57,l),
(117,532,l),
(5,532,l),
(217,0,l)
);
}
);
width = 977;
},
{
anchors = (
{
name = bottom;
position = "{452, 0}";
},
{
name = top;
position = "{452, 530}";
}
);
background = {
shapes = (
{
closed = 1;
nodes = (
(330,0,l),
(507,427,l),
(472,427,l),
(647,0,l),
(760,0,l),
(972,532,l),
(867,532,l),
(677,57,l),
(730,57,l),
(542,532,l),
(441,532,l),
(249,57,l),
(302,57,l),
(117,532,l),
(5,532,l),
(217,0,l)
);
}
);
};
layerId = "4054872B-F70F-4FA7-B657-FACA7DE5D444";
shapes = (
{
closed = 1;
nodes = (
(307,0,l),
(472,427,l),
(440,427,l),
(602,0,l),
(707,0,l),
(905,532,l),
(807,532,l),
(630,57,l),
(679,57,l),
(504,532,l),
(411,532,l),
(232,57,l),
(281,57,l),
(109,532,l),
(5,532,l),
(202,0,l)
);
}
);
width = 910;
},
{
anchors = (
{
name = bottom;
position = "{419, 0}";
},
{
name = top;
position = "{419, 517}";
}
);
layerId = "6C677F0D-8978-4FCA-B34D-F7758EC5234D";
shapes = (
{
closed = 1;
nodes = (
(228,0,l),
(422,498,l),
(415,498,l),
(609,0,l),
(627,0,l),
(826,517,l),
(805,517,l),
(614,14,l),
(622,14,l),
(428,517,l),
(409,517,l),
(215,14,l),
(223,14,l),
(32,517,l),
(12,517,l),
(211,0,l)
);
}
);
width = 838;
}
);
leftKerningGroup = v;
rightKerningGroup = v;
unicode = 119;
}
{
color = 3;
glyphname = x;
layers = (
{
layerId = "80A23A3A-6F8A-47FF-B13B-1FE7B70F65E8";
shapes = (
{
closed = 1;
nodes = (
(236,0,l),
(365,180,l),
(270,193,l),
(395,0,l),
(654,0,l),
(402,344,l),
(402,219,l),
(649,547,l),
(412,547,l),
(279,359,l),
(373,366,l),
(252,547,l),
(-3,547,l),
(243,208,l),
(249,338,l),
(-9,0,l)
);
}
);
width = 645;
},
{
background = {
shapes = (
{
closed = 1;
nodes = (
(420,532,l),
(12,0,l),
(134,0,l),
(540,532,l)
);
},
{
closed = 1;
nodes = (
(426,0,l),
(550,0,l),
(143,532,l),
(21,532,l)
);
}
);
};
layerId = "4054872B-F70F-4FA7-B657-FACA7DE5D444";
shapes = (
{
closed = 1;
nodes = (
(134,0,l),
(301,221,l),
(255,227,l),
(426,0,l),
(550,0,l),
(318,300,l),
(317,242,l),
(540,532,l),
(420,532,l),
(258,319,l),
(305,318,l),
(143,532,l),
(21,532,l),
(242,244,l),
(243,301,l),
(12,0,l)
);
}
);
width = 562;
},
{
layerId = "6C677F0D-8978-4FCA-B34D-F7758EC5234D";
shapes = (
{
closed = 1;
nodes = (
(53,0,l),
(251,256,l),
(246,256,l),
(444,0,l),
(470,0,l),
(256,273,l),
(255,261,l),
(455,517,l),
(431,517,l),
(244,277,l),
(252,277,l),
(65,517,l),
(40,517,l),
(238,265,l),
(239,272,l),
(28,0,l)
);
}
);
width = 498;
}
);
leftKerningGroup = x;
rightKerningGroup = x;
unicode = 120;
}
{
glyphname = z;
layers = (
{
anchors = (
{
name = bottom;
position = "{290, 0}";
},
{
name = top;
position = "{290, 547}";
}
);
layerId = "80A23A3A-6F8A-47FF-B13B-1FE7B70F65E8";
shapes = (
{
closed = 1;
nodes = (
(552,0,l),
(552,165,l),
(213,165,l),
(250,93,l),
(541,417,l),
(541,547,l),
(38,547,l),
(38,382,l),
(358,382,l),
(321,454,l),
(30,130,l),
(30,0,l)
);
}
);
width = 570;
},
{
anchors = (
{
name = bottom;
position = "{270, 0}";
},
{
name = top;
position = "{265, 532}";
}
);
background = {
shapes = (
{
closed = 1;
nodes = (
(491,0,l),
(491,90,l),
(125,90,l),
(148,52,l),
(483,461,l),
(483,532,l),
(45,532,l),
(45,442,l),
(395,442,l),
(374,480,l),
(39,71,l),
(39,0,l)
);
}
);
};
layerId = "4054872B-F70F-4FA7-B657-FACA7DE5D444";
shapes = (
{
closed = 1;
nodes = (
(491,0,l),
(491,90,l),
(125,90,l),
(148,52,l),
(483,461,l),
(483,532,l),
(45,532,l),
(45,442,l),
(395,442,l),
(374,480,l),
(39,71,l),
(39,0,l)
);
}
);
width = 526;
},
{
anchors = (
{
name = bottom;
position = "{255, 0}";
},
{
name = top;
position = "{245, 517}";
}
);
layerId = "6C677F0D-8978-4FCA-B34D-F7758EC5234D";
shapes = (
{
closed = 1;
nodes = (
(443,0,l),
(443,19,l),
(57,19,l),
(69,13,l),
(438,502,l),
(438,517,l),
(51,517,l),
(51,498,l),
(423,498,l),
(415,504,l),
(46,15,l),
(46,0,l)
);
}
);
width = 491;
}
);
leftKerningGroup = z;
rightKerningGroup = z;
unicode = 122;
}
{
color = 3;
glyphname = braceleft;
layers = (
{
layerId = "80A23A3A-6F8A-47FF-B13B-1FE7B70F65E8";
shapes = (
{
closed = 1;
nodes = (
(428,-194,l),
(428,-24,l),
(418,-24,ls),
(371,-24,o),
(347,1,o),
(347,45,cs),
(347,140,ls),
(347,250,o),
(300,278,o),
(192,286,c),
(192,262,l),
(300,270,o),
(347,298,o),
(347,408,cs),
(347,503,ls),
(347,547,o),
(371,572,o),
(418,572,cs),
(428,572,l),
(428,742,l),
(354,742,ls),
(199,742,o),
(121,664,o),
(121,529,cs),
(121,403,ls),
(121,373,o),
(103,359,o),
(78,359,cs),
(45,359,l),
(45,189,l),
(78,189,ls),
(103,189,o),
(121,175,o),
(121,145,cs),
(121,19,ls),
(121,-116,o),
(199,-194,o),
(354,-194,cs)
);
}
);
width = 438;
},
{
background = {
shapes = (
{
closed = 1;
nodes = (
(342,-194,l),
(342,-102,l),
(319,-102,ls),
(269,-102,o),
(245,-74,o),
(245,-25,cs),
(245,177,ls),
(245,251,o),
(217,272,o),
(156,281,c),
(156,267,l),
(217,276,o),
(245,297,o),
(245,371,cs),
(245,573,ls),
(245,622,o),
(269,650,o),
(319,650,cs),
(342,650,l),
(342,742,l),
(295,742,ls),
(189,742,o),
(135,688,o),
(135,586,cs),
(135,369,ls),
(135,335,o),
(118,320,o),
(90,320,cs),
(56,320,l),
(56,228,l),
(90,228,ls),
(118,228,o),
(135,213,o),
(135,179,cs),
(135,-38,ls),
(135,-140,o),
(189,-194,o),
(295,-194,cs)
);
}
);
};
layerId = "4054872B-F70F-4FA7-B657-FACA7DE5D444";
shapes = (
{
closed = 1;
nodes = (
(342,-194,l),
(342,-104,l),
(319,-104,ls),
(269,-104,o),
(245,-76,o),
(245,-27,cs),
(245,177,ls),
(245,251,o),
(217,272,o),
(156,281,c),
(156,267,l),
(217,276,o),
(245,297,o),
(245,371,cs),
(245,575,ls),
(245,624,o),
(269,652,o),
(319,652,cs),
(342,652,l),
(342,742,l),
(295,742,ls),
(189,742,o),
(135,688,o),
(135,586,cs),
(135,369,ls),
(135,335,o),
(118,320,o),
(90,320,cs),
(56,320,l),
(56,228,l),
(90,228,ls),
(118,228,o),
(135,213,o),
(135,179,cs),
(135,-38,ls),
(135,-140,o),
(189,-194,o),
(295,-194,cs)
);
}
);
width = 360;
},
{
layerId = "6C677F0D-8978-4FCA-B34D-F7758EC5234D";
shapes = (
{
closed = 1;
nodes = (
(275,-194,l),
(275,-175,l),
(243,-175,ls),
(189,-175,o),
(165,-145,o),
(165,-92,cs),
(165,212,ls),
(165,252,o),
(153,267,o),
(128,276,c),
(128,272,l),
(153,281,o),
(165,296,o),
(165,336,cs),
(165,640,ls),
(165,693,o),
(189,723,o),
(243,723,cs),
(275,723,l),
(275,742,l),
(250,742,ls),
(181,742,o),
(145,710,o),
(145,640,cs),
(145,336,ls),
(145,299,o),
(129,284,o),
(100,284,cs),
(65,284,l),
(65,265,l),
(100,265,ls),
(129,265,o),
(145,249,o),
(145,212,cs),
(145,-92,ls),
(145,-162,o),
(181,-194,o),
(250,-194,cs)
);
}
);
width = 300;
}
);
leftKerningGroup = braceleft;
rightKerningGroup = braceleft;
unicode = 123;
}
{
glyphname = bar;
layers = (
{
layerId = "80A23A3A-6F8A-47FF-B13B-1FE7B70F65E8";
shapes = (
{
closed = 1;
nodes = (
(263,-194,l),
(263,742,l),
(57,742,l),
(57,-194,l)
);
}
);
width = 320;
},
{
background = {
shapes = (
{
closed = 1;
nodes = (
(201,-194,l),
(201,742,l),
(100,742,l),
(100,-194,l)
);
}
);
};
layerId = "4054872B-F70F-4FA7-B657-FACA7DE5D444";
shapes = (
{
closed = 1;
nodes = (
(201,-194,l),
(201,742,l),
(100,742,l),
(100,-194,l)
);
}
);
width = 301;
},
{
layerId = "6C677F0D-8978-4FCA-B34D-F7758EC5234D";
shapes = (
{
closed = 1;
nodes = (
(153,-194,l),
(153,742,l),
(133,742,l),
(133,-194,l)
);
}
);
width = 286;
}
);
leftKerningGroup = bar;
rightKerningGroup = bar;
unicode = 124;
}
{
glyphname = exclamdown;
layers = (
{
layerId = "80A23A3A-6F8A-47FF-B13B-1FE7B70F65E8";
shapes = (
{
closed = 1;
nodes = (
(67,279,l),
(22,-154,l),
(292,-154,l),
(247,279,l)
);
},
{
closed = 1;
nodes = (
(79,557,o),
(25,503,o),
(25,437,cs),
(25,370,o),
(79,319,o),
(157,319,cs),
(235,319,o),
(289,370,o),
(289,437,cs),
(289,503,o),
(235,557,o),
(157,557,cs)
);
}
);
width = 314;
},
{
background = {
shapes = (
{
closed = 1;
nodes = (
(93,305,l),
(72,-154,l),
(202,-154,l),
(180,305,l)
);
},
{
closed = 1;
nodes = (
(95,538,o),
(64,506,o),
(64,466,cs),
(64,427,o),
(95,396,o),
(137,396,cs),
(179,396,o),
(209,427,o),
(209,466,cs),
(209,506,o),
(179,538,o),
(137,538,cs)
);
}
);
};
layerId = "4054872B-F70F-4FA7-B657-FACA7DE5D444";
shapes = (
{
closed = 1;
nodes = (
(93,305,l),
(72,-154,l),
(202,-154,l),
(180,305,l)
);
},
{
closed = 1;
nodes = (
(95,538,o),
(64,506,o),
(64,466,cs),
(64,427,o),
(95,396,o),
(137,396,cs),
(179,396,o),
(209,427,o),
(209,466,cs),
(209,506,o),
(179,538,o),
(137,538,cs)
);
}
);
width = 273;
},
{
layerId = "6C677F0D-8978-4FCA-B34D-F7758EC5234D";
shapes = (
{
closed = 1;
nodes = (
(114,329,l),
(110,-154,l),
(132,-154,l),
(128,329,l)
);
},
{
closed = 1;
nodes = (
(107,520,o),
(95,508,o),
(95,494,cs),
(95,480,o),
(107,468,o),
(121,468,cs),
(135,468,o),
(147,480,o),
(147,494,cs),
(147,508,o),
(135,520,o),
(121,520,cs)
);
}
);
width = 242;
}
);
leftKerningGroup = exclamdown;
rightKerningGroup = exclamdown;
unicode = 161;
}
{
color = 9;
glyphname = cent;
layers = (
{
hints = (
{
place = (229,166);
type = Stem;
}
);
layerId = "37E10046-B8F4-4DE9-A08E-272083166BA5";
name = "Bold.Bold [179]";
shapes = (
{
closed = 1;
nodes = (
(477,-10,o),
(577,51,o),
(613,152,c),
(438,238,l),
(415,187,o),
(382,166,o),
(343,166,cs),
(292,166,o),
(250,202,o),
(250,274,cs),
(250,345,o),
(292,381,o),
(343,381,cs),
(382,381,o),
(415,360,o),
(438,309,c),
(613,395,l),
(577,496,o),
(477,557,o),
(344,557,cs),
(155,557,o),
(21,440,o),
(21,274,cs),
(21,107,o),
(155,-10,o),
(344,-10,cs)
);
},
{
closed = 1;
nodes = (
(404,-120,l),
(404,10,l),
(263,10,l),
(263,-120,l)
);
},
{
closed = 1;
nodes = (
(404,537,l),
(404,667,l),
(263,667,l),
(263,537,l)
);
}
);
width = 615;
},
{
hints = (
{
place = (229,166);
type = Stem;
}
);
layerId = "80A23A3A-6F8A-47FF-B13B-1FE7B70F65E8";
shapes = (
{
closed = 1;
nodes = (
(404,-120,l),
(404,667,l),
(263,667,l),
(263,-120,l)
);
},
{
closed = 1;
nodes = (
(477,-10,o),
(577,51,o),
(613,152,c),
(438,238,l),
(415,187,o),
(382,166,o),
(343,166,cs),
(292,166,o),
(250,202,o),
(250,274,cs),
(250,345,o),
(292,381,o),
(343,381,cs),
(382,381,o),
(415,360,o),
(438,309,c),
(613,395,l),
(577,496,o),
(477,557,o),
(344,557,cs),
(155,557,o),
(21,440,o),
(21,274,cs),
(21,107,o),
(155,-10,o),
(344,-10,cs)
);
}
);
width = 615;
},
{
hints = (
{
place = (265,83);
type = Stem;
}
);
layerId = "0097CFEF-E10B-4F3C-BBA2-00192E54B35A";
associatedMasterId = "4054872B-F70F-4FA7-B657-FACA7DE5D444";
name = "SemiBold [179]";
shapes = (
{
closed = 1;
nodes = (
(424,-6,o),
(505,36,o),
(546,113,c),
(462,165,l),
(429,113,o),
(379,90,o),
(323,90,cs),
(225,90,o),
(151,157,o),
(151,266,cs),
(151,374,o),
(225,442,o),
(323,442,cs),
(379,442,o),
(429,418,o),
(462,367,c),
(546,419,l),
(505,497,o),
(424,538,o),
(324,538,cs),
(159,538,o),
(40,425,o),
(40,266,cs),
(40,107,o),
(159,-6,o),
(324,-6,cs)
);
},
{
closed = 1;
nodes = (
(352,-120,l),
(352,25,l),
(280,25,l),
(280,-120,l)
);
},
{
closed = 1;
nodes = (
(352,485,l),
(352,652,l),
(280,652,l),
(280,485,l)
);
}
);
width = 576;
},
{
background = {
shapes = (
{
closed = 1;
nodes = (
(352,-120,l),
(352,652,l),
(280,652,l),
(280,-120,l)
);
},
{
closed = 1;
nodes = (
(424,-6,o),
(505,38,o),
(546,115,c),
(462,165,l),
(429,112,o),
(379,89,o),
(323,89,cs),
(225,89,o),
(151,157,o),
(151,266,cs),
(151,374,o),
(225,443,o),
(323,443,cs),
(379,443,o),
(429,419,o),
(462,367,c),
(546,416,l),
(505,494,o),
(424,538,o),
(324,538,cs),
(158,538,o),
(40,426,o),
(40,266,cs),
(40,106,o),
(158,-6,o),
(324,-6,cs)
);
}
);
};
hints = (
{
place = (265,83);
type = Stem;
}
);
layerId = "4054872B-F70F-4FA7-B657-FACA7DE5D444";
shapes = (
{
closed = 1;
nodes = (
(352,-120,l),
(352,652,l),
(280,652,l),
(280,-120,l)
);
},
{
closed = 1;
nodes = (
(424,-6,o),
(505,36,o),
(546,113,c),
(462,165,l),
(429,113,o),
(379,90,o),
(323,90,cs),
(225,90,o),
(151,157,o),
(151,266,cs),
(151,374,o),
(225,442,o),
(323,442,cs),
(379,442,o),
(429,418,o),
(462,367,c),
(546,419,l),
(505,497,o),
(424,538,o),
(324,538,cs),
(159,538,o),
(40,425,o),
(40,266,cs),
(40,107,o),
(159,-6,o),
(324,-6,cs)
);
}
);
width = 576;
},
{
hints = (
{
place = (294,20);
type = Stem;
}
);
layerId = "6C677F0D-8978-4FCA-B34D-F7758EC5234D";
shapes = (
{
closed = 1;
nodes = (
(312,-120,l),
(312,637,l),
(293,637,l),
(293,-120,l)
);
},
{
closed = 1;
nodes = (
(382,-3,o),
(450,25,o),
(494,81,c),
(480,96,l),
(440,42,o),
(377,16,o),
(308,16,cs),
(173,16,o),
(74,115,o),
(74,259,cs),
(74,402,o),
(173,501,o),
(308,501,cs),
(377,501,o),
(440,475,o),
(480,421,c),
(494,436,l),
(450,492,o),
(382,520,o),
(308,520,cs),
(161,520,o),
(54,413,o),
(54,259,cs),
(54,105,o),
(161,-3,o),
(308,-3,cs)
);
}
);
width = 545;
}
);
leftKerningGroup = o;
rightKerningGroup = c;
unicode = 162;
}
{
color = 3;
glyphname = sterling;
layers = (
{
layerId = "80A23A3A-6F8A-47FF-B13B-1FE7B70F65E8";
shapes = (
{
closed = 1;
nodes = (
(356,20,l),
(356,405,ls),
(356,488,o),
(408,525,o),
(497,525,cs),
(533,525,o),
(578,516,o),
(617,495,c),
(685,673,l),
(634,700,o),
(559,716,o),
(477,716,cs),
(250,716,o),
(120,603,o),
(120,400,cs),
(120,20,l)
);
},
{
closed = 1;
nodes = (
(660,0,l),
(660,178,l),
(30,178,l),
(30,0,l)
);
},
{
closed = 1;
nodes = (
(566,284,l),
(566,416,l),
(30,416,l),
(30,284,l)
);
}
);
width = 694;
},
{
background = {
shapes = (
{
closed = 1;
nodes = (
(251,15,l),
(251,443,ls),
(251,549,o),
(313,607,o),
(440,607,cs),
(497,607,o),
(554,594,o),
(600,562,c),
(637,657,l),
(585,692,o),
(512,709,o),
(431,709,cs),
(238,709,o),
(137,608,o),
(137,442,cs),
(137,15,l)
);
},
{
closed = 1;
nodes = (
(621,0,l),
(621,96,l),
(30,96,l),
(30,0,l)
);
},
{
closed = 1;
nodes = (
(511,313,l),
(511,387,l),
(30,387,l),
(30,313,l)
);
}
);
};
layerId = "4054872B-F70F-4FA7-B657-FACA7DE5D444";
shapes = (
{
closed = 1;
nodes = (
(251,15,l),
(251,443,ls),
(251,549,o),
(313,607,o),
(430,607,cs),
(497,607,o),
(554,596,o),
(600,566,c),
(637,661,l),
(583,694,o),
(522,709,o),
(441,709,cs),
(248,709,o),
(137,603,o),
(137,442,cs),
(137,15,l)
);
},
{
closed = 1;
nodes = (
(621,0,l),
(621,99,l),
(30,99,l),
(30,0,l)
);
},
{
closed = 1;
nodes = (
(511,313,l),
(511,387,l),
(30,387,l),
(30,313,l)
);
}
);
width = 651;
},
{
layerId = "6C677F0D-8978-4FCA-B34D-F7758EC5234D";
shapes = (
{
closed = 1;
nodes = (
(170,10,l),
(170,479,ls),
(170,607,o),
(240,684,o),
(395,684,cs),
(469,684,o),
(535,667,o),
(587,626,c),
(600,642,l),
(547,684,o),
(475,703,o),
(395,703,cs),
(228,703,o),
(150,613,o),
(150,482,cs),
(150,10,l)
);
},
{
closed = 1;
nodes = (
(590,0,l),
(590,19,l),
(30,19,l),
(30,0,l)
);
},
{
closed = 1;
nodes = (
(469,341,l),
(469,359,l),
(30,359,l),
(30,341,l)
);
}
);
width = 618;
}
);
leftKerningGroup = lira;
rightKerningGroup = F.ss01;
unicode = 163;
}
{
color = 3;
glyphname = currency;
layers = (
{
layerId = "A21A2123-DD84-4B37-8E55-82388BE3A895";
name = Light.Bold;
shapes = (
{
closed = 1;
nodes = (
(677,550,l),
(552,663,l),
(515,627,l),
(465,575,l),
(427,592,o),
(385,601,o),
(338,601,cs),
(293,601,o),
(252,591,o),
(213,576,c),
(144,645,l),
(125,663,l),
(0,550,l),
(87,462,l),
(62,419,o),
(50,371,o),
(50,319,cs),
(50,265,o),
(63,216,o),
(89,174,c),
(0,82,l),
(124,-31,l),
(133,-22,o),
(144,-14,o),
(153,-4,c),
(216,63,l),
(253,46,o),
(294,37,o),
(338,37,cs),
(382,37,o),
(424,48,o),
(463,63,c),
(553,-32,l),
(593,8,o),
(631,48,o),
(670,89,c),
(589,173,l),
(614,215,o),
(628,267,o),
(628,319,cs),
(628,371,o),
(615,420,o),
(592,461,c)
);
},
{
closed = 1;
nodes = (
(392,437,o),
(431,389,o),
(431,319,cs),
(431,249,o),
(392,200,o),
(338,200,cs),
(284,200,o),
(245,249,o),
(245,319,cs),
(245,389,o),
(284,437,o),
(338,437,cs)
);
}
);
width = 677;
},
{
layerId = "80A23A3A-6F8A-47FF-B13B-1FE7B70F65E8";
shapes = (
{
closed = 1;
nodes = (
(250,542,l),
(143,649,l),
(18,524,l),
(125,417,l)
);
},
{
closed = 1;
nodes = (
(250,93,l),
(125,218,l),
(18,111,l),
(143,-14,l)
);
},
{
closed = 1;
nodes = (
(681,111,l),
(574,218,l),
(449,93,l),
(556,-14,l)
);
},
{
closed = 1;
nodes = (
(681,524,l),
(556,649,l),
(449,542,l),
(574,417,l)
);
},
{
closed = 1;
nodes = (
(489,69,o),
(603,183,o),
(603,323,cs),
(603,463,o),
(490,577,o),
(349,577,cs),
(209,577,o),
(95,463,o),
(95,323,cs),
(95,183,o),
(209,69,o),
(349,69,cs)
);
},
{
closed = 1;
nodes = (
(305,244,o),
(270,279,o),
(270,323,cs),
(270,367,o),
(305,403,o),
(349,403,cs),
(393,403,o),
(429,367,o),
(429,323,cs),
(429,279,o),
(393,244,o),
(349,244,cs)
);
}
);
width = 700;
},
{
background = {
shapes = (
{
closed = 1;
nodes = (
(207,525,l),
(92,639,l),
(30,571,l),
(144,457,l)
);
},
{
closed = 1;
nodes = (
(207,110,l),
(144,178,l),
(30,64,l),
(92,-4,l)
);
},
{
closed = 1;
nodes = (
(670,64,l),
(555,178,l),
(492,110,l),
(607,-4,l)
);
},
{
closed = 1;
nodes = (
(670,571,l),
(607,639,l),
(492,525,l),
(555,457,l)
);
},
{
closed = 1;
nodes = (
(499,57,o),
(620,175,o),
(620,319,cs),
(620,465,o),
(499,583,o),
(350,583,cs),
(202,583,o),
(81,465,o),
(81,319,cs),
(81,175,o),
(202,57,o),
(350,57,cs)
);
},
{
closed = 1;
nodes = (
(250,152,o),
(169,228,o),
(169,319,cs),
(169,412,o),
(250,488,o),
(350,488,cs),
(450,488,o),
(533,412,o),
(533,319,cs),
(533,228,o),
(450,152,o),
(350,152,cs)
);
}
);
};
layerId = "4054872B-F70F-4FA7-B657-FACA7DE5D444";
shapes = (
{
closed = 1;
nodes = (
(207,525,l),
(92,639,l),
(30,571,l),
(144,457,l)
);
},
{
closed = 1;
nodes = (
(207,110,l),
(144,178,l),
(30,64,l),
(92,-4,l)
);
},
{
closed = 1;
nodes = (
(670,64,l),
(555,178,l),
(492,110,l),
(607,-4,l)
);
},
{
closed = 1;
nodes = (
(670,571,l),
(607,639,l),
(492,525,l),
(555,457,l)
);
},
{
closed = 1;
nodes = (
(499,57,o),
(620,175,o),
(620,319,cs),
(620,465,o),
(499,583,o),
(350,583,cs),
(202,583,o),
(81,465,o),
(81,319,cs),
(81,175,o),
(202,57,o),
(350,57,cs)
);
},
{
closed = 1;
nodes = (
(251,147,o),
(170,225,o),
(170,319,cs),
(170,415,o),
(251,493,o),
(350,493,cs),
(449,493,o),
(532,415,o),
(532,319,cs),
(532,225,o),
(449,147,o),
(350,147,cs)
);
}
);
width = 700;
},
{
layerId = "6C677F0D-8978-4FCA-B34D-F7758EC5234D";
shapes = (
{
closed = 1;
nodes = (
(174,508,l),
(53,629,l),
(39,615,l),
(159,494,l)
);
},
{
closed = 1;
nodes = (
(174,127,l),
(159,141,l),
(39,20,l),
(53,6,l)
);
},
{
closed = 1;
nodes = (
(661,20,l),
(541,141,l),
(526,127,l),
(647,6,l)
);
},
{
closed = 1;
nodes = (
(661,615,l),
(647,629,l),
(526,508,l),
(541,494,l)
);
},
{
closed = 1;
nodes = (
(506,46,o),
(633,168,o),
(633,316,cs),
(633,466,o),
(506,589,o),
(350,589,cs),
(196,589,o),
(70,466,o),
(70,316,cs),
(70,168,o),
(196,46,o),
(350,46,cs)
);
},
{
closed = 1;
nodes = (
(207,66,o),
(90,179,o),
(90,316,cs),
(90,455,o),
(207,569,o),
(350,569,cs),
(495,569,o),
(613,455,o),
(613,316,cs),
(613,179,o),
(495,66,o),
(350,66,cs)
);
}
);
width = 700;
}
);
leftKerningGroup = currency;
rightKerningGroup = currency;
unicode = 164;
}
{
color = 3;
glyphname = yen;
layers = (
{
layerId = "80A23A3A-6F8A-47FF-B13B-1FE7B70F65E8";
shapes = (
{
closed = 1;
nodes = (
(503,0,l),
(503,307,l),
(451,166,l),
(797,700,l),
(566,700,l),
(319,329,l),
(470,329,l),
(225,700,l),
(-27,700,l),
(321,166,l),
(267,307,l),
(267,0,l)
);
},
{
closed = 1;
nodes = (
(663,60,l),
(663,172,l),
(107,172,l),
(107,60,l)
);
},
{
closed = 1;
nodes = (
(663,198,l),
(663,310,l),
(107,310,l),
(107,198,l)
);
}
);
width = 770;
},
{
background = {
shapes = (
{
closed = 1;
nodes = (
(414,0,l),
(414,305,l),
(388,229,l),
(720,700,l),
(606,700,l),
(326,319,l),
(396,319,l),
(117,700,l),
(-6,700,l),
(326,229,l),
(300,305,l),
(300,0,l)
);
},
{
closed = 1;
nodes = (
(619,110,l),
(619,174,l),
(95,174,l),
(95,110,l)
);
},
{
closed = 1;
nodes = (
(619,248,l),
(619,312,l),
(95,312,l),
(95,248,l)
);
}
);
};
layerId = "4054872B-F70F-4FA7-B657-FACA7DE5D444";
shapes = (
{
closed = 1;
nodes = (
(414,0,l),
(414,305,l),
(388,229,l),
(720,700,l),
(604,700,l),
(324,303,l),
(394,303,l),
(115,700,l),
(-6,700,l),
(326,229,l),
(300,305,l),
(300,0,l)
);
},
{
closed = 1;
nodes = (
(619,110,l),
(619,174,l),
(95,174,l),
(95,110,l)
);
},
{
closed = 1;
nodes = (
(619,248,l),
(619,312,l),
(95,312,l),
(95,248,l)
);
}
);
width = 714;
},
{
layerId = "6C677F0D-8978-4FCA-B34D-F7758EC5234D";
shapes = (
{
closed = 1;
nodes = (
(345,0,l),
(345,303,l),
(340,288,l),
(660,700,l),
(637,700,l),
(331,309,l),
(339,309,l),
(33,700,l),
(10,700,l),
(330,288,l),
(325,303,l),
(325,0,l)
);
},
{
closed = 1;
nodes = (
(585,157,l),
(585,175,l),
(85,175,l),
(85,157,l)
);
},
{
closed = 1;
nodes = (
(585,295,l),
(585,313,l),
(85,313,l),
(85,295,l)
);
}
);
width = 670;
}
);
leftKerningGroup = yen;
rightKerningGroup = yen;
unicode = 165;
}
{
color = 3;
glyphname = copyright;
layers = (
{
layerId = "80A23A3A-6F8A-47FF-B13B-1FE7B70F65E8";
shapes = (
{
closed = 1;
nodes = (
(580,-3,o),
(735,153,o),
(735,352,cs),
(735,551,o),
(584,703,o),
(383,703,cs),
(182,703,o),
(29,547,o),
(29,350,cs),
(29,153,o),
(182,-3,o),
(381,-3,cs)
);
},
{
closed = 1;
nodes = (
(231,85,o),
(123,200,o),
(123,350,cs),
(123,500,o),
(231,615,o),
(383,615,cs),
(535,615,o),
(641,503,o),
(641,352,cs),
(641,201,o),
(531,85,o),
(381,85,cs)
);
},
{
closed = 1;
nodes = (
(486,152,o),
(553,195,o),
(577,265,c),
(449,330,l),
(436,301,o),
(418,290,o),
(396,290,cs),
(370,290,o),
(345,310,o),
(345,350,cs),
(345,390,o),
(370,410,o),
(396,410,cs),
(418,410,o),
(436,399,o),
(449,370,c),
(577,435,l),
(553,505,o),
(486,548,o),
(397,548,cs),
(271,548,o),
(181,466,o),
(181,350,cs),
(181,234,o),
(271,152,o),
(397,152,cs)
);
}
);
width = 764;
},
{
background = {
shapes = (
{
closed = 1;
nodes = (
(597,-3,o),
(752,153,o),
(752,352,cs),
(752,551,o),
(601,703,o),
(400,703,cs),
(199,703,o),
(46,547,o),
(46,350,cs),
(46,153,o),
(199,-3,o),
(398,-3,cs)
);
},
{
closed = 1;
nodes = (
(226,49,o),
(98,181,o),
(98,350,cs),
(98,519,o),
(226,651,o),
(400,651,cs),
(573,651,o),
(700,522,o),
(700,352,cs),
(700,182,o),
(569,49,o),
(398,49,cs)
);
},
{
closed = 1;
nodes = (
(482,145,o),
(542,178,o),
(573,235,c),
(509,274,l),
(485,238,o),
(449,222,o),
(408,222,cs),
(337,222,o),
(282,272,o),
(282,350,cs),
(282,428,o),
(337,478,o),
(408,478,cs),
(449,478,o),
(485,462,o),
(509,426,c),
(573,465,l),
(542,522,o),
(482,555,o),
(409,555,cs),
(288,555,o),
(200,470,o),
(200,350,cs),
(200,230,o),
(288,145,o),
(409,145,cs)
);
}
);
};
layerId = "4054872B-F70F-4FA7-B657-FACA7DE5D444";
shapes = (
{
closed = 1;
nodes = (
(597,-3,o),
(752,153,o),
(752,352,cs),
(752,551,o),
(601,703,o),
(400,703,cs),
(199,703,o),
(46,547,o),
(46,350,cs),
(46,153,o),
(199,-3,o),
(398,-3,cs)
);
},
{
closed = 1;
nodes = (
(226,47,o),
(98,180,o),
(98,350,cs),
(98,520,o),
(226,653,o),
(400,653,cs),
(573,653,o),
(700,523,o),
(700,352,cs),
(700,181,o),
(569,47,o),
(398,47,cs)
);
},
{
closed = 1;
nodes = (
(482,145,o),
(542,178,o),
(573,230,c),
(509,274,l),
(485,238,o),
(449,222,o),
(408,222,cs),
(338,222,o),
(284,272,o),
(284,350,cs),
(284,428,o),
(338,478,o),
(408,478,cs),
(449,478,o),
(485,462,o),
(509,426,c),
(573,472,l),
(542,522,o),
(482,555,o),
(409,555,cs),
(286,555,o),
(198,470,o),
(198,350,cs),
(198,230,o),
(286,145,o),
(409,145,cs)
);
}
);
width = 798;
},
{
layerId = "6C677F0D-8978-4FCA-B34D-F7758EC5234D";
shapes = (
{
closed = 1;
nodes = (
(610,-3,o),
(765,153,o),
(765,352,cs),
(765,551,o),
(614,703,o),
(413,703,cs),
(212,703,o),
(59,547,o),
(59,350,cs),
(59,153,o),
(212,-3,o),
(411,-3,cs)
);
},
{
closed = 1;
nodes = (
(223,16,o),
(78,164,o),
(78,350,cs),
(78,536,o),
(223,684,o),
(413,684,cs),
(603,684,o),
(746,540,o),
(746,352,cs),
(746,164,o),
(599,16,o),
(411,16,cs)
);
},
{
closed = 1;
nodes = (
(479,139,o),
(534,162,o),
(570,207,c),
(555,222,l),
(523,179,o),
(473,158,o),
(418,158,cs),
(312,158,o),
(234,236,o),
(234,350,cs),
(234,464,o),
(312,542,o),
(418,542,cs),
(473,542,o),
(523,521,o),
(555,478,c),
(570,493,l),
(534,538,o),
(479,561,o),
(419,561,cs),
(301,561,o),
(214,474,o),
(214,350,cs),
(214,226,o),
(301,139,o),
(419,139,cs)
);
}
);
width = 824;
}
);
leftKerningGroup = O;
rightKerningGroup = O;
unicode = 169;
}
{
color = 3;
glyphname = logicalnot;
layers = (
{
layerId = "80A23A3A-6F8A-47FF-B13B-1FE7B70F65E8";
shapes = (
{
closed = 1;
nodes = (
(55,435,l),
(55,265,l),
(385,265,l),
(385,95,l),
(565,95,l),
(565,435,l)
);
}
);
width = 620;
},
{
background = {
shapes = (
{
closed = 1;
nodes = (
(66,396,l),
(66,304,l),
(430,304,l),
(430,128,l),
(520,128,l),
(520,396,l)
);
}
);
};
layerId = "4054872B-F70F-4FA7-B657-FACA7DE5D444";
shapes = (
{
closed = 1;
nodes = (
(66,396,l),
(66,306,l),
(424,306,l),
(424,128,l),
(520,128,l),
(520,396,l)
);
}
);
width = 586;
},
{
layerId = "6C677F0D-8978-4FCA-B34D-F7758EC5234D";
shapes = (
{
closed = 1;
nodes = (
(75,359,l),
(75,340,l),
(465,340,l),
(465,159,l),
(485,159,l),
(485,359,l)
);
}
);
width = 560;
}
);
leftKerningGroup = hyphen;
rightKerningGroup = logicalnot;
unicode = 172;
}
{
color = 3;
glyphname = registered;
layers = (
{
layerId = "80A23A3A-6F8A-47FF-B13B-1FE7B70F65E8";
shapes = (
{
closed = 1;
nodes = (
(580,-3,o),
(735,153,o),
(735,352,cs),
(735,551,o),
(584,703,o),
(383,703,cs),
(182,703,o),
(29,547,o),
(29,350,cs),
(29,153,o),
(182,-3,o),
(381,-3,cs)
);
},
{
closed = 1;
nodes = (
(591,162,l),
(499,304,l),
(353,304,l),
(445,162,l)
);
},
{
closed = 1;
nodes = (
(231,85,o),
(123,200,o),
(123,350,cs),
(123,500,o),
(231,615,o),
(383,615,cs),
(535,615,o),
(641,503,o),
(641,352,cs),
(641,201,o),
(531,85,o),
(381,85,cs)
);
},
{
closed = 1;
nodes = (
(360,162,l),
(360,258,l),
(395,258,ls),
(507,258,o),
(572,305,o),
(572,398,cs),
(572,483,o),
(507,538,o),
(395,538,cs),
(216,538,l),
(216,162,l)
);
},
{
closed = 1;
nodes = (
(360,439,l),
(386,439,ls),
(413,439,o),
(428,423,o),
(428,398,cs),
(428,373,o),
(413,357,o),
(386,357,cs),
(360,357,l)
);
}
);
width = 764;
},
{
background = {
shapes = (
{
closed = 1;
nodes = (
(597,-3,o),
(752,153,o),
(752,352,cs),
(752,551,o),
(601,703,o),
(400,703,cs),
(199,703,o),
(46,547,o),
(46,350,cs),
(46,153,o),
(199,-3,o),
(398,-3,cs)
);
},
{
closed = 1;
nodes = (
(588,152,l),
(489,304,l),
(412,304,l),
(511,152,l)
);
},
{
closed = 1;
nodes = (
(226,49,o),
(98,181,o),
(98,350,cs),
(98,519,o),
(226,651,o),
(400,651,cs),
(573,651,o),
(700,522,o),
(700,352,cs),
(700,182,o),
(569,49,o),
(398,49,cs)
);
},
{
closed = 1;
nodes = (
(328,152,l),
(328,275,l),
(416,275,ls),
(518,275,o),
(580,325,o),
(580,412,cs),
(580,495,o),
(518,548,o),
(416,548,cs),
(254,548,l),
(254,152,l)
);
},
{
closed = 1;
nodes = (
(327,490,l),
(411,490,ls),
(471,490,o),
(506,461,o),
(506,412,cs),
(506,363,o),
(471,333,o),
(411,333,cs),
(327,333,l)
);
}
);
};
layerId = "4054872B-F70F-4FA7-B657-FACA7DE5D444";
shapes = (
{
closed = 1;
nodes = (
(597,-3,o),
(752,153,o),
(752,352,cs),
(752,551,o),
(601,703,o),
(400,703,cs),
(199,703,o),
(46,547,o),
(46,350,cs),
(46,153,o),
(199,-3,o),
(398,-3,cs)
);
},
{
closed = 1;
nodes = (
(588,152,l),
(489,304,l),
(412,304,l),
(511,152,l)
);
},
{
closed = 1;
nodes = (
(226,47,o),
(98,180,o),
(98,350,cs),
(98,520,o),
(226,653,o),
(400,653,cs),
(573,653,o),
(700,523,o),
(700,352,cs),
(700,181,o),
(569,47,o),
(398,47,cs)
);
},
{
closed = 1;
nodes = (
(331,152,l),
(331,275,l),
(416,275,ls),
(518,275,o),
(580,325,o),
(580,412,cs),
(580,495,o),
(518,548,o),
(416,548,cs),
(254,548,l),
(254,152,l)
);
},
{
closed = 1;
nodes = (
(330,485,l),
(411,485,ls),
(471,485,o),
(506,459,o),
(506,412,cs),
(506,365,o),
(471,338,o),
(411,338,cs),
(330,338,l)
);
}
);
width = 798;
},
{
layerId = "6C677F0D-8978-4FCA-B34D-F7758EC5234D";
shapes = (
{
closed = 1;
nodes = (
(610,-3,o),
(765,153,o),
(765,352,cs),
(765,551,o),
(614,703,o),
(413,703,cs),
(212,703,o),
(59,547,o),
(59,350,cs),
(59,153,o),
(212,-3,o),
(411,-3,cs)
);
},
{
closed = 1;
nodes = (
(586,142,l),
(481,304,l),
(457,304,l),
(562,142,l)
);
},
{
closed = 1;
nodes = (
(223,16,o),
(78,164,o),
(78,350,cs),
(78,536,o),
(223,684,o),
(413,684,cs),
(603,684,o),
(746,540,o),
(746,352,cs),
(746,164,o),
(599,16,o),
(411,16,cs)
);
},
{
closed = 1;
nodes = (
(303,142,l),
(303,292,l),
(433,292,ls),
(527,292,o),
(586,344,o),
(586,425,cs),
(586,506,o),
(527,558,o),
(433,558,cs),
(283,558,l),
(283,142,l)
);
},
{
closed = 1;
nodes = (
(302,539,l),
(431,539,ls),
(516,539,o),
(566,497,o),
(566,425,cs),
(566,353,o),
(516,311,o),
(431,311,cs),
(302,311,l)
);
}
);
width = 824;
}
);
leftKerningGroup = O;
rightKerningGroup = O;
unicode = 174;
}
{
color = 3;
glyphname = degree;
layers = (
{
layerId = "80A23A3A-6F8A-47FF-B13B-1FE7B70F65E8";
shapes = (
{
closed = 1;
nodes = (
(311,349,o),
(396,428,o),
(396,530,cs),
(396,632,o),
(311,711,o),
(208,711,cs),
(105,711,o),
(20,632,o),
(20,530,cs),
(20,428,o),
(105,349,o),
(208,349,cs)
);
},
{
closed = 1;
nodes = (
(164,453,o),
(132,487,o),
(132,530,cs),
(132,573,o),
(164,607,o),
(208,607,cs),
(252,607,o),
(284,573,o),
(284,530,cs),
(284,487,o),
(252,453,o),
(208,453,cs)
);
}
);
width = 416;
},
{
background = {
shapes = (
{
closed = 1;
nodes = (
(301,377,o),
(376,449,o),
(376,542,cs),
(376,635,o),
(301,707,o),
(209,707,cs),
(117,707,o),
(43,635,o),
(43,542,cs),
(43,449,o),
(117,377,o),
(209,377,cs)
);
},
{
closed = 1;
nodes = (
(148,437,o),
(102,483,o),
(102,542,cs),
(102,600,o),
(148,647,o),
(209,647,cs),
(270,647,o),
(316,600,o),
(316,542,cs),
(316,483,o),
(270,437,o),
(209,437,cs)
);
}
);
};
layerId = "4054872B-F70F-4FA7-B657-FACA7DE5D444";
shapes = (
{
closed = 1;
nodes = (
(303,377,o),
(376,450,o),
(376,542,cs),
(376,634,o),
(303,707,o),
(209,707,cs),
(115,707,o),
(42,634,o),
(42,542,cs),
(42,450,o),
(115,377,o),
(209,377,cs)
);
},
{
closed = 1;
nodes = (
(150,437,o),
(105,481,o),
(105,542,cs),
(105,603,o),
(150,647,o),
(209,647,cs),
(268,647,o),
(313,602,o),
(313,542,cs),
(313,482,o),
(268,437,o),
(209,437,cs)
);
}
);
width = 419;
},
{
layerId = "6C677F0D-8978-4FCA-B34D-F7758EC5234D";
shapes = (
{
closed = 1;
nodes = (
(293,403,o),
(360,469,o),
(360,553,cs),
(360,637,o),
(293,703,o),
(210,703,cs),
(127,703,o),
(60,637,o),
(60,553,cs),
(60,469,o),
(127,403,o),
(210,403,cs)
);
},
{
closed = 1;
nodes = (
(136,421,o),
(79,480,o),
(79,553,cs),
(79,626,o),
(136,685,o),
(210,685,cs),
(284,685,o),
(341,626,o),
(341,553,cs),
(341,480,o),
(284,421,o),
(210,421,cs)
);
}
);
width = 420;
}
);
leftKerningGroup = degree;
rightKerningGroup = degree;
unicode = 176;
}
{
color = 3;
glyphname = plusminus;
layers = (
{
layerId = "80A23A3A-6F8A-47FF-B13B-1FE7B70F65E8";
shapes = (
{
closed = 1;
nodes = (
(565,0,l),
(565,170,l),
(55,170,l),
(55,0,l)
);
},
{
closed = 1;
nodes = (
(400,235,l),
(400,700,l),
(220,700,l),
(220,235,l)
);
},
{
closed = 1;
nodes = (
(565,387,l),
(565,548,l),
(55,548,l),
(55,387,l)
);
}
);
width = 620;
},
{
background = {
shapes = (
{
closed = 1;
nodes = (
(520,0,l),
(520,92,l),
(66,92,l),
(66,0,l)
);
},
{
closed = 1;
nodes = (
(338,191,l),
(338,623,l),
(248,623,l),
(248,191,l)
);
},
{
closed = 1;
nodes = (
(520,363,l),
(520,451,l),
(66,451,l),
(66,363,l)
);
}
);
};
layerId = "4054872B-F70F-4FA7-B657-FACA7DE5D444";
shapes = (
{
closed = 1;
nodes = (
(520,0,l),
(520,90,l),
(66,90,l),
(66,0,l)
);
},
{
closed = 1;
nodes = (
(341,191,l),
(341,623,l),
(245,623,l),
(245,191,l)
);
},
{
closed = 1;
nodes = (
(520,362,l),
(520,452,l),
(66,452,l),
(66,362,l)
);
}
);
width = 586;
},
{
layerId = "6C677F0D-8978-4FCA-B34D-F7758EC5234D";
shapes = (
{
closed = 1;
nodes = (
(485,0,l),
(485,19,l),
(75,19,l),
(75,0,l)
);
},
{
closed = 1;
nodes = (
(290,150,l),
(290,550,l),
(270,550,l),
(270,150,l)
);
},
{
closed = 1;
nodes = (
(485,340,l),
(485,359,l),
(75,359,l),
(75,340,l)
);
}
);
width = 560;
}
);
leftKerningGroup = plus;
rightKerningGroup = plus;
unicode = 177;
}
{
glyphname = paragraph;
layers = (
{
layerId = "A21A2123-DD84-4B37-8E55-82388BE3A895";
name = Light.Bold;
shapes = (
{
closed = 1;
nodes = (
(242,-98,l),
(414,-98,l),
(414,601,l),
(497,601,l),
(497,-98,l),
(672,-98,l),
(672,755,l),
(285,755,ls),
(103,755,o),
(33,648,o),
(33,540,cs),
(33,459,o),
(77,331,o),
(249,331,c),
(247,331,o),
(245,330,o),
(242,328,c)
);
}
);
width = 672;
},
{
layerId = "80A23A3A-6F8A-47FF-B13B-1FE7B70F65E8";
shapes = (
{
closed = 1;
nodes = (
(411,-100,l),
(411,587,l),
(491,587,l),
(491,-100,l),
(673,-100,l),
(673,742,l),
(268,742,ls),
(111,742,o),
(8,663,o),
(8,537,cs),
(8,414,o),
(106,337,o),
(229,333,c),
(229,-100,l)
);
}
);
width = 730;
},
{
background = {
shapes = (
{
closed = 1;
nodes = (
(318,-100,l),
(318,657,l),
(466,657,l),
(466,-100,l),
(557,-100,l),
(557,742,l),
(244,742,ls),
(107,742,o),
(18,672,o),
(18,560,cs),
(18,449,o),
(105,379,o),
(227,377,c),
(227,-100,l)
);
}
);
};
layerId = "4054872B-F70F-4FA7-B657-FACA7DE5D444";
shapes = (
{
closed = 1;
nodes = (
(318,-100,l),
(318,657,l),
(466,657,l),
(466,-100,l),
(557,-100,l),
(557,742,l),
(244,742,ls),
(107,742,o),
(18,672,o),
(18,560,cs),
(18,449,o),
(105,379,o),
(227,377,c),
(227,-100,l)
);
}
);
width = 657;
},
{
layerId = "6C677F0D-8978-4FCA-B34D-F7758EC5234D";
shapes = (
{
closed = 1;
nodes = (
(245,-100,l),
(245,723,l),
(447,723,l),
(447,-100,l),
(467,-100,l),
(467,742,l),
(225,742,ls),
(104,742,o),
(25,681,o),
(25,581,cs),
(25,482,o),
(104,419,o),
(225,419,c),
(225,-100,l)
);
}
);
width = 600;
}
);
leftKerningGroup = paragraph;
rightKerningGroup = H;
unicode = 182;
}
{
color = 3;
glyphname = periodcentered;
layers = (
{
layerId = "80A23A3A-6F8A-47FF-B13B-1FE7B70F65E8";
shapes = (
{
closed = 1;
nodes = (
(250,159,o),
(304,211,o),
(304,290,cs),
(304,369,o),
(250,419,o),
(172,419,cs),
(94,419,o),
(40,369,o),
(40,290,cs),
(40,211,o),
(94,159,o),
(172,159,cs)
);
}
);
width = 344;
},
{
background = {
shapes = (
{
closed = 1;
nodes = (
(180,200,o),
(210,231,o),
(210,277,cs),
(210,322,o),
(180,353,o),
(138,353,cs),
(96,353,o),
(65,322,o),
(65,277,cs),
(65,231,o),
(96,200,o),
(138,200,cs)
);
}
);
};
layerId = "4054872B-F70F-4FA7-B657-FACA7DE5D444";
shapes = (
{
closed = 1;
nodes = (
(180,200,o),
(212,231,o),
(212,277,cs),
(212,322,o),
(180,353,o),
(138,353,cs),
(96,353,o),
(63,322,o),
(63,277,cs),
(63,231,o),
(96,200,o),
(138,200,cs)
);
}
);
width = 275;
},
{
layerId = "6C677F0D-8978-4FCA-B34D-F7758EC5234D";
shapes = (
{
closed = 1;
nodes = (
(125,238,o),
(137,250,o),
(137,264,cs),
(137,278,o),
(125,290,o),
(111,290,cs),
(97,290,o),
(85,278,o),
(85,264,cs),
(85,250,o),
(97,238,o),
(111,238,cs)
);
}
);
width = 222;
}
);
leftKerningGroup = hyphen;
rightKerningGroup = hyphen;
unicode = 183;
}
{
color = 3;
glyphname = ordmasculine;
layers = (
{
layerId = "80A23A3A-6F8A-47FF-B13B-1FE7B70F65E8";
shapes = (
{
closed = 1;
nodes = (
(338,414,o),
(422,484,o),
(422,583,cs),
(422,682,o),
(338,752,o),
(219,752,cs),
(101,752,o),
(16,682,o),
(16,583,cs),
(16,484,o),
(101,414,o),
(219,414,cs)
);
},
{
closed = 1;
nodes = (
(190,524,o),
(167,544,o),
(167,583,cs),
(167,623,o),
(190,642,o),
(219,642,cs),
(248,642,o),
(271,623,o),
(271,583,cs),
(271,544,o),
(248,524,o),
(219,524,cs)
);
}
);
width = 438;
},
{
background = {
shapes = (
{
closed = 1;
nodes = (
(315,423,o),
(390,491,o),
(390,586,cs),
(390,680,o),
(315,748,o),
(210,748,cs),
(106,748,o),
(30,680,o),
(30,586,cs),
(30,491,o),
(106,423,o),
(210,423,cs)
);
},
{
closed = 1;
nodes = (
(151,486,o),
(106,524,o),
(106,586,cs),
(106,647,o),
(151,685,o),
(210,685,cs),
(269,685,o),
(314,647,o),
(314,586,cs),
(314,524,o),
(269,486,o),
(210,486,cs)
);
}
);
};
layerId = "4054872B-F70F-4FA7-B657-FACA7DE5D444";
shapes = (
{
closed = 1;
nodes = (
(315,423,o),
(390,491,o),
(390,586,cs),
(390,680,o),
(315,748,o),
(210,748,cs),
(106,748,o),
(30,680,o),
(30,586,cs),
(30,491,o),
(106,423,o),
(210,423,cs)
);
},
{
closed = 1;
nodes = (
(148,488,o),
(106,528,o),
(106,586,cs),
(106,644,o),
(148,683,o),
(210,683,cs),
(272,683,o),
(314,644,o),
(314,586,cs),
(314,528,o),
(272,488,o),
(210,488,cs)
);
}
);
width = 420;
},
{
layerId = "6C677F0D-8978-4FCA-B34D-F7758EC5234D";
shapes = (
{
closed = 1;
nodes = (
(297,432,o),
(366,497,o),
(366,588,cs),
(366,679,o),
(297,744,o),
(203,744,cs),
(109,744,o),
(40,679,o),
(40,588,cs),
(40,497,o),
(109,432,o),
(203,432,cs)
);
},
{
closed = 1;
nodes = (
(121,450,o),
(59,506,o),
(59,588,cs),
(59,670,o),
(121,726,o),
(203,726,cs),
(285,726,o),
(347,670,o),
(347,588,cs),
(347,506,o),
(285,450,o),
(203,450,cs)
);
}
);
width = 407;
}
);
leftKerningGroup = asterisk;
rightKerningGroup = asterisk;
unicode = 186;
}
{
glyphname = multiply;
layers = (
{
layerId = "80A23A3A-6F8A-47FF-B13B-1FE7B70F65E8";
shapes = (
{
closed = 1;
nodes = (
(190,110,l),
(550,470,l),
(430,590,l),
(70,230,l)
);
},
{
closed = 1;
nodes = (
(430,110,l),
(550,230,l),
(190,590,l),
(70,470,l)
);
}
);
width = 620;
},
{
background = {
shapes = (
{
closed = 1;
nodes = (
(163,155,l),
(484,479,l),
(423,545,l),
(103,221,l)
);
},
{
closed = 1;
nodes = (
(423,155,l),
(484,221,l),
(163,545,l),
(103,479,l)
);
}
);
};
layerId = "4054872B-F70F-4FA7-B657-FACA7DE5D444";
shapes = (
{
closed = 1;
nodes = (
(163,155,l),
(484,479,l),
(423,545,l),
(103,221,l)
);
},
{
closed = 1;
nodes = (
(423,155,l),
(484,221,l),
(163,545,l),
(103,479,l)
);
}
);
width = 586;
},
{
layerId = "6C677F0D-8978-4FCA-B34D-F7758EC5234D";
shapes = (
{
closed = 1;
nodes = (
(142,198,l),
(432,488,l),
(418,502,l),
(128,212,l)
);
},
{
closed = 1;
nodes = (
(418,198,l),
(432,212,l),
(142,502,l),
(128,488,l)
);
}
);
width = 560;
}
);
leftKerningGroup = multiply;
rightKerningGroup = multiply;
unicode = 215;
}
{
color = 3;
glyphname = Thorn;
layers = (
{
layerId = "80A23A3A-6F8A-47FF-B13B-1FE7B70F65E8";
shapes = (
{
closed = 1;
nodes = (
(394,105,ls),
(589,105,o),
(713,207,o),
(713,369,cs),
(713,531,o),
(589,633,o),
(394,633,cs),
(245,633,l),
(245,451,l),
(379,451,ls),
(444,451,o),
(475,420,o),
(475,369,cs),
(475,318,o),
(444,287,o),
(379,287,cs),
(245,287,l),
(245,105,l)
);
},
{
closed = 1;
nodes = (
(293,0,l),
(293,701,l),
(57,701,l),
(57,0,l)
);
}
);
width = 743;
},
{
background = {
shapes = (
{
closed = 1;
nodes = (
(380,122,ls),
(563,122,o),
(675,216,o),
(675,369,cs),
(675,522,o),
(563,616,o),
(380,616,cs),
(188,616,l),
(188,517,l),
(375,517,ls),
(496,517,o),
(559,463,o),
(559,369,cs),
(559,275,o),
(496,221,o),
(375,221,cs),
(188,221,l),
(188,122,l)
);
},
{
closed = 1;
nodes = (
(214,0,l),
(214,700,l),
(100,700,l),
(100,0,l)
);
}
);
};
layerId = "4054872B-F70F-4FA7-B657-FACA7DE5D444";
shapes = (
{
closed = 1;
nodes = (
(380,122,ls),
(563,122,o),
(675,216,o),
(675,369,cs),
(675,522,o),
(563,616,o),
(380,616,cs),
(188,616,l),
(188,517,l),
(376,517,ls),
(497,517,o),
(560,463,o),
(560,369,cs),
(560,275,o),
(497,221,o),
(376,221,cs),
(188,221,l),
(188,122,l)
);
},
{
closed = 1;
nodes = (
(214,0,l),
(214,700,l),
(100,700,l),
(100,0,l)
);
}
);
width = 724;
},
{
layerId = "6C677F0D-8978-4FCA-B34D-F7758EC5234D";
shapes = (
{
closed = 1;
nodes = (
(370,139,ls),
(542,139,o),
(645,224,o),
(645,370,cs),
(645,515,o),
(542,600,o),
(370,600,cs),
(144,600,l),
(144,581,l),
(372,581,ls),
(536,581,o),
(625,504,o),
(625,370,cs),
(625,235,o),
(536,158,o),
(372,158,cs),
(144,158,l),
(144,139,l)
);
},
{
closed = 1;
nodes = (
(153,0,l),
(153,700,l),
(133,700,l),
(133,0,l)
);
}
);
width = 710;
}
);
leftKerningGroup = H;
rightKerningGroup = Thorn;
unicode = 222;
}
{
glyphname = divide;
layers = (
{
layerId = "80A23A3A-6F8A-47FF-B13B-1FE7B70F65E8";
shapes = (
{
closed = 1;
nodes = (
(565,265,l),
(565,435,l),
(55,435,l),
(55,265,l)
);
},
{
closed = 1;
nodes = (
(373,20,o),
(422,66,o),
(422,130,cs),
(422,195,o),
(373,238,o),
(310,238,cs),
(247,238,o),
(198,195,o),
(198,130,cs),
(198,66,o),
(247,20,o),
(310,20,cs)
);
},
{
closed = 1;
nodes = (
(373,462,o),
(422,508,o),
(422,572,cs),
(422,637,o),
(373,680,o),
(310,680,cs),
(247,680,o),
(198,637,o),
(198,572,cs),
(198,508,o),
(247,462,o),
(310,462,cs)
);
}
);
width = 620;
},
{
background = {
shapes = (
{
closed = 1;
nodes = (
(520,304,l),
(520,396,l),
(66,396,l),
(66,304,l)
);
},
{
closed = 1;
nodes = (
(329,84,o),
(357,112,o),
(357,151,cs),
(357,189,o),
(329,216,o),
(293,216,cs),
(258,216,o),
(230,189,o),
(230,151,cs),
(230,112,o),
(258,84,o),
(293,84,cs)
);
},
{
closed = 1;
nodes = (
(329,484,o),
(357,512,o),
(357,550,cs),
(357,589,o),
(329,616,o),
(293,616,cs),
(258,616,o),
(230,589,o),
(230,550,cs),
(230,512,o),
(258,484,o),
(293,484,cs)
);
}
);
};
layerId = "4054872B-F70F-4FA7-B657-FACA7DE5D444";
shapes = (
{
closed = 1;
nodes = (
(520,305,l),
(520,395,l),
(66,395,l),
(66,305,l)
);
},
{
closed = 1;
nodes = (
(329,84,o),
(357,112,o),
(357,151,cs),
(357,189,o),
(329,216,o),
(293,216,cs),
(258,216,o),
(230,189,o),
(230,151,cs),
(230,112,o),
(258,84,o),
(293,84,cs)
);
},
{
closed = 1;
nodes = (
(329,484,o),
(357,512,o),
(357,550,cs),
(357,589,o),
(329,616,o),
(293,616,cs),
(258,616,o),
(230,589,o),
(230,550,cs),
(230,512,o),
(258,484,o),
(293,484,cs)
);
}
);
width = 586;
},
{
layerId = "6C677F0D-8978-4FCA-B34D-F7758EC5234D";
shapes = (
{
closed = 1;
nodes = (
(485,340,l),
(485,359,l),
(75,359,l),
(75,340,l)
);
},
{
closed = 1;
nodes = (
(294,144,o),
(306,156,o),
(306,170,cs),
(306,184,o),
(294,196,o),
(280,196,cs),
(266,196,o),
(254,184,o),
(254,170,cs),
(254,156,o),
(266,144,o),
(280,144,cs)
);
},
{
closed = 1;
nodes = (
(294,504,o),
(306,516,o),
(306,530,cs),
(306,544,o),
(294,556,o),
(280,556,cs),
(266,556,o),
(254,544,o),
(254,530,cs),
(254,516,o),
(266,504,o),
(280,504,cs)
);
}
);
width = 560;
}
);
leftKerningGroup = hyphen;
rightKerningGroup = hyphen;
unicode = 247;
}
{
color = 3;
glyphname = thorn;
layers = (
{
anchors = (
{
name = bottom;
position = "{412, 0}";
},
{
name = top;
position = "{412, 547}";
}
);
layerId = "80A23A3A-6F8A-47FF-B13B-1FE7B70F65E8";
shapes = (
{
closed = 1;
nodes = (
(558,-10,o),
(679,97,o),
(679,273,cs),
(679,449,o),
(558,557,o),
(415,557,cs),
(264,557,o),
(207,470,o),
(207,273,cs),
(207,79,o),
(272,-10,o),
(415,-10,cs)
);
},
{
closed = 1;
nodes = (
(276,-194,l),
(276,73,l),
(266,273,l),
(276,473,l),
(276,742,l),
(50,742,l),
(50,-194,l)
);
},
{
closed = 1;
nodes = (
(311,166,o),
(272,202,o),
(272,273,cs),
(272,344,o),
(311,381,o),
(361,381,cs),
(411,381,o),
(450,344,o),
(450,273,cs),
(450,202,o),
(411,166,o),
(361,166,cs)
);
}
);
width = 700;
},
{
anchors = (
{
name = bottom;
position = "{386, 0}";
},
{
name = top;
position = "{386, 532}";
}
);
background = {
shapes = (
{
closed = 1;
nodes = (
(530,-6,o),
(644,101,o),
(644,265,cs),
(644,429,o),
(530,538,o),
(387,538,cs),
(241,538,o),
(157,440,o),
(157,265,cs),
(157,92,o),
(245,-6,o),
(387,-6,cs)
);
},
{
closed = 1;
nodes = (
(197,-194,l),
(197,132,l),
(187,265,l),
(192,398,l),
(192,742,l),
(87,742,l),
(87,-194,l)
);
},
{
closed = 1;
nodes = (
(268,89,o),
(195,157,o),
(195,265,cs),
(195,373,o),
(268,443,o),
(364,443,cs),
(460,443,o),
(533,373,o),
(533,265,cs),
(533,157,o),
(460,89,o),
(364,89,cs)
);
}
);
};
layerId = "4054872B-F70F-4FA7-B657-FACA7DE5D444";
shapes = (
{
closed = 1;
nodes = (
(530,-6,o),
(644,102,o),
(644,266,cs),
(644,430,o),
(530,538,o),
(373,538,cs),
(238,538,o),
(134,451,o),
(134,266,cs),
(134,81,o),
(242,-6,o),
(373,-6,cs)
);
},
{
closed = 1;
nodes = (
(197,-194,l),
(197,132,l),
(187,265,l),
(197,398,l),
(197,742,l),
(87,742,l),
(87,-194,l)
);
},
{
closed = 1;
nodes = (
(268,90,o),
(195,159,o),
(195,266,cs),
(195,373,o),
(268,442,o),
(364,442,cs),
(460,442,o),
(533,373,o),
(533,266,cs),
(533,159,o),
(460,90,o),
(364,90,cs)
);
}
);
width = 684;
},
{
anchors = (
{
name = bottom;
position = "{366, 0}";
},
{
name = top;
position = "{366, 517}";
}
);
layerId = "6C677F0D-8978-4FCA-B34D-F7758EC5234D";
shapes = (
{
closed = 1;
nodes = (
(508,-3,o),
(617,105,o),
(617,258,cs),
(617,411,o),
(508,520,o),
(366,520,cs),
(224,520,o),
(118,411,o),
(118,258,cs),
(118,105,o),
(224,-3,o),
(366,-3,cs)
);
},
{
closed = 1;
nodes = (
(135,-194,l),
(135,187,l),
(125,257,l),
(135,327,l),
(135,742,l),
(115,742,l),
(115,-194,l)
);
},
{
closed = 1;
nodes = (
(234,16,o),
(135,115,o),
(135,258,cs),
(135,401,o),
(234,501,o),
(366,501,cs),
(498,501,o),
(597,401,o),
(597,258,cs),
(597,115,o),
(498,16,o),
(366,16,cs)
);
}
);
width = 671;
}
);
leftKerningGroup = l;
rightKerningGroup = o;
unicode = 254;
}
{
glyphname = idotless;
layers = (
{
anchors = (
{
name = bottom;
position = "{163, 0}";
},
{
name = ogonek;
position = "{276, 0}";
},
{
name = top;
position = "{163, 547}";
}
);
layerId = "80A23A3A-6F8A-47FF-B13B-1FE7B70F65E8";
shapes = (
{
closed = 1;
nodes = (
(276,0,l),
(276,547,l),
(50,547,l),
(50,0,l)
);
}
);
width = 326;
},
{
anchors = (
{
name = bottom;
position = "{142, 0}";
},
{
name = ogonek;
position = "{197, 0}";
},
{
name = top;
position = "{142, 532}";
}
);
background = {
shapes = (
{
closed = 1;
nodes = (
(197,0,l),
(197,532,l),
(87,532,l),
(87,0,l)
);
}
);
};
layerId = "4054872B-F70F-4FA7-B657-FACA7DE5D444";
shapes = (
{
closed = 1;
nodes = (
(197,0,l),
(197,532,l),
(87,532,l),
(87,0,l)
);
}
);
width = 284;
},
{
anchors = (
{
name = bottom;
position = "{125, 0}";
},
{
name = ogonek;
position = "{135, 0}";
},
{
name = top;
position = "{125, 517}";
}
);
layerId = "6C677F0D-8978-4FCA-B34D-F7758EC5234D";
shapes = (
{
closed = 1;
nodes = (
(135,0,l),
(135,517,l),
(115,517,l),
(115,0,l)
);
}
);
width = 250;
}
);
leftKerningGroup = n;
rightKerningGroup = u;
unicode = 305;
}
{
color = 3;
glyphname = IJ;
layers = (
{
anchors = (
{
name = top;
position = "{169, 700}";
}
);
layerId = "80A23A3A-6F8A-47FF-B13B-1FE7B70F65E8";
shapes = (
{
closed = 1;
nodes = (
(538,-16,o),
(678,105,o),
(678,325,cs),
(678,700,l),
(442,700,l),
(442,312,ls),
(442,215,o),
(404,172,o),
(317,172,cs),
(258,172,o),
(183,194,o),
(117,236,c),
(31,69,l),
(104,17,o),
(208,-16,o),
(328,-16,cs)
);
},
{
closed = 1;
nodes = (
(287,336,l),
(287,700,l),
(51,700,l),
(51,336,l)
);
}
);
width = 729;
},
{
anchors = (
{
name = top;
position = "{151, 700}";
}
);
background = {
shapes = (
{
closed = 1;
nodes = (
(508,-9,o),
(627,100,o),
(627,309,cs),
(627,700,l),
(512,700,l),
(512,303,ls),
(512,159,o),
(445,92,o),
(323,92,cs),
(255,92,o),
(184,114,o),
(125,155,c),
(81,65,l),
(143,21,o),
(230,-9,o),
(327,-9,cs)
);
},
{
closed = 1;
nodes = (
(208,312,l),
(208,700,l),
(94,700,l),
(94,312,l)
);
}
);
};
layerId = "4054872B-F70F-4FA7-B657-FACA7DE5D444";
shapes = (
{
closed = 1;
nodes = (
(508,-9,o),
(627,100,o),
(627,309,cs),
(627,700,l),
(513,700,l),
(513,303,ls),
(513,160,o),
(447,93,o),
(329,93,cs),
(255,93,o),
(184,115,o),
(125,155,c),
(81,63,l),
(143,20,o),
(230,-9,o),
(327,-9,cs)
);
},
{
closed = 1;
nodes = (
(208,312,l),
(208,700,l),
(94,700,l),
(94,312,l)
);
}
);
width = 721;
},
{
anchors = (
{
name = top;
position = "{167, 700}";
}
);
guides = (
{
angle = 90;
position = "{117, 0}";
}
);
layerId = "6C677F0D-8978-4FCA-B34D-F7758EC5234D";
shapes = (
{
closed = 1;
nodes = (
(484,-3,o),
(587,95,o),
(587,293,cs),
(587,700,l),
(567,700,l),
(567,294,ls),
(567,107,o),
(476,16,o),
(328,16,cs),
(253,16,o),
(185,39,o),
(132,78,c),
(120,62,l),
(174,24,o),
(247,-3,o),
(327,-3,cs)
);
},
{
closed = 1;
nodes = (
(147,290,l),
(147,700,l),
(127,700,l),
(127,290,l)
);
}
);
width = 714;
}
);
leftKerningGroup = H;
rightKerningGroup = U;
unicode = 306;
}
{
glyphname = kgreenlandic;
layers = (
{
anchors = (
{
name = bottom;
position = "{323, 0}";
},
{
name = top;
position = "{323, 547}";
}
);
layerId = "80A23A3A-6F8A-47FF-B13B-1FE7B70F65E8";
shapes = (
{
closed = 1;
nodes = (
(337,194,l),
(450,285,l),
(700,547,l),
(433,547,l),
(244,356,l),
(239,90,l)
);
},
{
closed = 1;
nodes = (
(276,0,l),
(276,547,l),
(50,547,l),
(50,0,l)
);
},
{
closed = 1;
nodes = (
(718,0,l),
(434,361,l),
(295,190,l),
(445,0,l)
);
}
);
width = 690;
},
{
anchors = (
{
name = bottom;
position = "{292, 0}";
},
{
name = top;
position = "{292, 532}";
}
);
background = {
shapes = (
{
closed = 1;
nodes = (
(309,248,l),
(368,298,l),
(604,532,l),
(471,532,l),
(179,264,l),
(176,123,l)
);
},
{
closed = 1;
nodes = (
(197,0,l),
(197,532,l),
(87,532,l),
(87,0,l)
);
},
{
closed = 1;
nodes = (
(625,0,l),
(359,338,l),
(289,249,l),
(491,0,l)
);
}
);
};
layerId = "4054872B-F70F-4FA7-B657-FACA7DE5D444";
shapes = (
{
closed = 1;
nodes = (
(309,248,l),
(368,298,l),
(604,532,l),
(471,532,l),
(179,264,l),
(176,123,l)
);
},
{
closed = 1;
nodes = (
(197,0,l),
(197,532,l),
(87,532,l),
(87,0,l)
);
},
{
closed = 1;
nodes = (
(625,0,l),
(359,338,l),
(289,249,l),
(491,0,l)
);
}
);
width = 615;
},
{
anchors = (
{
name = bottom;
position = "{268, 0}";
},
{
name = top;
position = "{268, 517}";
}
);
layerId = "6C677F0D-8978-4FCA-B34D-F7758EC5234D";
shapes = (
{
closed = 1;
nodes = (
(288,299,l),
(304,311,l),
(529,517,l),
(500,517,l),
(128,178,l),
(128,154,l)
);
},
{
closed = 1;
nodes = (
(135,0,l),
(135,517,l),
(115,517,l),
(115,0,l)
);
},
{
closed = 1;
nodes = (
(552,0,l),
(300,316,l),
(284,304,l),
(526,0,l)
);
}
);
width = 557;
}
);
leftKerningGroup = n;
rightKerningGroup = k;
unicode = 312;
}
{
glyphname = Lslash;
layers = (
{
layerId = "3F8EA955-1713-4F75-AAF4-C785FA8BBFC8";
name = "Bold.Bold Aug 12 16, 13:13";
shapes = (
{
closed = 1;
nodes = (
(-30,412,l),
(8,278,l),
(472,412,l),
(434,547,l)
);
}
);
width = 606;
},
{
layerId = "759943BE-9C36-48F0-BA59-E4C5A1D2A76D";
name = "Light.Regular Aug 12 16, 13:13";
shapes = (
{
closed = 1;
nodes = (
(6,421,l),
(26,349,l),
(406,458,l),
(386,531,l)
);
}
);
width = 551;
},
{
layerId = "4A19986C-52A9-4877-9C34-9AC44CEDC4BC";
name = "Light.Light Aug 12 16, 13:14";
shapes = (
{
closed = 1;
nodes = (
(36,428,l),
(41,409,l),
(349,497,l),
(344,517,l)
);
}
);
width = 503;
},
{
layerId = "80A23A3A-6F8A-47FF-B13B-1FE7B70F65E8";
shapes = (
{
alignment = -1;
pos = (20,0);
ref = L;
},
{
pos = (-105,-1);
ref = slashshortcomb.case;
}
);
width = 637;
},
{
layerId = "4054872B-F70F-4FA7-B657-FACA7DE5D444";
shapes = (
{
alignment = -1;
pos = (9,0);
ref = L;
},
{
pos = (-51,-9);
ref = slashshortcomb.case;
}
);
width = 605;
},
{
layerId = "6C677F0D-8978-4FCA-B34D-F7758EC5234D";
shapes = (
{
alignment = -1;
ref = L;
},
{
pos = (-10,-17);
ref = slashshortcomb.case;
}
);
width = 580;
}
);
leftKerningGroup = H;
rightKerningGroup = L;
unicode = 321;
}
{
color = 3;
glyphname = Eng;
layers = (
{
layerId = "80A23A3A-6F8A-47FF-B13B-1FE7B70F65E8";
shapes = (
{
closed = 1;
nodes = (
(287,0,l),
(287,426,l),
(197,426,l),
(553,0,l),
(607,274,l),
(251,700,l),
(57,700,l),
(57,0,l)
);
},
{
closed = 1;
nodes = (
(649,-204,o),
(747,-110,o),
(747,102,cs),
(747,700,l),
(517,700,l),
(517,67,ls),
(517,10,o),
(490,-20,o),
(441,-20,cs),
(417,-20,o),
(395,-11,o),
(372,5,c),
(264,-153,l),
(318,-189,o),
(385,-204,o),
(461,-204,cs)
);
}
);
width = 804;
},
{
background = {
shapes = (
{
closed = 1;
nodes = (
(212,0,l),
(212,555,l),
(166,555,l),
(617,0,l),
(645,145,l),
(194,700,l),
(100,700,l),
(100,0,l)
);
},
{
closed = 1;
nodes = (
(635,-200,o),
(711,-121,o),
(711,50,cs),
(711,700,l),
(599,700,l),
(599,34,ls),
(599,-57,o),
(560,-101,o),
(481,-101,cs),
(433,-101,o),
(392,-80,o),
(360,-42,c),
(305,-125,l),
(350,-174,o),
(416,-200,o),
(489,-200,cs)
);
}
);
};
layerId = "4054872B-F70F-4FA7-B657-FACA7DE5D444";
shapes = (
{
closed = 1;
nodes = (
(214,0,l),
(214,556,l),
(166,556,l),
(617,0,l),
(645,144,l),
(194,700,l),
(100,700,l),
(100,0,l)
);
},
{
closed = 1;
nodes = (
(634,-200,o),
(711,-121,o),
(711,50,cs),
(711,700,l),
(597,700,l),
(597,34,ls),
(597,-57,o),
(561,-102,o),
(486,-102,cs),
(434,-102,o),
(392,-80,o),
(360,-42,c),
(305,-125,l),
(350,-174,o),
(415,-200,o),
(486,-200,cs)
);
}
);
width = 811;
},
{
layerId = "6C677F0D-8978-4FCA-B34D-F7758EC5234D";
shapes = (
{
closed = 1;
nodes = (
(153,0,l),
(153,677,l),
(142,677,l),
(666,0,l),
(674,23,l),
(150,700,l),
(133,700,l),
(133,0,l)
);
},
{
closed = 1;
nodes = (
(625,-197,o),
(683,-131,o),
(683,0,cs),
(683,700,l),
(663,700,l),
(663,2,ls),
(663,-120,o),
(614,-178,o),
(512,-178,cs),
(446,-178,o),
(389,-145,o),
(351,-86,c),
(337,-98,l),
(374,-160,o),
(440,-197,o),
(511,-197,cs)
);
}
);
width = 816;
}
);
leftKerningGroup = H;
rightKerningGroup = H;
unicode = 330;
}
{
color = 3;
glyphname = OE;
layers = (
{
anchors = (
{
name = bottom;
position = "{649, 0}";
},
{
name = top;
position = "{649, 700}";
}
);
layerId = "80A23A3A-6F8A-47FF-B13B-1FE7B70F65E8";
shapes = (
{
closed = 1;
nodes = (
(593,0,l),
(593,184,l),
(434,184,ls),
(335,184,o),
(267,243,o),
(267,350,cs),
(267,457,o),
(335,516,o),
(434,516,cs),
(593,516,l),
(593,700,l),
(424,700,ls),
(190,700,o),
(29,567,o),
(29,350,cs),
(29,133,o),
(190,0,o),
(424,0,cs)
);
},
{
closed = 1;
nodes = (
(749,270,l),
(1061,270,l),
(1061,440,l),
(749,440,l)
);
},
{
closed = 1;
nodes = (
(765,522,l),
(1102,522,l),
(1102,700,l),
(533,700,l),
(533,0,l),
(1115,0,l),
(1115,178,l),
(765,178,l)
);
}
);
width = 1149;
},
{
anchors = (
{
name = bottom;
position = "{614, 0}";
},
{
name = top;
position = "{614, 700}";
}
);
background = {
shapes = (
{
closed = 1;
nodes = (
(426,700,ls),
(200,700,o),
(46,559,o),
(46,350,cs),
(46,141,o),
(200,0,o),
(426,0,cs),
(726,0,l),
(726,700,l)
);
},
{
closed = 1;
nodes = (
(612,99,l),
(432,99,ls),
(267,99,o),
(161,199,o),
(161,350,cs),
(161,501,o),
(267,601,o),
(432,601,cs),
(612,601,l)
);
}
);
};
layerId = "4054872B-F70F-4FA7-B657-FACA7DE5D444";
shapes = (
{
closed = 1;
nodes = (
(587,0,l),
(587,99,l),
(432,99,ls),
(267,99,o),
(161,199,o),
(161,349,cs),
(161,501,o),
(267,601,o),
(432,601,cs),
(587,601,l),
(587,700,l),
(426,700,ls),
(200,700,o),
(46,559,o),
(46,349,cs),
(46,141,o),
(200,0,o),
(426,0,cs)
);
},
{
closed = 1;
nodes = (
(663,307,l),
(1017,307,l),
(1017,404,l),
(663,404,l)
);
},
{
closed = 1;
nodes = (
(672,601,l),
(1060,601,l),
(1060,700,l),
(558,700,l),
(558,0,l),
(1074,0,l),
(1074,99,l),
(672,99,l)
);
}
);
width = 1128;
},
{
anchors = (
{
name = bottom;
position = "{587, 0}";
},
{
name = top;
position = "{587, 700}";
}
);
layerId = "6C677F0D-8978-4FCA-B34D-F7758EC5234D";
shapes = (
{
closed = 1;
nodes = (
(583,0,l),
(583,19,l),
(428,19,ls),
(217,19,o),
(79,158,o),
(79,349,cs),
(79,540,o),
(217,681,o),
(428,681,cs),
(583,681,l),
(583,700,l),
(428,700,ls),
(208,700,o),
(59,551,o),
(59,349,cs),
(59,147,o),
(208,0,o),
(428,0,cs)
);
},
{
closed = 1;
nodes = (
(592,346,l),
(983,346,l),
(983,365,l),
(592,365,l)
);
},
{
closed = 1;
nodes = (
(597,681,l),
(1028,681,l),
(1028,700,l),
(577,700,l),
(577,0,l),
(1043,0,l),
(1043,19,l),
(597,19,l)
);
}
);
width = 1112;
}
);
leftKerningGroup = O;
rightKerningGroup = E;
unicode = 338;
}
{
color = 2;
glyphname = oe;
layers = (
{
anchors = (
{
name = bottom;
position = "{540, 0}";
},
{
name = top;
position = "{540, 547}";
}
);
layerId = "938F5392-03DB-411D-B87C-DA104766E68B";
name = Bold.Jacques;
shapes = (
{
closed = 1;
nodes = (
(515,-10,o),
(625,108,o),
(625,274,cs),
(625,440,o),
(515,557,o),
(335,557,cs),
(154,557,o),
(21,440,o),
(21,274,cs),
(21,108,o),
(154,-10,o),
(335,-10,cs)
);
},
{
closed = 1;
nodes = (
(289,166,o),
(250,203,o),
(250,274,cs),
(250,345,o),
(289,381,o),
(339,381,cs),
(389,381,o),
(428,345,o),
(428,274,cs),
(428,203,o),
(389,166,o),
(339,166,cs)
);
},
{
closed = 1;
nodes = (
(870,-10,o),
(950,20,o),
(1005,78,c),
(884,197,l),
(847,170,o),
(818,157,o),
(767,157,cs),
(691,157,o),
(647,196,o),
(647,267,cs),
(647,301,ls),
(647,364,o),
(683,403,o),
(740,403,cs),
(797,403,o),
(833,364,o),
(833,301,c),
(875,330,l),
(636,330,l),
(636,221,l),
(1043,221,l),
(1045,237,o),
(1047,258,o),
(1047,274,cs),
(1047,459,o),
(904,557,o),
(745,557,cs),
(568,557,o),
(448,440,o),
(448,274,cs),
(448,111,o),
(569,-10,o),
(762,-10,cs)
);
}
);
width = 1068;
},
{
anchors = (
{
name = bottom;
position = "{546, 0}";
},
{
name = top;
position = "{546, 517}";
}
);
layerId = "749AF212-EC33-4A0D-8689-C02801C79E24";
name = Light.Jacques;
shapes = (
{
closed = 1;
nodes = (
(448,-3,o),
(554,106,o),
(554,259,cs),
(554,412,o),
(448,520,o),
(305,520,cs),
(161,520,o),
(54,412,o),
(54,259,cs),
(54,106,o),
(161,-3,o),
(305,-3,cs)
);
},
{
closed = 1;
nodes = (
(173,16,o),
(74,116,o),
(74,259,cs),
(74,402,o),
(173,501,o),
(305,501,cs),
(437,501,o),
(536,402,o),
(536,259,cs),
(536,116,o),
(437,16,o),
(305,16,cs)
);
},
{
closed = 1;
nodes = (
(882,-3,o),
(955,26,o),
(1002,82,c),
(988,96,l),
(945,42,o),
(877,16,o),
(804,16,cs),
(662,16,o),
(556,116,o),
(556,259,cs),
(556,263,ls),
(556,399,o),
(653,501,o),
(785,501,cs),
(917,501,o),
(1015,399,o),
(1015,263,c),
(1023,280,l),
(552,280,l),
(552,261,l),
(1034,261,l),
(1034,263,o),
(1034,264,o),
(1034,266,cs),
(1034,414,o),
(926,520,o),
(785,520,cs),
(642,520,o),
(538,412,o),
(538,259,cs),
(538,106,o),
(650,-3,o),
(804,-3,cs)
);
}
);
width = 1088;
},
{
anchors = (
{
name = bottom;
position = "{540, 0}";
},
{
name = top;
position = "{540, 547}";
}
);
layerId = "80A23A3A-6F8A-47FF-B13B-1FE7B70F65E8";
shapes = (
{
closed = 1;
nodes = (
(515,-10,o),
(625,108,o),
(625,274,cs),
(625,440,o),
(515,557,o),
(335,557,cs),
(154,557,o),
(21,440,o),
(21,274,cs),
(21,108,o),
(154,-10,o),
(335,-10,cs)
);
},
{
closed = 1;
nodes = (
(289,166,o),
(250,203,o),
(250,274,cs),
(250,345,o),
(289,381,o),
(339,381,cs),
(389,381,o),
(428,345,o),
(428,274,cs),
(428,203,o),
(389,166,o),
(339,166,cs)
);
},
{
closed = 1;
nodes = (
(858,-10,o),
(944,20,o),
(999,78,c),
(878,197,l),
(841,170,o),
(810,157,o),
(766,157,cs),
(689,157,o),
(647,196,o),
(647,267,cs),
(647,301,ls),
(647,364,o),
(682,403,o),
(739,403,cs),
(796,403,o),
(829,364,o),
(829,301,c),
(869,330,l),
(636,330,l),
(636,221,l),
(1037,221,l),
(1039,237,o),
(1041,256,o),
(1041,277,cs),
(1041,459,o),
(898,557,o),
(739,557,cs),
(566,557,o),
(448,440,o),
(448,274,cs),
(448,111,o),
(563,-10,o),
(760,-10,cs)
);
}
);
width = 1062;
},
{
anchors = (
{
name = bottom;
position = "{543, 0}";
},
{
name = top;
position = "{543, 532}";
}
);
layerId = "D1F2D44E-66E4-4A29-B01C-63AA6F0583A7";
associatedMasterId = "4054872B-F70F-4FA7-B657-FACA7DE5D444";
name = Jacques;
shapes = (
{
closed = 1;
nodes = (
(482,-6,o),
(589,107,o),
(589,266,cs),
(589,425,o),
(482,538,o),
(320,538,cs),
(159,538,o),
(40,425,o),
(40,266,cs),
(40,107,o),
(159,-6,o),
(320,-6,cs)
);
},
{
closed = 1;
nodes = (
(224,90,o),
(151,159,o),
(151,266,cs),
(151,373,o),
(224,442,o),
(320,442,cs),
(417,442,o),
(489,373,o),
(489,266,cs),
(489,159,o),
(417,90,o),
(320,90,cs)
);
},
{
closed = 1;
nodes = (
(878,-6,o),
(954,24,o),
(1003,80,c),
(942,151,l),
(902,110,o),
(851,90,o),
(788,90,cs),
(674,90,o),
(597,159,o),
(597,260,cs),
(597,278,ls),
(597,377,o),
(666,445,o),
(765,445,cs),
(864,445,o),
(933,377,o),
(932,281,c),
(978,307,l),
(593,307,l),
(593,228,l),
(1037,228,l),
(1039,239,o),
(1040,253,o),
(1040,262,cs),
(1040,427,o),
(926,538,o),
(765,538,cs),
(604,538,o),
(495,424,o),
(495,266,cs),
(495,107,o),
(605,-6,o),
(785,-6,cs)
);
}
);
width = 1080;
},
{
anchors = (
{
name = bottom;
position = "{543, 0}";
},
{
name = top;
position = "{543, 532}";
}
);
background = {
shapes = (
{
closed = 1;
nodes = (
(482,-6,o),
(589,107,o),
(589,266,cs),
(589,425,o),
(482,538,o),
(320,538,cs),
(159,538,o),
(40,425,o),
(40,266,cs),
(40,107,o),
(159,-6,o),
(320,-6,cs)
);
},
{
closed = 1;
nodes = (
(224,90,o),
(151,159,o),
(151,266,cs),
(151,373,o),
(224,442,o),
(320,442,cs),
(417,442,o),
(489,373,o),
(489,266,cs),
(489,159,o),
(417,90,o),
(320,90,cs)
);
},
{
closed = 1;
nodes = (
(878,-6,o),
(954,24,o),
(1003,80,c),
(942,151,l),
(902,110,o),
(851,90,o),
(788,90,cs),
(674,90,o),
(597,159,o),
(597,260,cs),
(597,278,ls),
(597,377,o),
(666,445,o),
(765,445,cs),
(864,445,o),
(933,377,o),
(932,281,c),
(978,307,l),
(593,307,l),
(593,228,l),
(1037,228,l),
(1039,239,o),
(1040,253,o),
(1040,262,cs),
(1040,427,o),
(926,538,o),
(765,538,cs),
(604,538,o),
(495,424,o),
(495,266,cs),
(495,107,o),
(605,-6,o),
(785,-6,cs)
);
}
);
};
layerId = "4054872B-F70F-4FA7-B657-FACA7DE5D444";
shapes = (
{
closed = 1;
nodes = (
(482,-6,o),
(589,107,o),
(589,266,cs),
(589,425,o),
(482,538,o),
(320,538,cs),
(159,538,o),
(40,425,o),
(40,266,cs),
(40,107,o),
(159,-6,o),
(320,-6,cs)
);
},
{
closed = 1;
nodes = (
(224,90,o),
(151,159,o),
(151,266,cs),
(151,373,o),
(224,442,o),
(320,442,cs),
(417,442,o),
(489,373,o),
(489,266,cs),
(489,159,o),
(417,90,o),
(320,90,cs)
);
},
{
closed = 1;
nodes = (
(869,-6,o),
(943,24,o),
(991,80,c),
(931,151,l),
(893,110,o),
(843,90,o),
(782,90,cs),
(671,90,o),
(597,159,o),
(597,260,cs),
(597,278,ls),
(597,377,o),
(664,445,o),
(760,445,cs),
(856,445,o),
(923,377,o),
(922,281,c),
(966,307,l),
(576,307,l),
(576,228,l),
(1024,228,l),
(1025,239,o),
(1026,253,o),
(1026,262,cs),
(1026,427,o),
(916,538,o),
(760,538,cs),
(604,538,o),
(496,424,o),
(496,266,cs),
(496,107,o),
(604,-6,o),
(779,-6,cs)
);
}
);
width = 1066;
},
{
anchors = (
{
name = bottom;
position = "{546, 0}";
},
{
name = top;
position = "{546, 517}";
}
);
layerId = "6C677F0D-8978-4FCA-B34D-F7758EC5234D";
shapes = (
{
closed = 1;
nodes = (
(448,-3,o),
(554,106,o),
(554,259,cs),
(554,412,o),
(448,520,o),
(305,520,cs),
(161,520,o),
(54,412,o),
(54,259,cs),
(54,106,o),
(161,-3,o),
(305,-3,cs)
);
},
{
closed = 1;
nodes = (
(173,16,o),
(74,116,o),
(74,259,cs),
(74,402,o),
(173,501,o),
(305,501,cs),
(437,501,o),
(536,402,o),
(536,259,cs),
(536,116,o),
(437,16,o),
(305,16,cs)
);
},
{
closed = 1;
nodes = (
(869,-3,o),
(939,26,o),
(985,82,c),
(971,96,l),
(930,42,o),
(864,16,o),
(795,16,cs),
(658,16,o),
(556,116,o),
(556,259,cs),
(556,263,ls),
(556,399,o),
(649,501,o),
(776,501,cs),
(903,501,o),
(997,399,o),
(997,263,c),
(1005,278,l),
(548,278,l),
(548,259,l),
(1016,259,l),
(1016,261,o),
(1016,262,o),
(1016,264,cs),
(1016,414,o),
(912,520,o),
(776,520,cs),
(639,520,o),
(538,412,o),
(538,259,cs),
(538,106,o),
(646,-3,o),
(795,-3,cs)
);
}
);
width = 1070;
}
);
leftKerningGroup = o;
rightKerningGroup = e;
unicode = 339;
}
{
color = 3;
glyphname = Uogonek;
layers = (
{
layerId = "80A23A3A-6F8A-47FF-B13B-1FE7B70F65E8";
shapes = (
{
closed = 1;
nodes = (
(501,322,ls),
(501,215,o),
(460,175,o),
(394,175,cs),
(328,175,o),
(287,215,o),
(287,322,cs),
(287,700,l),
(51,700,l),
(51,315,ls),
(51,105,o),
(177,-16,o),
(392,-16,cs),
(409,-16,o),
(425,-15,o),
(442,-14,c),
(437,49,l),
(331,16,o),
(270,-43,o),
(270,-117,cs),
(270,-192,o),
(328,-240,o),
(428,-240,cs),
(471,-240,o),
(517,-230,o),
(541,-217,c),
(514,-124,l),
(499,-131,o),
(477,-138,o),
(455,-138,cs),
(418,-138,o),
(402,-120,o),
(402,-97,cs),
(402,-66,o),
(433,-35,o),
(540,7,cs),
(655,52,o),
(733,149,o),
(733,315,cs),
(733,700,l),
(501,700,l)
);
}
);
width = 784;
},
{
background = {
shapes = (
{
closed = 1;
nodes = (
(454,-226,o),
(488,-217,o),
(513,-203,c),
(493,-147,l),
(477,-157,o),
(453,-163,o),
(432,-163,cs),
(397,-163,o),
(372,-145,o),
(372,-113,cs),
(372,-73,o),
(406,-38,o),
(490,0,c),
(439,35,l),
(334,-7,o),
(295,-66,o),
(295,-122,cs),
(295,-183,o),
(341,-226,o),
(420,-226,cs)
);
}
);
};
layerId = "4054872B-F70F-4FA7-B657-FACA7DE5D444";
shapes = (
{
closed = 1;
nodes = (
(584,308,ls),
(584,159,o),
(516,93,o),
(396,93,cs),
(276,93,o),
(208,159,o),
(208,308,cs),
(208,700,l),
(94,700,l),
(94,304,ls),
(94,100,o),
(207,-9,o),
(395,-9,cs),
(409,-9,o),
(424,-8,o),
(438,-7,c),
(439,35,l),
(333,-7,o),
(295,-66,o),
(295,-122,cs),
(295,-183,o),
(341,-226,o),
(420,-226,cs),
(454,-226,o),
(488,-217,o),
(513,-203,c),
(493,-147,l),
(477,-157,o),
(453,-163,o),
(432,-163,cs),
(397,-163,o),
(372,-145,o),
(372,-113,cs),
(372,-78,o),
(398,-34,o),
(514,8,cs),
(625,48,o),
(696,140,o),
(696,304,cs),
(696,700,l),
(584,700,l)
);
}
);
width = 790;
},
{
layerId = "6C677F0D-8978-4FCA-B34D-F7758EC5234D";
shapes = (
{
closed = 1;
nodes = (
(647,294,ls),
(647,107,o),
(556,16,o),
(397,16,cs),
(238,16,o),
(147,107,o),
(147,294,cs),
(147,700,l),
(127,700,l),
(127,293,ls),
(127,95,o),
(230,-3,o),
(397,-3,cs),
(409,-3,o),
(423,-2,o),
(435,-1,c),
(451,14,l),
(336,-31,o),
(314,-89,o),
(314,-130,cs),
(314,-182,o),
(353,-213,o),
(405,-213,cs),
(433,-213,o),
(457,-205,o),
(479,-186,c),
(468,-171,l),
(452,-186,o),
(429,-194,o),
(406,-194,cs),
(365,-194,o),
(334,-173,o),
(334,-130,cs),
(334,-93,o),
(355,-36,o),
(490,8,cs),
(602,44,o),
(667,132,o),
(667,293,cs),
(667,700,l),
(647,700,l)
);
}
);
width = 794;
}
);
leftKerningGroup = U;
rightKerningGroup = U;
unicode = 370;
}
{
color = 8;
glyphname = longs;
layers = (
{
layerId = "80A23A3A-6F8A-47FF-B13B-1FE7B70F65E8";
shapes = (
{
closed = 1;
nodes = (
(314,0,l),
(314,518,ls),
(314,562,o),
(329,581,o),
(361,581,cs),
(379,581,o),
(397,575,o),
(412,568,c),
(466,725,l),
(433,743,o),
(380,752,o),
(332,752,cs),
(176,752,o),
(88,661,o),
(88,520,cs),
(88,0,l)
);
},
{
closed = 1;
nodes = (
(208,352,l),
(208,517,l),
(13,517,l),
(13,352,l)
);
}
);
width = 366;
},
{
layerId = "4054872B-F70F-4FA7-B657-FACA7DE5D444";
shapes = (
{
closed = 1;
nodes = (
(222,0,l),
(222,569,ls),
(222,628,o),
(250,658,o),
(302,658,cs),
(329,658,o),
(354,649,o),
(373,635,c),
(405,719,l),
(378,739,o),
(338,748,o),
(296,748,cs),
(177,748,o),
(112,678,o),
(112,570,cs),
(112,0,l)
);
},
{
closed = 1;
nodes = (
(167,442,l),
(167,532,l),
(23,532,l),
(23,442,l)
);
}
);
width = 312;
},
{
layerId = "6C677F0D-8978-4FCA-B34D-F7758EC5234D";
shapes = (
{
closed = 1;
nodes = (
(154,0,l),
(154,613,ls),
(154,686,o),
(190,726,o),
(260,726,cs),
(293,726,o),
(324,715,o),
(346,694,c),
(360,708,l),
(336,733,o),
(296,745,o),
(259,745,cs),
(179,745,o),
(134,694,o),
(134,618,cs),
(134,0,l)
);
},
{
closed = 1;
nodes = (
(149,498,l),
(149,517,l),
(34,517,l),
(34,498,l)
);
}
);
width = 273;
}
);
leftKerningGroup = longs;
rightKerningGroup = longs;
unicode = 383;
}
{
color = 3;
glyphname = oogonek;
layers = (
{
anchors = (
{
name = bottom;
position = "{336, 0}";
},
{
name = center;
position = "{336, 274}";
},
{
name = top;
position = "{336, 547}";
},
{
name = topright;
position = "{432, 547}";
}
);
layerId = "80A23A3A-6F8A-47FF-B13B-1FE7B70F65E8";
shapes = (
{
closed = 1;
nodes = (
(414,-240,o),
(460,-230,o),
(484,-217,c),
(457,-124,l),
(442,-131,o),
(420,-138,o),
(398,-138,cs),
(361,-138,o),
(345,-118,o),
(345,-96,cs),
(345,-62,o),
(367,-26,o),
(466,11,cs),
(582,55,o),
(657,151,o),
(657,274,cs),
(657,440,o),
(525,557,o),
(339,557,cs),
(154,557,o),
(21,440,o),
(21,274,cs),
(21,108,o),
(154,-10,o),
(339,-10,cs),
(355,-10,o),
(370,-8,o),
(386,-6,c),
(380,39,l),
(274,16,o),
(213,-43,o),
(213,-117,cs),
(213,-192,o),
(271,-240,o),
(371,-240,cs)
);
},
{
closed = 1;
nodes = (
(289,166,o),
(250,203,o),
(250,274,cs),
(250,345,o),
(289,381,o),
(339,381,cs),
(389,381,o),
(428,345,o),
(428,274,cs),
(428,203,o),
(389,166,o),
(339,166,cs)
);
}
);
width = 678;
},
{
anchors = (
{
name = bottom;
position = "{319, 0}";
},
{
name = center;
position = "{319, 266}";
},
{
name = top;
position = "{319, 532}";
},
{
name = topright;
position = "{451, 532}";
}
);
background = {
shapes = (
{
closed = 1;
nodes = (
(383,-226,o),
(417,-217,o),
(442,-203,c),
(422,-147,l),
(406,-157,o),
(382,-163,o),
(361,-163,cs),
(326,-163,o),
(301,-145,o),
(301,-113,cs),
(301,-73,o),
(335,-38,o),
(419,0,c),
(368,35,l),
(263,-7,o),
(224,-66,o),
(224,-122,cs),
(224,-183,o),
(270,-226,o),
(349,-226,cs)
);
}
);
};
layerId = "4054872B-F70F-4FA7-B657-FACA7DE5D444";
shapes = (
{
closed = 1;
nodes = (
(383,-226,o),
(417,-217,o),
(442,-203,c),
(422,-147,l),
(406,-157,o),
(382,-163,o),
(361,-163,cs),
(326,-163,o),
(301,-145,o),
(301,-112,cs),
(301,-74,o),
(328,-31,o),
(436,15,cs),
(536,58,o),
(600,149,o),
(600,266,cs),
(600,425,o),
(482,538,o),
(320,538,cs),
(159,538,o),
(40,425,o),
(40,266,cs),
(40,107,o),
(159,-6,o),
(320,-6,cs),
(336,-6,o),
(352,-5,o),
(373,-2,c),
(364,35,l),
(261,-6,o),
(224,-66,o),
(224,-124,cs),
(224,-183,o),
(270,-226,o),
(349,-226,cs)
);
},
{
closed = 1;
nodes = (
(224,90,o),
(151,159,o),
(151,266,cs),
(151,373,o),
(224,442,o),
(320,442,cs),
(417,442,o),
(489,373,o),
(489,266,cs),
(489,159,o),
(417,90,o),
(320,90,cs)
);
}
);
width = 640;
},
{
anchors = (
{
name = bottom;
position = "{305, 0}";
},
{
name = center;
position = "{305, 259}";
},
{
name = top;
position = "{305, 517}";
},
{
name = topright;
position = "{466, 518}";
}
);
layerId = "6C677F0D-8978-4FCA-B34D-F7758EC5234D";
shapes = (
{
closed = 1;
nodes = (
(362,-213,o),
(386,-205,o),
(408,-186,c),
(397,-171,l),
(381,-186,o),
(358,-194,o),
(335,-194,cs),
(294,-194,o),
(263,-173,o),
(263,-130,cs),
(263,-91,o),
(279,-44,o),
(412,19,cs),
(501,61,o),
(556,147,o),
(556,259,cs),
(556,412,o),
(449,520,o),
(305,520,cs),
(161,520,o),
(54,412,o),
(54,259,cs),
(54,106,o),
(161,-3,o),
(305,-3,cs),
(322,-3,o),
(338,-2,o),
(363,2,c),
(374,16,l),
(264,-34,o),
(243,-89,o),
(243,-130,cs),
(243,-182,o),
(282,-213,o),
(334,-213,cs)
);
},
{
closed = 1;
nodes = (
(173,16,o),
(74,116,o),
(74,259,cs),
(74,402,o),
(173,501,o),
(305,501,cs),
(437,501,o),
(536,402,o),
(536,259,cs),
(536,116,o),
(437,16,o),
(305,16,cs)
);
}
);
width = 610;
}
);
leftKerningGroup = o;
rightKerningGroup = o;
unicode = 491;
}
{
color = 3;
glyphname = jdotless;
layers = (
{
anchors = (
{
name = top;
position = "{171, 547}";
}
);
layerId = "80A23A3A-6F8A-47FF-B13B-1FE7B70F65E8";
shapes = (
{
closed = 1;
nodes = (
(196,-204,o),
(284,-113,o),
(284,28,cs),
(284,547,l),
(58,547,l),
(58,30,ls),
(58,-14,o),
(38,-33,o),
(11,-33,cs),
(-7,-33,o),
(-25,-28,o),
(-40,-20,c),
(-94,-177,l),
(-59,-195,o),
(-8,-204,o),
(45,-204,cs)
);
}
);
width = 334;
},
{
anchors = (
{
name = top;
position = "{147, 532}";
}
);
background = {
shapes = (
{
closed = 1;
nodes = (
(139,-200,o),
(202,-130,o),
(202,-22,cs),
(202,532,l),
(92,532,l),
(92,-19,ls),
(92,-78,o),
(63,-108,o),
(13,-108,cs),
(-15,-108,o),
(-40,-100,o),
(-59,-85,c),
(-90,-168,l),
(-62,-190,o),
(-17,-200,o),
(29,-200,cs)
);
}
);
};
layerId = "4054872B-F70F-4FA7-B657-FACA7DE5D444";
shapes = (
{
closed = 1;
nodes = (
(139,-200,o),
(202,-129,o),
(202,-16,cs),
(202,532,l),
(92,532,l),
(92,-19,ls),
(92,-78,o),
(65,-108,o),
(17,-108,cs),
(-13,-108,o),
(-40,-100,o),
(-59,-85,c),
(-93,-169,l),
(-65,-191,o),
(-21,-200,o),
(24,-200,cs)
);
}
);
width = 289;
},
{
anchors = (
{
name = top;
position = "{130, 517}";
}
);
layerId = "6C677F0D-8978-4FCA-B34D-F7758EC5234D";
shapes = (
{
closed = 1;
nodes = (
(97,-197,o),
(140,-146,o),
(140,-70,cs),
(140,517,l),
(120,517,l),
(120,-65,ls),
(120,-138,o),
(84,-178,o),
(17,-178,cs),
(-19,-178,o),
(-50,-167,o),
(-72,-146,c),
(-86,-160,l),
(-62,-185,o),
(-22,-197,o),
(18,-197,cs)
);
}
);
width = 255;
}
);
leftKerningGroup = j;
rightKerningGroup = u;
unicode = 567;
}
{
glyphname = schwa;
layers = (
{
anchors = (
{
name = bottom;
position = "{326, 0}";
},
{
name = ogonek;
position = "{100, 547}";
},
{
name = top;
position = "{326, 547}";
}
);
layerId = "80A23A3A-6F8A-47FF-B13B-1FE7B70F65E8";
shapes = (
{
closed = 1;
nodes = (
(192,557,o),
(115,527,o),
(62,469,c),
(180,350,l),
(216,377,o),
(244,390,o),
(294,390,cs),
(368,390,o),
(411,351,o),
(411,280,cs),
(411,246,ls),
(411,183,o),
(376,144,o),
(320,144,cs),
(265,144,o),
(229,183,o),
(229,246,c),
(144,217,l),
(445,217,l),
(445,326,l),
(24,326,l),
(23,310,o),
(21,289,o),
(21,273,cs),
(21,88,o),
(160,-10,o),
(322,-10,cs),
(499,-10,o),
(632,107,o),
(632,273,cs),
(632,436,o),
(502,557,o),
(301,557,cs)
);
}
);
width = 653;
},
{
anchors = (
{
name = bottom;
position = "{308, 0}";
},
{
name = ogonek;
position = "{93, 532}";
},
{
name = top;
position = "{308, 532}";
}
);
layerId = "4054872B-F70F-4FA7-B657-FACA7DE5D444";
shapes = (
{
closed = 1;
nodes = (
(197,538,o),
(123,508,o),
(75,452,c),
(135,381,l),
(173,422,o),
(223,442,o),
(284,442,cs),
(395,442,o),
(469,373,o),
(469,272,cs),
(469,254,ls),
(469,155,o),
(402,87,o),
(306,87,cs),
(210,87,o),
(143,155,o),
(144,251,c),
(100,225,l),
(490,225,l),
(490,304,l),
(42,304,l),
(41,293,o),
(40,279,o),
(40,270,cs),
(40,105,o),
(150,-6,o),
(306,-6,cs),
(462,-6,o),
(577,108,o),
(577,266,cs),
(577,425,o),
(462,538,o),
(287,538,cs)
);
}
);
width = 617;
},
{
anchors = (
{
name = bottom;
position = "{293, 0}";
},
{
name = ogonek;
position = "{94, 517}";
},
{
name = top;
position = "{293, 517}";
}
);
layerId = "6C677F0D-8978-4FCA-B34D-F7758EC5234D";
shapes = (
{
closed = 1;
nodes = (
(201,520,o),
(131,491,o),
(85,435,c),
(99,421,l),
(140,475,o),
(206,501,o),
(275,501,cs),
(412,501,o),
(514,401,o),
(514,258,cs),
(514,254,ls),
(514,118,o),
(421,16,o),
(294,16,cs),
(167,16,o),
(73,118,o),
(73,254,c),
(65,239,l),
(522,239,l),
(522,258,l),
(54,258,l),
(54,256,o),
(54,255,o),
(54,253,cs),
(54,103,o),
(158,-3,o),
(294,-3,cs),
(431,-3,o),
(533,105,o),
(533,258,cs),
(533,411,o),
(424,520,o),
(275,520,cs)
);
}
);
width = 587;
}
);
leftKerningGroup = o;
rightKerningGroup = o;
unicode = 601;
}
{
glyphname = apostrophemod;
layers = (
{
layerId = "80A23A3A-6F8A-47FF-B13B-1FE7B70F65E8";
shapes = (
{
alignment = -1;
ref = quoteright;
}
);
width = 322;
},
{
background = {
shapes = (
{
closed = 1;
nodes = (
(115,439,l),
(132,700,l),
(58,700,l),
(55,439,l)
);
}
);
};
layerId = "4054872B-F70F-4FA7-B657-FACA7DE5D444";
shapes = (
{
alignment = -1;
ref = quoteright;
}
);
width = 247;
},
{
layerId = "6C677F0D-8978-4FCA-B34D-F7758EC5234D";
shapes = (
{
alignment = -1;
ref = quoteright;
}
);
width = 189;
}
);
leftKerningGroup = apostrophemod;
rightKerningGroup = apostrophemod;
unicode = 700;
}
{
color = 3;
glyphname = ringhalfright;
layers = (
{
layerId = "80A23A3A-6F8A-47FF-B13B-1FE7B70F65E8";
shapes = (
{
closed = 1;
nodes = (
(300,590,l),
(379,590,o),
(440,649,o),
(440,724,cs),
(440,799,o),
(379,858,o),
(300,858,c),
(300,778,l),
(330,778,o),
(354,756,o),
(354,724,cs),
(354,692,o),
(330,670,o),
(300,670,c)
);
}
);
width = 600;
},
{
background = {
shapes = (
{
closed = 1;
nodes = (
(364,594,o),
(412,643,o),
(412,705,cs),
(412,767,o),
(364,818,o),
(299,818,c),
(299,769,l),
(336,769,o),
(364,742,o),
(364,705,cs),
(364,669,o),
(337,642,o),
(299,642,c),
(299,594,l)
);
}
);
};
layerId = "4054872B-F70F-4FA7-B657-FACA7DE5D444";
shapes = (
{
closed = 1;
nodes = (
(299,594,l),
(367,594,o),
(415,643,o),
(415,705,cs),
(415,767,o),
(367,818,o),
(299,818,c),
(299,769,l),
(336,769,o),
(364,742,o),
(364,705,cs),
(364,669,o),
(337,642,o),
(299,642,c)
);
}
);
width = 600;
},
{
layerId = "6C677F0D-8978-4FCA-B34D-F7758EC5234D";
shapes = (
{
closed = 1;
nodes = (
(299,597,l),
(353,597,o),
(391,638,o),
(391,687,cs),
(391,737,o),
(352,780,o),
(299,780,c),
(299,761,l),
(341,761,o),
(371,728,o),
(371,687,cs),
(371,647,o),
(342,616,o),
(299,616,c)
);
}
);
width = 600;
}
);
leftKerningGroup = ringhalfright;
rightKerningGroup = ringhalfright;
unicode = 702;
}
{
color = 3;
glyphname = ringhalfleft;
layers = (
{
layerId = "80A23A3A-6F8A-47FF-B13B-1FE7B70F65E8";
shapes = (
{
closed = 1;
nodes = (
(300,670,l),
(270,670,o),
(246,692,o),
(246,724,cs),
(246,756,o),
(270,778,o),
(300,778,c),
(300,858,l),
(221,858,o),
(160,799,o),
(160,724,cs),
(160,649,o),
(221,590,o),
(300,590,c)
);
}
);
width = 600;
},
{
background = {
shapes = (
{
closed = 1;
nodes = (
(299,642,l),
(262,642,o),
(235,669,o),
(235,705,cs),
(235,742,o),
(263,769,o),
(299,769,c),
(299,818,l),
(235,818,o),
(186,767,o),
(186,705,cs),
(186,643,o),
(235,594,o),
(299,594,c)
);
}
);
};
layerId = "4054872B-F70F-4FA7-B657-FACA7DE5D444";
shapes = (
{
closed = 1;
nodes = (
(299,642,l),
(262,642,o),
(235,669,o),
(235,705,cs),
(235,742,o),
(263,769,o),
(299,769,c),
(299,818,l),
(232,818,o),
(183,767,o),
(183,705,cs),
(183,643,o),
(232,594,o),
(299,594,c)
);
}
);
width = 600;
},
{
layerId = "6C677F0D-8978-4FCA-B34D-F7758EC5234D";
shapes = (
{
closed = 1;
nodes = (
(299,616,l),
(256,616,o),
(227,647,o),
(227,687,cs),
(227,728,o),
(257,761,o),
(299,761,c),
(299,780,l),
(246,780,o),
(207,737,o),
(207,687,cs),
(207,638,o),
(245,597,o),
(299,597,c)
);
}
);
width = 600;
}
);
leftKerningGroup = ringhalfleft;
rightKerningGroup = ringhalfleft;
unicode = 703;
}
{
glyphname = verticallinemod;
layers = (
{
layerId = "80A23A3A-6F8A-47FF-B13B-1FE7B70F65E8";
shapes = (
{
closed = 1;
nodes = (
(173,497,l),
(173,701,l),
(29,701,l),
(29,497,l)
);
}
);
width = 202;
},
{
background = {
shapes = (
{
closed = 1;
nodes = (
(125,508,l),
(125,700,l),
(50,700,l),
(50,508,l)
);
}
);
};
layerId = "4054872B-F70F-4FA7-B657-FACA7DE5D444";
shapes = (
{
closed = 1;
nodes = (
(125,508,l),
(125,700,l),
(50,700,l),
(50,508,l)
);
}
);
width = 175;
},
{
layerId = "6C677F0D-8978-4FCA-B34D-F7758EC5234D";
shapes = (
{
closed = 1;
nodes = (
(87,519,l),
(87,699,l),
(67,699,l),
(67,519,l)
);
}
);
width = 154;
}
);
leftKerningGroup = verticallinemod;
rightKerningGroup = verticallinemod;
unicode = 712;
}
{
color = 3;
glyphname = fourthtonechinese;
layers = (
{
anchors = (
{
name = _top;
position = "{300, 547}";
},
{
name = top;
position = "{300, 760}";
}
);
layerId = "80A23A3A-6F8A-47FF-B13B-1FE7B70F65E8";
shapes = (
{
closed = 1;
nodes = (
(405,607,l),
(273,767,l),
(58,767,l),
(255,607,l)
);
}
);
width = 600;
},
{
anchors = (
{
name = _top;
position = "{300, 532}";
},
{
name = top;
position = "{300, 709}";
}
);
background = {
shapes = (
{
closed = 1;
nodes = (
(371,607,l),
(235,741,l),
(118,741,l),
(289,607,l)
);
}
);
};
layerId = "4054872B-F70F-4FA7-B657-FACA7DE5D444";
shapes = (
{
closed = 1;
nodes = (
(381,607,l),
(245,741,l),
(108,741,l),
(279,607,l)
);
}
);
width = 600;
},
{
anchors = (
{
name = _top;
position = "{300, 517}";
},
{
name = top;
position = "{300, 660}";
}
);
layerId = "6C677F0D-8978-4FCA-B34D-F7758EC5234D";
shapes = (
{
closed = 1;
nodes = (
(345,607,l),
(205,717,l),
(165,717,l),
(315,607,l)
);
}
);
width = 600;
}
);
leftKerningGroup = gravecomb;
rightKerningGroup = gravecomb;
unicode = 715;
}
{
glyphname = verticallinelowmod;
layers = (
{
layerId = "80A23A3A-6F8A-47FF-B13B-1FE7B70F65E8";
shapes = (
{
closed = 1;
nodes = (
(177,-234,l),
(177,-30,l),
(29,-30,l),
(29,-234,l)
);
}
);
width = 206;
},
{
background = {
shapes = (
{
closed = 1;
nodes = (
(126,-222,l),
(126,-30,l),
(50,-30,l),
(50,-222,l)
);
}
);
};
layerId = "4054872B-F70F-4FA7-B657-FACA7DE5D444";
shapes = (
{
closed = 1;
nodes = (
(126,-222,l),
(126,-30,l),
(50,-30,l),
(50,-222,l)
);
}
);
width = 176;
},
{
layerId = "6C677F0D-8978-4FCA-B34D-F7758EC5234D";
shapes = (
{
closed = 1;
nodes = (
(87,-210,l),
(87,-30,l),
(67,-30,l),
(67,-210,l)
);
}
);
width = 154;
}
);
leftKerningGroup = verticallinelowmod;
rightKerningGroup = verticallinelowmod;
unicode = 716;
}
{
glyphname = acutecomb;
layers = (
{
anchors = (
{
name = _top;
position = "{300, 547}";
},
{
name = top;
position = "{300, 760}";
}
);
layerId = "80A23A3A-6F8A-47FF-B13B-1FE7B70F65E8";
shapes = (
{
closed = 1;
nodes = (
(345,607,l),
(542,767,l),
(327,767,l),
(195,607,l)
);
}
);
width = 600;
},
{
anchors = (
{
name = _top;
position = "{300, 532}";
},
{
name = top;
position = "{300, 709}";
}
);
background = {
shapes = (
{
closed = 1;
nodes = (
(311,607,l),
(482,741,l),
(365,741,l),
(229,607,l)
);
}
);
};
layerId = "4054872B-F70F-4FA7-B657-FACA7DE5D444";
shapes = (
{
closed = 1;
nodes = (
(321,607,l),
(492,741,l),
(355,741,l),
(219,607,l)
);
}
);
width = 600;
},
{
anchors = (
{
name = _top;
position = "{300, 517}";
},
{
name = top;
position = "{300, 660}";
}
);
layerId = "6C677F0D-8978-4FCA-B34D-F7758EC5234D";
shapes = (
{
closed = 1;
nodes = (
(285,607,l),
(435,717,l),
(395,717,l),
(255,607,l)
);
}
);
width = 600;
}
);
leftKerningGroup = acutecomb;
rightKerningGroup = acutecomb;
unicode = 769;
}
{
color = 3;
glyphname = brevecomb;
layers = (
{
anchors = (
{
name = _top;
position = "{300, 547}";
},
{
name = top;
position = "{300, 750}";
}
);
layerId = "80A23A3A-6F8A-47FF-B13B-1FE7B70F65E8";
shapes = (
{
closed = 1;
nodes = (
(420,597,o),
(504,662,o),
(509,767,c),
(374,767,l),
(371,730,o),
(341,706,o),
(300,706,cs),
(259,706,o),
(229,730,o),
(226,767,c),
(91,767,l),
(96,662,o),
(180,597,o),
(300,597,cs)
);
}
);
width = 600;
},
{
anchors = (
{
name = _top;
position = "{300, 532}";
},
{
name = top;
position = "{300, 699}";
}
);
background = {
shapes = (
{
closed = 1;
nodes = (
(393,601,o),
(462,654,o),
(466,741,c),
(396,741,l),
(394,693,o),
(353,663,o),
(300,663,cs),
(247,663,o),
(206,693,o),
(204,741,c),
(134,741,l),
(138,654,o),
(207,601,o),
(300,601,cs)
);
}
);
};
layerId = "4054872B-F70F-4FA7-B657-FACA7DE5D444";
shapes = (
{
closed = 1;
nodes = (
(393,601,o),
(464,654,o),
(468,741,c),
(394,741,l),
(392,693,o),
(351,663,o),
(300,663,cs),
(249,663,o),
(208,693,o),
(206,741,c),
(132,741,l),
(136,654,o),
(207,601,o),
(300,601,cs)
);
}
);
width = 600;
},
{
anchors = (
{
name = _top;
position = "{300, 517}";
},
{
name = top;
position = "{300, 650}";
}
);
layerId = "6C677F0D-8978-4FCA-B34D-F7758EC5234D";
shapes = (
{
closed = 1;
nodes = (
(372,604,o),
(430,647,o),
(432,717,c),
(413,717,l),
(411,659,o),
(362,623,o),
(300,623,cs),
(238,623,o),
(189,659,o),
(187,717,c),
(168,717,l),
(170,647,o),
(228,604,o),
(300,604,cs)
);
}
);
width = 600;
}
);
leftKerningGroup = brevecomb;
rightKerningGroup = brevecomb;
unicode = 774;
}
{
color = 3;
glyphname = hookabovecomb;
layers = (
{
anchors = (
{
name = _top;
position = "{300, 547}";
},
{
name = top;
position = "{300, 830}";
}
);
layerId = "80A23A3A-6F8A-47FF-B13B-1FE7B70F65E8";
shapes = (
{
closed = 1;
nodes = (
(343,597,l),
(409,627,o),
(446,670,o),
(446,735,cs),
(446,808,o),
(389,858,o),
(305,858,cs),
(257,858,o),
(211,845,o),
(176,818,c),
(222,734,l),
(242,748,o),
(260,754,o),
(279,754,cs),
(304,754,o),
(321,740,o),
(321,716,cs),
(321,698,o),
(313,680,o),
(275,662,c)
);
}
);
width = 600;
},
{
anchors = (
{
name = _top;
position = "{300, 532}";
},
{
name = top;
position = "{300, 779}";
}
);
background = {
shapes = (
{
closed = 1;
nodes = (
(377,627,o),
(406,663,o),
(406,715,cs),
(406,774,o),
(364,812,o),
(300,812,cs),
(266,812,o),
(230,802,o),
(205,782,c),
(229,732,l),
(249,746,o),
(268,752,o),
(289,752,cs),
(319,752,o),
(340,733,o),
(340,706,cs),
(340,679,o),
(324,658,o),
(285,640,c),
(320,600,l)
);
}
);
};
layerId = "4054872B-F70F-4FA7-B657-FACA7DE5D444";
shapes = (
{
closed = 1;
nodes = (
(322,597,l),
(379,624,o),
(406,663,o),
(406,715,cs),
(406,774,o),
(362,812,o),
(300,812,cs),
(266,812,o),
(231,802,o),
(205,782,c),
(229,732,l),
(249,745,o),
(268,751,o),
(289,751,cs),
(319,751,o),
(340,732,o),
(340,706,cs),
(340,679,o),
(324,658,o),
(285,640,c)
);
}
);
width = 600;
},
{
anchors = (
{
name = _top;
position = "{300, 517}";
},
{
name = top;
position = "{300, 730}";
}
);
layerId = "6C677F0D-8978-4FCA-B34D-F7758EC5234D";
shapes = (
{
closed = 1;
nodes = (
(302,603,l),
(352,627,o),
(375,657,o),
(375,697,cs),
(375,741,o),
(344,769,o),
(296,769,cs),
(273,769,o),
(245,761,o),
(227,748,c),
(235,731,l),
(255,744,o),
(274,750,o),
(297,750,cs),
(331,750,o),
(355,727,o),
(355,696,cs),
(355,662,o),
(333,637,o),
(292,619,c)
);
}
);
width = 600;
}
);
leftKerningGroup = hookabovecomb;
rightKerningGroup = hookabovecomb;
unicode = 777;
}
{
color = 3;
glyphname = hungarumlautcomb;
layers = (
{
anchors = (
{
name = _top;
position = "{300, 547}";
},
{
name = top;
position = "{300, 760}";
}
);
layerId = "80A23A3A-6F8A-47FF-B13B-1FE7B70F65E8";
shapes = (
{
closed = 1;
nodes = (
(492,607,l),
(589,767,l),
(394,767,l),
(342,607,l)
);
},
{
closed = 1;
nodes = (
(258,607,l),
(355,767,l),
(160,767,l),
(108,607,l)
);
}
);
width = 600;
},
{
anchors = (
{
name = _top;
position = "{300, 532}";
},
{
name = top;
position = "{300, 709}";
}
);
background = {
shapes = (
{
closed = 1;
nodes = (
(431,607,l),
(539,741,l),
(435,741,l),
(350,607,l)
);
},
{
closed = 1;
nodes = (
(250,607,l),
(359,741,l),
(255,741,l),
(169,607,l)
);
}
);
};
layerId = "4054872B-F70F-4FA7-B657-FACA7DE5D444";
shapes = (
{
closed = 1;
nodes = (
(436,607,l),
(544,741,l),
(430,741,l),
(345,607,l)
);
},
{
closed = 1;
nodes = (
(255,607,l),
(364,741,l),
(250,741,l),
(164,607,l)
);
}
);
width = 600;
},
{
anchors = (
{
name = _top;
position = "{300, 517}";
},
{
name = top;
position = "{300, 660}";
}
);
layerId = "6C677F0D-8978-4FCA-B34D-F7758EC5234D";
shapes = (
{
closed = 1;
nodes = (
(383,607,l),
(501,717,l),
(467,717,l),
(356,607,l)
);
},
{
closed = 1;
nodes = (
(244,607,l),
(362,717,l),
(328,717,l),
(217,607,l)
);
}
);
width = 600;
}
);
leftKerningGroup = hungarumlautcomb;
rightKerningGroup = hungarumlautcomb;
unicode = 779;
}
{
color = 3;
glyphname = dblgravecomb;
layers = (
{
anchors = (
{
name = _top;
position = "{300, 547}";
},
{
name = top;
position = "{300, 760}";
}
);
layerId = "80A23A3A-6F8A-47FF-B13B-1FE7B70F65E8";
shapes = (
{
closed = 1;
nodes = (
(492,607,l),
(440,767,l),
(245,767,l),
(342,607,l)
);
},
{
closed = 1;
nodes = (
(258,607,l),
(206,767,l),
(11,767,l),
(108,607,l)
);
}
);
width = 600;
},
{
anchors = (
{
name = _top;
position = "{300, 532}";
},
{
name = top;
position = "{300, 709}";
}
);
background = {
shapes = (
{
closed = 1;
nodes = (
(431,607,l),
(345,741,l),
(241,741,l),
(350,607,l)
);
},
{
closed = 1;
nodes = (
(250,607,l),
(165,741,l),
(61,741,l),
(169,607,l)
);
}
);
};
layerId = "4054872B-F70F-4FA7-B657-FACA7DE5D444";
shapes = (
{
closed = 1;
nodes = (
(436,607,l),
(350,741,l),
(236,741,l),
(345,607,l)
);
},
{
closed = 1;
nodes = (
(255,607,l),
(170,741,l),
(56,741,l),
(164,607,l)
);
}
);
width = 600;
},
{
anchors = (
{
name = _top;
position = "{300, 517}";
},
{
name = top;
position = "{300, 660}";
}
);
layerId = "6C677F0D-8978-4FCA-B34D-F7758EC5234D";
shapes = (
{
closed = 1;
nodes = (
(383,607,l),
(272,717,l),
(238,717,l),
(356,607,l)
);
},
{
closed = 1;
nodes = (
(244,607,l),
(133,717,l),
(99,717,l),
(217,607,l)
);
}
);
width = 600;
}
);
leftKerningGroup = dblgravecomb;
rightKerningGroup = dblgravecomb;
unicode = 783;
}
{
glyphname = commaturnedabovecomb;
layers = (
{
anchors = (
{
name = _top;
position = "{300, 547}";
},
{
name = top;
position = "{300, 800}";
}
);
layerId = "80A23A3A-6F8A-47FF-B13B-1FE7B70F65E8";
shapes = (
{
closed = 1;
nodes = (
(372,597,o),
(407,627,o),
(407,672,cs),
(407,718,o),
(371,745,o),
(300,745,c),
(330,672,l),
(395,837,l),
(277,837,l),
(223,752,ls),
(199,714,o),
(193,691,o),
(193,672,cs),
(193,627,o),
(228,597,o),
(300,597,cs)
);
}
);
width = 600;
},
{
anchors = (
{
name = _top;
position = "{300, 532}";
},
{
name = top;
position = "{300, 743}";
}
);
background = {
shapes = (
{
closed = 1;
nodes = (
(340,601,o),
(361,621,o),
(361,650,cs),
(361,680,o),
(339,699,o),
(300,699,c),
(314,658,l),
(356,797,l),
(294,797,l),
(255,704,l),
(243,680,o),
(239,665,o),
(239,650,cs),
(239,622,o),
(260,601,o),
(300,601,cs)
);
}
);
};
layerId = "4054872B-F70F-4FA7-B657-FACA7DE5D444";
shapes = (
{
closed = 1;
nodes = (
(340,601,o),
(361,621,o),
(361,650,cs),
(361,680,o),
(339,699,o),
(300,699,c),
(314,658,l),
(356,797,l),
(294,797,l),
(255,704,l),
(243,680,o),
(239,665,o),
(239,650,cs),
(239,622,o),
(260,601,o),
(300,601,cs)
);
}
);
width = 600;
},
{
anchors = (
{
name = _top;
position = "{300, 517}";
},
{
name = top;
position = "{300, 690}";
}
);
layerId = "6C677F0D-8978-4FCA-B34D-F7758EC5234D";
shapes = (
{
closed = 1;
nodes = (
(315,604,o),
(326,616,o),
(326,630,cs),
(326,644,o),
(314,656,o),
(300,656,c),
(301,645,l),
(325,759,l),
(307,759,l),
(279,659,l),
(277,648,o),
(274,641,o),
(274,630,cs),
(274,618,o),
(284,604,o),
(300,604,cs)
);
}
);
width = 600;
}
);
leftKerningGroup = commaturnedabovecomb;
rightKerningGroup = commaturnedabovecomb;
unicode = 786;
}
{
color = 3;
glyphname = horncomb;
layers = (
{
anchors = (
{
name = _topright;
position = "{300, 547}";
}
);
layerId = "80A23A3A-6F8A-47FF-B13B-1FE7B70F65E8";
shapes = (
{
closed = 1;
nodes = (
(300,409,ls),
(432,409,o),
(510,477,o),
(510,599,cs),
(510,644,o),
(496,681,o),
(473,710,c),
(345,665,l),
(357,651,o),
(365,630,o),
(365,608,cs),
(365,571,o),
(338,547,o),
(310,547,cs),
(270,547,l),
(270,409,l)
);
}
);
width = 600;
},
{
anchors = (
{
name = _topright;
position = "{300, 532}";
}
);
background = {
shapes = (
{
closed = 1;
nodes = (
(300,450,ls),
(394,450,o),
(447,506,o),
(447,593,cs),
(447,629,o),
(436,661,o),
(418,685,c),
(343,659,l),
(355,643,o),
(363,621,o),
(363,597,cs),
(363,560,o),
(342,532,o),
(300,532,cs),
(281,532,l),
(281,450,l)
);
}
);
};
layerId = "4054872B-F70F-4FA7-B657-FACA7DE5D444";
shapes = (
{
closed = 1;
nodes = (
(300,450,ls),
(388,450,o),
(441,506,o),
(441,593,cs),
(441,629,o),
(430,661,o),
(412,685,c),
(343,659,l),
(355,643,o),
(363,621,o),
(363,597,cs),
(363,560,o),
(342,532,o),
(300,532,cs),
(281,532,l),
(281,450,l)
);
}
);
width = 600;
},
{
anchors = (
{
name = _topright;
position = "{300, 517}";
}
);
layerId = "6C677F0D-8978-4FCA-B34D-F7758EC5234D";
shapes = (
{
closed = 1;
nodes = (
(300,498,ls),
(365,498,o),
(390,539,o),
(390,588,cs),
(390,614,o),
(381,642,o),
(368,662,c),
(350,654,l),
(361,635,o),
(370,613,o),
(370,587,cs),
(370,550,o),
(352,517,o),
(300,517,cs),
(290,517,l),
(290,498,l)
);
}
);
width = 600;
}
);
leftKerningGroup = horncomb;
rightKerningGroup = horncomb;
unicode = 795;
}
{
color = 3;
glyphname = dotbelowcomb;
layers = (
{
anchors = (
{
name = _bottom;
position = "{300, 0}";
},
{
name = bottom;
position = "{300, -191}";
}
);
layerId = "80A23A3A-6F8A-47FF-B13B-1FE7B70F65E8";
shapes = (
{
closed = 1;
nodes = (
(351,-226,o),
(390,-192,o),
(390,-139,cs),
(390,-86,o),
(351,-50,o),
(300,-50,cs),
(249,-50,o),
(210,-86,o),
(210,-139,cs),
(210,-192,o),
(249,-226,o),
(300,-226,cs)
);
}
);
width = 600;
},
{
anchors = (
{
name = _bottom;
position = "{300, 0}";
},
{
name = bottom;
position = "{300, -151}";
}
);
background = {
shapes = (
{
closed = 1;
nodes = (
(330,-200,o),
(354,-178,o),
(354,-145,cs),
(354,-112,o),
(330,-88,o),
(300,-88,cs),
(270,-88,o),
(246,-112,o),
(246,-145,cs),
(246,-178,o),
(270,-200,o),
(300,-200,cs)
);
}
);
};
layerId = "4054872B-F70F-4FA7-B657-FACA7DE5D444";
shapes = (
{
closed = 1;
nodes = (
(331,-200,o),
(356,-178,o),
(356,-145,cs),
(356,-112,o),
(331,-88,o),
(300,-88,cs),
(269,-88,o),
(244,-112,o),
(244,-145,cs),
(244,-178,o),
(269,-200,o),
(300,-200,cs)
);
}
);
width = 600;
},
{
anchors = (
{
name = _bottom;
position = "{300, 0}";
},
{
name = bottom;
position = "{300, -113}";
}
);
layerId = "6C677F0D-8978-4FCA-B34D-F7758EC5234D";
shapes = (
{
closed = 1;
nodes = (
(314,-176,o),
(326,-164,o),
(326,-150,cs),
(326,-136,o),
(314,-124,o),
(300,-124,cs),
(286,-124,o),
(274,-136,o),
(274,-150,cs),
(274,-164,o),
(286,-176,o),
(300,-176,cs)
);
}
);
width = 600;
}
);
leftKerningGroup = dotaccentcomb;
rightKerningGroup = dotaccentcomb;
unicode = 803;
}
{
color = 3;
glyphname = ogonekcomb;
layers = (
{
anchors = (
{
name = _ogonek;
position = "{300, 0}";
}
);
layerId = "80A23A3A-6F8A-47FF-B13B-1FE7B70F65E8";
shapes = (
{
closed = 1;
nodes = (
(255,-240,o),
(301,-230,o),
(325,-217,c),
(298,-124,l),
(283,-131,o),
(261,-138,o),
(239,-138,cs),
(202,-138,o),
(186,-120,o),
(186,-97,cs),
(186,-66,o),
(213,-38,o),
(300,0,c),
(221,49,l),
(115,16,o),
(54,-43,o),
(54,-117,cs),
(54,-192,o),
(112,-240,o),
(212,-240,cs)
);
}
);
width = 600;
},
{
anchors = (
{
name = _ogonek;
position = "{301, 0}";
}
);
background = {
shapes = (
{
closed = 1;
nodes = (
(265,-226,o),
(299,-217,o),
(322,-201,c),
(304,-148,l),
(288,-159,o),
(266,-167,o),
(243,-167,cs),
(204,-167,o),
(179,-147,o),
(179,-114,cs),
(179,-81,o),
(201,-43,o),
(301,0,c),
(260,32,l),
(149,-10,o),
(110,-67,o),
(110,-124,cs),
(110,-187,o),
(158,-226,o),
(231,-226,cs)
);
}
);
};
layerId = "4054872B-F70F-4FA7-B657-FACA7DE5D444";
shapes = (
{
closed = 1;
nodes = (
(265,-226,o),
(299,-217,o),
(324,-203,c),
(304,-147,l),
(288,-157,o),
(264,-163,o),
(243,-163,cs),
(208,-163,o),
(183,-145,o),
(183,-113,cs),
(183,-73,o),
(217,-38,o),
(301,0,c),
(250,35,l),
(145,-7,o),
(106,-66,o),
(106,-122,cs),
(106,-183,o),
(152,-226,o),
(231,-226,cs)
);
}
);
width = 600;
},
{
anchors = (
{
name = _ogonek;
position = "{301, 0}";
}
);
layerId = "6C677F0D-8978-4FCA-B34D-F7758EC5234D";
shapes = (
{
closed = 1;
nodes = (
(273,-213,o),
(297,-205,o),
(319,-186,c),
(308,-171,l),
(292,-186,o),
(269,-194,o),
(246,-194,cs),
(205,-194,o),
(174,-173,o),
(174,-130,cs),
(174,-95,o),
(191,-47,o),
(301,0,c),
(291,16,l),
(176,-35,o),
(154,-89,o),
(154,-130,cs),
(154,-182,o),
(193,-213,o),
(245,-213,cs)
);
}
);
width = 600;
}
);
leftKerningGroup = ogonekcomb;
rightKerningGroup = ogonekcomb;
unicode = 808;
}
{
color = 3;
glyphname = brevebelowcomb;
layers = (
{
anchors = (
{
name = _bottom;
position = "{300, 0}";
},
{
name = bottom;
position = "{300, -198}";
}
);
layerId = "80A23A3A-6F8A-47FF-B13B-1FE7B70F65E8";
shapes = (
{
closed = 1;
nodes = (
(420,-225,o),
(503,-162,o),
(509,-67,c),
(382,-67,l),
(378,-101,o),
(346,-124,o),
(300,-124,cs),
(254,-124,o),
(222,-101,o),
(218,-67,c),
(91,-67,l),
(97,-162,o),
(180,-225,o),
(300,-225,cs)
);
}
);
width = 600;
},
{
anchors = (
{
name = _bottom;
position = "{300, 0}";
},
{
name = bottom;
position = "{300, -162}";
}
);
background = {
shapes = (
{
closed = 1;
nodes = (
(393,-211,o),
(462,-159,o),
(466,-79,c),
(399,-79,l),
(397,-124,o),
(355,-152,o),
(300,-152,cs),
(245,-152,o),
(203,-124,o),
(201,-79,c),
(134,-79,l),
(138,-159,o),
(207,-211,o),
(300,-211,cs)
);
}
);
};
layerId = "4054872B-F70F-4FA7-B657-FACA7DE5D444";
shapes = (
{
closed = 1;
nodes = (
(393,-211,o),
(464,-159,o),
(468,-79,c),
(397,-79,l),
(397,-124,o),
(355,-152,o),
(300,-152,cs),
(245,-152,o),
(203,-124,o),
(203,-79,c),
(132,-79,l),
(136,-159,o),
(207,-211,o),
(300,-211,cs)
);
}
);
width = 600;
},
{
anchors = (
{
name = _bottom;
position = "{300, 0}";
},
{
name = bottom;
position = "{300, -128}";
}
);
layerId = "6C677F0D-8978-4FCA-B34D-F7758EC5234D";
shapes = (
{
closed = 1;
nodes = (
(372,-198,o),
(430,-157,o),
(432,-90,c),
(413,-90,l),
(411,-145,o),
(362,-179,o),
(300,-179,cs),
(238,-179,o),
(189,-145,o),
(187,-90,c),
(168,-90,l),
(170,-157,o),
(228,-198,o),
(300,-198,cs)
);
}
);
width = 600;
}
);
leftKerningGroup = brevecomb;
rightKerningGroup = brevecomb;
unicode = 814;
}
{
glyphname = macronbelowcomb;
layers = (
{
anchors = (
{
name = _bottom;
position = "{300, 0}";
},
{
name = bottom;
position = "{300, -176}";
}
);
layerId = "80A23A3A-6F8A-47FF-B13B-1FE7B70F65E8";
shapes = (
{
closed = 1;
nodes = (
(510,-192,l),
(510,-74,l),
(90,-74,l),
(90,-192,l)
);
}
);
width = 600;
},
{
anchors = (
{
name = _bottom;
position = "{300, 0}";
},
{
name = bottom;
position = "{300, -146}";
}
);
background = {
shapes = (
{
closed = 1;
nodes = (
(468,-176,l),
(468,-108,l),
(132,-108,l),
(132,-176,l)
);
}
);
};
layerId = "4054872B-F70F-4FA7-B657-FACA7DE5D444";
shapes = (
{
closed = 1;
nodes = (
(468,-176,l),
(468,-108,l),
(132,-108,l),
(132,-176,l)
);
}
);
width = 600;
},
{
anchors = (
{
name = _bottom;
position = "{300, 0}";
},
{
name = bottom;
position = "{300, -118}";
}
);
layerId = "6C677F0D-8978-4FCA-B34D-F7758EC5234D";
shapes = (
{
closed = 1;
nodes = (
(436,-160,l),
(436,-140,l),
(164,-140,l),
(164,-160,l)
);
}
);
width = 600;
}
);
leftKerningGroup = macroncomb;
rightKerningGroup = macroncomb;
unicode = 817;
}
{
color = 2;
glyphname = strokelongcomb;
layers = (
{
anchors = (
{
name = _center;
position = "{500, 433}";
}
);
layerId = "80A23A3A-6F8A-47FF-B13B-1FE7B70F65E8";
shapes = (
{
closed = 1;
nodes = (
(931,364,l),
(931,500,l),
(69,500,l),
(69,364,l)
);
}
);
width = 1000;
},
{
anchors = (
{
name = _center;
position = "{444, 437}";
}
);
background = {
shapes = (
{
closed = 1;
nodes = (
(850,391,l),
(850,484,l),
(37,484,l),
(37,391,l)
);
}
);
};
layerId = "4054872B-F70F-4FA7-B657-FACA7DE5D444";
shapes = (
{
closed = 1;
nodes = (
(850,392,l),
(850,482,l),
(37,482,l),
(37,392,l)
);
}
);
width = 887;
},
{
anchors = (
{
name = _center;
position = "{400, 441}";
}
);
layerId = "6C677F0D-8978-4FCA-B34D-F7758EC5234D";
shapes = (
{
closed = 1;
nodes = (
(788,432,l),
(788,451,l),
(12,451,l),
(12,432,l)
);
}
);
width = 800;
}
);
leftKerningGroup = strokelongcomb;
rightKerningGroup = strokelongcomb;
unicode = 822;
}
{
color = 2;
glyphname = slashshortcomb;
layers = (
{
anchors = (
{
name = _center;
position = "{300, 401}";
}
);
layerId = "80A23A3A-6F8A-47FF-B13B-1FE7B70F65E8";
shapes = (
{
closed = 1;
nodes = (
(531,495,l),
(461,595,l),
(69,305,l),
(139,205,l)
);
}
);
width = 600;
},
{
anchors = (
{
name = _center;
position = "{217, 388}";
}
);
background = {
shapes = (
{
closed = 1;
nodes = (
(381,461,l),
(332,527,l),
(53,314,l),
(102,249,l)
);
}
);
};
layerId = "4054872B-F70F-4FA7-B657-FACA7DE5D444";
shapes = (
{
closed = 1;
nodes = (
(381,461,l),
(332,527,l),
(53,314,l),
(102,249,l)
);
}
);
width = 443;
},
{
anchors = (
{
name = _center;
position = "{153, 377}";
}
);
layerId = "6C677F0D-8978-4FCA-B34D-F7758EC5234D";
shapes = (
{
closed = 1;
nodes = (
(255,441,l),
(244,455,l),
(51,313,l),
(62,299,l)
);
}
);
width = 322;
}
);
unicode = 823;
}
{
color = 2;
glyphname = slashlongcomb;
layers = (
{
anchors = (
{
name = _center;
position = "{327, 274}";
}
);
layerId = "80A23A3A-6F8A-47FF-B13B-1FE7B70F65E8";
shapes = (
{
closed = 1;
nodes = (
(154,-70,l),
(595,610,l),
(500,610,l),
(59,-70,l)
);
}
);
width = 648;
},
{
anchors = (
{
name = _center;
position = "{313, 267}";
}
);
background = {
shapes = (
{
closed = 1;
nodes = (
(123,-70,l),
(566,601,l),
(503,601,l),
(60,-70,l)
);
}
);
};
layerId = "4054872B-F70F-4FA7-B657-FACA7DE5D444";
shapes = (
{
closed = 1;
nodes = (
(126,-70,l),
(566,601,l),
(500,601,l),
(60,-70,l)
);
}
);
width = 624;
},
{
anchors = (
{
name = _center;
position = "{303, 259}";
}
);
layerId = "6C677F0D-8978-4FCA-B34D-F7758EC5234D";
shapes = (
{
closed = 1;
nodes = (
(91,-70,l),
(537,587,l),
(514,587,l),
(68,-70,l)
);
}
);
width = 606;
}
);
unicode = 824;
}
{
color = 3;
glyphname = Delta;
layers = (
{
layerId = "80A23A3A-6F8A-47FF-B13B-1FE7B70F65E8";
shapes = (
{
closed = 1;
nodes = (
(287,700,l),
(-19,0,l),
(825,0,l),
(519,700,l)
);
},
{
closed = 1;
nodes = (
(447,598,l),
(355,598,l),
(567,76,l),
(617,183,l),
(185,183,l),
(235,76,l)
);
}
);
width = 806;
},
{
background = {
shapes = (
{
closed = 1;
nodes = (
(1313,700,l),
(997,0,l),
(1743,0,l),
(1426,700,l)
);
},
{
closed = 1;
nodes = (
(1392,642,l),
(1346,642,l),
(1614,43,l),
(1639,99,l),
(1098,99,l),
(1123,43,l)
);
},
{
closed = 1;
nodes = (
(115,0,l),
(392,637,l),
(346,637,l),
(623,0,l),
(743,0,l),
(426,700,l),
(313,700,l),
(-3,0,l)
);
}
);
};
layerId = "4054872B-F70F-4FA7-B657-FACA7DE5D444";
shapes = (
{
closed = 1;
nodes = (
(313,700,l),
(-3,0,l),
(743,0,l),
(426,700,l)
);
},
{
closed = 1;
nodes = (
(392,637,l),
(346,637,l),
(604,43,l),
(639,99,l),
(98,99,l),
(133,43,l)
);
}
);
width = 740;
},
{
layerId = "6C677F0D-8978-4FCA-B34D-F7758EC5234D";
shapes = (
{
closed = 1;
nodes = (
(334,700,l),
(9,0,l),
(679,0,l),
(354,700,l)
);
},
{
closed = 1;
nodes = (
(349,684,l),
(339,684,l),
(651,11,l),
(656,19,l),
(31,19,l),
(36,11,l)
);
}
);
width = 688;
}
);
leftKerningGroup = A;
rightKerningGroup = A;
unicode = 916;
}
{
color = 3;
glyphname = Omega;
layers = (
{
layerId = "80A23A3A-6F8A-47FF-B13B-1FE7B70F65E8";
shapes = (
{
closed = 1;
nodes = (
(398,0,l),
(398,170,l),
(327,206,o),
(282,277,o),
(282,361,cs),
(282,467,o),
(352,525,o),
(439,525,cs),
(526,525,o),
(596,467,o),
(596,361,cs),
(596,278,o),
(552,208,o),
(480,170,c),
(480,0,l),
(870,0,l),
(870,183,l),
(750,183,l),
(797,233,o),
(830,305,o),
(830,393,cs),
(830,583,o),
(661,716,o),
(439,716,cs),
(217,716,o),
(48,583,o),
(48,394,cs),
(48,306,o),
(81,233,o),
(128,183,c),
(8,183,l),
(8,0,l)
);
}
);
width = 878;
},
{
background = {
shapes = (
{
closed = 1;
nodes = (
(360,0,l),
(360,92,l),
(249,147,o),
(190,245,o),
(190,355,cs),
(190,505,o),
(301,607,o),
(448,607,cs),
(595,607,o),
(706,505,o),
(706,355,cs),
(706,246,o),
(647,148,o),
(536,92,c),
(536,0,l),
(887,0,l),
(887,99,l),
(677,99,l),
(771,162,o),
(821,262,o),
(821,371,cs),
(821,567,o),
(660,709,o),
(448,709,cs),
(236,709,o),
(75,567,o),
(75,371,cs),
(75,262,o),
(125,162,o),
(219,99,c),
(9,99,l),
(9,0,l)
);
}
);
};
layerId = "4054872B-F70F-4FA7-B657-FACA7DE5D444";
shapes = (
{
closed = 1;
nodes = (
(360,0,l),
(360,92,l),
(249,147,o),
(190,245,o),
(190,355,cs),
(190,505,o),
(296,607,o),
(448,607,cs),
(600,607,o),
(706,505,o),
(706,355,cs),
(706,246,o),
(647,148,o),
(536,92,c),
(536,0,l),
(887,0,l),
(887,99,l),
(706,99,l),
(778,162,o),
(821,252,o),
(821,361,cs),
(821,567,o),
(660,709,o),
(448,709,cs),
(236,709,o),
(75,567,o),
(75,361,cs),
(75,252,o),
(118,162,o),
(190,99,c),
(9,99,l),
(9,0,l)
);
}
);
width = 896;
},
{
layerId = "6C677F0D-8978-4FCA-B34D-F7758EC5234D";
shapes = (
{
closed = 1;
nodes = (
(330,0,l),
(330,19,l),
(189,92,o),
(116,215,o),
(116,350,cs),
(116,541,o),
(262,684,o),
(455,684,cs),
(648,684,o),
(794,541,o),
(794,350,cs),
(794,215,o),
(721,92,o),
(580,19,c),
(580,0,l),
(900,0,l),
(900,20,l),
(621,20,l),
(750,95,o),
(814,221,o),
(814,350,cs),
(814,552,o),
(660,703,o),
(455,703,cs),
(250,703,o),
(96,552,o),
(96,350,cs),
(96,221,o),
(160,95,o),
(289,20,c),
(10,20,l),
(10,0,l)
);
}
);
width = 910;
}
);
leftKerningGroup = Omega;
rightKerningGroup = Omega;
unicode = 937;
}
{
glyphname = "E-cy";
layers = (
{
anchors = (
{
name = bottom;
position = "{381, 0}";
}
);
layerId = "80A23A3A-6F8A-47FF-B13B-1FE7B70F65E8";
shapes = (
{
closed = 1;
nodes = (
(182,433,l),
(182,263,l),
(495,263,l),
(495,433,l)
);
},
{
closed = 1;
nodes = (
(537,-16,o),
(645,34,o),
(714,124,c),
(565,257,l),
(524,205,o),
(475,175,o),
(412,175,cs),
(319,175,o),
(263,243,o),
(263,350,cs),
(263,457,o),
(319,525,o),
(412,525,cs),
(475,525,o),
(524,495,o),
(565,443,c),
(714,576,l),
(645,666,o),
(537,716,o),
(400,716,cs),
(180,716,o),
(25,565,o),
(25,350,cs),
(25,135,o),
(180,-16,o),
(400,-16,cs)
);
}
);
width = 723;
},
{
anchors = (
{
name = bottom;
position = "{387, 0}";
}
);
layerId = "4054872B-F70F-4FA7-B657-FACA7DE5D444";
shapes = (
{
closed = 1;
nodes = (
(127,391,l),
(127,298,l),
(495,298,l),
(495,391,l)
);
},
{
closed = 1;
nodes = (
(520,-9,o),
(618,30,o),
(682,105,c),
(610,177,l),
(556,120,o),
(489,94,o),
(411,94,cs),
(269,94,o),
(166,201,o),
(166,350,cs),
(166,499,o),
(269,606,o),
(411,606,cs),
(489,606,o),
(556,580,o),
(610,523,c),
(682,595,l),
(618,670,o),
(520,709,o),
(405,709,cs),
(201,709,o),
(50,558,o),
(50,350,cs),
(50,142,o),
(201,-9,o),
(405,-9,cs)
);
}
);
width = 709;
},
{
anchors = (
{
name = bottom;
position = "{392, 0}";
}
);
layerId = "6C677F0D-8978-4FCA-B34D-F7758EC5234D";
shapes = (
{
closed = 1;
nodes = (
(84,351,l),
(84,332,l),
(496,332,l),
(496,351,l)
);
},
{
closed = 1;
nodes = (
(508,-3,o),
(598,27,o),
(658,87,c),
(646,101,l),
(582,40,o),
(501,16,o),
(410,16,cs),
(230,16,o),
(91,161,o),
(91,350,cs),
(91,539,o),
(230,684,o),
(410,684,cs),
(501,684,o),
(582,661,o),
(646,600,c),
(658,614,l),
(598,674,o),
(508,703,o),
(410,703,cs),
(218,703,o),
(71,552,o),
(71,350,cs),
(71,148,o),
(218,-3,o),
(410,-3,cs)
);
}
);
width = 704;
}
);
leftKerningGroup = O;
rightKerningGroup = C;
unicode = 1028;
}
{
glyphname = "I-cy";
layers = (
{
anchors = (
{
name = bottom;
position = "{180, 0}";
},
{
name = ogonek;
position = "{294, 0}";
},
{
name = top;
position = "{180, 700}";
},
{
name = topleft;
position = "{-4, 700}";
}
);
layerId = "80A23A3A-6F8A-47FF-B13B-1FE7B70F65E8";
shapes = (
{
closed = 1;
nodes = (
(294,0,l),
(294,700,l),
(62,700,l),
(62,0,l)
);
}
);
width = 356;
},
{
anchors = (
{
name = bottom;
position = "{161, 0}";
},
{
name = ogonek;
position = "{217, 0}";
},
{
name = top;
position = "{161, 700}";
},
{
name = topleft;
position = "{23, 699}";
}
);
layerId = "4054872B-F70F-4FA7-B657-FACA7DE5D444";
shapes = (
{
closed = 1;
nodes = (
(217,0,l),
(217,700,l),
(104,700,l),
(104,0,l)
);
}
);
width = 321;
},
{
anchors = (
{
name = bottom;
position = "{147, 0}";
},
{
name = ogonek;
position = "{157, 0}";
},
{
name = top;
position = "{147, 700}";
},
{
name = topleft;
position = "{45, 699}";
}
);
layerId = "6C677F0D-8978-4FCA-B34D-F7758EC5234D";
shapes = (
{
closed = 1;
nodes = (
(157,0,l),
(157,700,l),
(137,700,l),
(137,0,l)
);
}
);
width = 294;
}
);
leftKerningGroup = H;
rightKerningGroup = H;
unicode = 1030;
}
{
glyphname = "Lje-cy";
layers = (
{
layerId = "99CF2FE1-546D-4EF7-A383-208FF1F90E90";
name = "Bold.Sep 18 17, 15:49";
shapes = (
{
closed = 1;
nodes = (
(309,-13,o),
(359,110,o),
(364,431,cs),
(366,570,l),
(315,517,l),
(551,517,l),
(500,567,l),
(500,0,l),
(732,0,l),
(732,700,l),
(155,700,l),
(150,391,ls),
(148,249,o),
(131,191,o),
(89,191,cs),
(77,191,o),
(64,194,o),
(46,200,c),
(14,14,l),
(52,-4,o),
(92,-13,o),
(141,-13,cs)
);
},
{
closed = 1;
nodes = (
(732,349,l),
(682,298,l),
(800,298,ls),
(849,298,o),
(883,278,o),
(883,232,cs),
(883,186,o),
(849,165,o),
(800,165,cs),
(682,165,l),
(732,114,l)
);
},
{
closed = 1;
nodes = (
(830,0,ls),
(1028,0,o),
(1120,102,o),
(1120,238,cs),
(1120,376,o),
(1040,463,o),
(860,463,cs),
(682,463,l),
(732,403,l),
(732,700,l),
(500,700,l),
(500,0,l)
);
}
);
width = 1141;
},
{
layerId = "80A23A3A-6F8A-47FF-B13B-1FE7B70F65E8";
shapes = (
{
alignment = -1;
ref = "El-cy";
},
{
pos = (451,0);
ref = "Softsign-cy";
}
);
width = 1182;
},
{
layerId = "4054872B-F70F-4FA7-B657-FACA7DE5D444";
shapes = (
{
alignment = -1;
ref = "El-cy";
},
{
pos = (472,0);
ref = "Softsign-cy";
}
);
width = 1187;
},
{
layerId = "6C677F0D-8978-4FCA-B34D-F7758EC5234D";
shapes = (
{
alignment = -1;
ref = "El-cy";
},
{
pos = (481,0);
ref = "Softsign-cy";
}
);
width = 1185;
}
);
leftKerningGroup = "El-cy";
rightKerningGroup = "Softsign-cy";
unicode = 1033;
}
{
glyphname = "Nje-cy";
layers = (
{
layerId = "80A23A3A-6F8A-47FF-B13B-1FE7B70F65E8";
shapes = (
{
closed = 1;
nodes = (
(294,0,l),
(294,272,l),
(507,272,l),
(507,0,l),
(739,0,l),
(739,700,l),
(507,700,l),
(507,455,l),
(294,455,l),
(294,700,l),
(62,700,l),
(62,0,l)
);
},
{
closed = 1;
nodes = (
(739,349,l),
(689,298,l),
(832,298,ls),
(878,298,o),
(905,276,o),
(905,232,cs),
(905,188,o),
(877,165,o),
(832,165,cs),
(689,165,l),
(739,114,l)
);
},
{
closed = 1;
nodes = (
(862,0,ls),
(1036,0,o),
(1142,87,o),
(1142,239,cs),
(1142,382,o),
(1047,463,o),
(882,463,cs),
(689,463,l),
(739,403,l),
(739,700,l),
(507,700,l),
(507,0,l)
);
}
);
width = 1160;
},
{
layerId = "4054872B-F70F-4FA7-B657-FACA7DE5D444";
shapes = (
{
closed = 1;
nodes = (
(217,0,l),
(217,326,l),
(587,326,l),
(587,0,l),
(700,0,l),
(700,700,l),
(587,700,l),
(587,425,l),
(217,425,l),
(217,700,l),
(104,700,l),
(104,0,l)
);
},
{
closed = 1;
nodes = (
(700,368,l),
(673,338,l),
(873,338,ls),
(972,338,o),
(1028,295,o),
(1028,216,cs),
(1028,136,o),
(971,90,o),
(873,90,cs),
(673,90,l),
(700,61,l)
);
},
{
closed = 1;
nodes = (
(884,0,ls),
(1046,0,o),
(1144,81,o),
(1144,221,cs),
(1144,353,o),
(1054,429,o),
(899,429,cs),
(673,429,l),
(700,395,l),
(700,700,l),
(587,700,l),
(587,0,l)
);
}
);
width = 1178;
},
{
layerId = "6C677F0D-8978-4FCA-B34D-F7758EC5234D";
shapes = (
{
closed = 1;
nodes = (
(157,0,l),
(157,377,l),
(649,377,l),
(649,0,l),
(669,0,l),
(669,700,l),
(649,700,l),
(649,396,l),
(157,396,l),
(157,700,l),
(137,700,l),
(137,0,l)
);
},
{
closed = 1;
nodes = (
(669,386,l),
(661,377,l),
(905,377,ls),
(1046,377,o),
(1125,314,o),
(1125,201,cs),
(1125,87,o),
(1044,19,o),
(905,19,cs),
(661,19,l),
(669,10,l)
);
},
{
closed = 1;
nodes = (
(901,0,ls),
(1054,0,o),
(1145,76,o),
(1145,203,cs),
(1145,325,o),
(1059,396,o),
(912,396,cs),
(661,396,l),
(669,388,l),
(669,700,l),
(649,700,l),
(649,0,l)
);
}
);
width = 1192;
}
);
leftKerningGroup = H;
rightKerningGroup = "Softsign-cy";
unicode = 1034;
}
{
color = 1;
glyphname = "Dzhe-cy";
layers = (
{
layerId = "80A23A3A-6F8A-47FF-B13B-1FE7B70F65E8";
shapes = (
{
closed = 1;
nodes = (
(516,700,l),
(516,183,l),
(294,183,l),
(294,700,l),
(62,700,l),
(62,0,l),
(297,0,l),
(297,-137,l),
(513,-137,l),
(513,0,l),
(748,0,l),
(748,700,l)
);
}
);
width = 810;
},
{
layerId = "4054872B-F70F-4FA7-B657-FACA7DE5D444";
shapes = (
{
closed = 1;
nodes = (
(589,700,l),
(589,99,l),
(217,99,l),
(217,700,l),
(104,700,l),
(104,0,l),
(350,0,l),
(350,-156,l),
(456,-156,l),
(456,0,l),
(703,0,l),
(703,700,l)
);
}
);
width = 807;
},
{
layerId = "6C677F0D-8978-4FCA-B34D-F7758EC5234D";
shapes = (
{
closed = 1;
nodes = (
(647,700,l),
(647,19,l),
(157,19,l),
(157,700,l),
(137,700,l),
(137,0,l),
(392,0,l),
(392,-175,l),
(412,-175,l),
(412,0,l),
(667,0,l),
(667,700,l)
);
}
);
width = 804;
}
);
leftKerningGroup = H;
rightKerningGroup = H;
unicode = 1039;
}
{
color = 1;
glyphname = "Ge-cy";
layers = (
{
anchors = (
{
name = _bottomleft;
position = "{62, 0}";
},
{
name = bottomleft;
position = "{62, 0}";
},
{
name = bottomright;
position = "{536, 0}";
},
{
name = top;
position = "{318, 700}";
}
);
layerId = "80A23A3A-6F8A-47FF-B13B-1FE7B70F65E8";
shapes = (
{
closed = 1;
nodes = (
(294,0,l),
(294,568,l),
(243,517,l),
(595,517,l),
(595,700,l),
(62,700,l),
(62,0,l)
);
}
);
width = 611;
},
{
anchors = (
{
name = _bottomleft;
position = "{104, 0}";
},
{
name = bottomleft;
position = "{104, 0}";
},
{
name = bottomright;
position = "{492, 0}";
},
{
name = top;
position = "{329, 700}";
}
);
background = {
shapes = (
{
closed = 1;
nodes = (
(217,0,l),
(217,630,l),
(190,601,l),
(500,601,l),
(500,700,l),
(104,700,l),
(104,0,l)
);
}
);
};
layerId = "4054872B-F70F-4FA7-B657-FACA7DE5D444";
shapes = (
{
closed = 1;
nodes = (
(217,0,l),
(216,629,l),
(189,601,l),
(570,601,l),
(571,700,l),
(104,700,l),
(104,0,l)
);
}
);
width = 581;
},
{
anchors = (
{
name = _bottomleft;
position = "{137, 0}";
},
{
name = bottomleft;
position = "{137, 0}";
},
{
name = bottomright;
position = "{457, 0}";
},
{
name = top;
position = "{338, 700}";
}
);
layerId = "6C677F0D-8978-4FCA-B34D-F7758EC5234D";
shapes = (
{
closed = 1;
nodes = (
(157,0,l),
(157,690,l),
(148,681,l),
(553,681,l),
(553,700,l),
(137,700,l),
(137,0,l)
);
}
);
width = 561;
}
);
leftKerningGroup = H;
rightKerningGroup = "Ge-cy";
unicode = 1043;
}
{
color = 1;
glyphname = "De-cy";
layers = (
{
layerId = "67480CCF-F6C2-497C-800C-93C68B9F57EF";
name = "Bold.Oct 6 17, 18:10";
shapes = (
{
closed = 1;
nodes = (
(225,-137,l),
(225,0,l),
(570,0,l),
(570,-137,l),
(786,-137,l),
(786,183,l),
(9,183,l),
(9,-137,l)
);
},
{
closed = 1;
nodes = (
(104,391,ls),
(99,280,o),
(76,194,o),
(36,136,c),
(223,92,l),
(280,144,o),
(310,251,o),
(318,431,cs),
(322,517,l),
(460,517,l),
(460,100,l),
(692,100,l),
(692,700,l),
(120,700,l)
);
}
);
width = 795;
},
{
layerId = "A3E1C794-149E-4026-81EB-D57F7E007CB0";
name = "Light.Oct 6 17, 18:24";
shapes = (
{
closed = 1;
nodes = (
(50,-155,l),
(50,0,l),
(735,0,l),
(735,-155,l),
(755,-155,l),
(755,19,l),
(30,19,l),
(30,-155,l)
);
},
{
closed = 1;
nodes = (
(203,377,ls),
(193,148,o),
(153,10,o),
(38,19,c),
(66,9,l),
(179,10,o),
(215,161,o),
(224,376,cs),
(237,681,l),
(630,681,l),
(630,10,l),
(650,10,l),
(650,700,l),
(217,700,l)
);
}
);
width = 813;
},
{
layerId = "80A23A3A-6F8A-47FF-B13B-1FE7B70F65E8";
shapes = (
{
closed = 1;
nodes = (
(755,100,l),
(755,700,l),
(163,700,l),
(155,487,l),
(147,309,o),
(124,183,o),
(37,183,c),
(286,155,l),
(337,208,o),
(354,321,o),
(360,467,cs),
(362,517,l),
(523,517,l),
(523,100,l)
);
},
{
closed = 1;
nodes = (
(233,-137,l),
(233,0,l),
(631,0,l),
(631,-137,l),
(847,-137,l),
(847,183,l),
(17,183,l),
(17,-137,l)
);
}
);
width = 864;
},
{
layerId = "4054872B-F70F-4FA7-B657-FACA7DE5D444";
shapes = (
{
closed = 1;
nodes = (
(682,54,l),
(682,700,l),
(180,700,l),
(172,477,ls),
(165,262,o),
(141,94,o),
(38,99,c),
(162,80,l),
(245,107,o),
(266,275,o),
(273,466,cs),
(278,601,l),
(569,601,l),
(569,54,l)
);
},
{
closed = 1;
nodes = (
(120,-151,l),
(121,0,l),
(678,0,l),
(678,-151,l),
(784,-151,l),
(784,99,l),
(15,99,l),
(14,-151,l)
);
}
);
width = 809;
},
{
layerId = "6C677F0D-8978-4FCA-B34D-F7758EC5234D";
shapes = (
{
closed = 1;
nodes = (
(621,10,l),
(621,700,l),
(189,700,l),
(182,467,ls),
(175,218,o),
(150,10,o),
(35,19,c),
(61,9,l),
(170,10,o),
(194,231,o),
(202,466,cs),
(209,681,l),
(601,681,l),
(601,10,l)
);
},
{
closed = 1;
nodes = (
(28,-165,l),
(29,0,l),
(711,0,l),
(711,-165,l),
(731,-165,l),
(731,19,l),
(9,19,l),
(8,-165,l)
);
}
);
width = 774;
}
);
leftKerningGroup = "El-cy";
rightKerningGroup = "De-cy";
unicode = 1044;
}
